<svg xmlns="http://www.w3.org/2000/svg" viewBox="0 0 72 72"><defs><style>.cls-1{fill:#fff;}.cls-2{fill:#a2a2a3;}.cls-3{fill:#c3c3c4;}.cls-4{fill:#dbdbdc;}.cls-5{fill:#f8f8f9;}.cls-6{fill:#939394;}.cls-7{fill:#b4b4b5;}.cls-8{fill:#e7e7e8;}.cls-9{fill:#c5c5c6;}.cls-10{fill:#878788;}.cls-11{fill:#d5d5d6;}.cls-12{fill:#949495;}.cls-13{fill:#777778;}.cls-14{font-size:3.4px;fill:aqua;font-family:SourceHanSansTC-Medium-B5pc-H, Source Han Sans TC;letter-spacing:0.04em;}</style></defs><g id="no-image"><rect class="cls-1" x="35.5" y="59.5" width="3" height="1"/><rect class="cls-1" x="32.5" y="58.5" width="3" height="1"/><rect class="cls-1" x="29.5" y="59.5" width="3" height="1"/><rect class="cls-1" x="26.5" y="58.5" width="3" height="1"/><rect class="cls-1" x="23.5" y="59.5" width="3" height="1"/><rect class="cls-1" x="8.5" y="54.5" width="1" height="2"/><rect class="cls-1" x="7.5" y="52.5" width="1" height="2"/><polygon class="cls-2" points="49.5 46.5 49.5 49.5 48.5 49.5 48.5 50.5 49.5 50.5 49.5 51.5 50.5 51.5 50.5 46.5 49.5 46.5"/><rect class="cls-2" x="47.5" y="48.5" width="1" height="1"/><rect class="cls-3" x="48.5" y="48.5" width="1" height="1"/><rect class="cls-3" x="50.5" y="47.5" width="1" height="1"/><rect class="cls-4" x="58.5" y="44.5" width="1" height="5"/><rect class="cls-4" x="59.5" y="49.5" width="1" height="2"/><rect class="cls-4" x="60.5" y="51.5" width="1" height="3"/><rect class="cls-4" x="52.5" y="45.5" width="1" height="1"/><rect class="cls-4" x="53.5" y="50.5" width="1" height="1"/><rect class="cls-4" x="57.5" y="43.5" width="1" height="1"/><polygon class="cls-5" points="60.5 54.5 60.5 51.5 59.5 51.5 59.5 49.5 58.5 49.5 58.5 46.5 58.5 44.5 57.5 44.5 57.5 43.5 53.5 43.5 53.5 46.5 54.5 46.5 54.5 48.5 53.5 48.5 53.5 50.5 54.5 50.5 54.5 51.5 52.5 51.5 52.5 52.5 49.5 52.5 49.5 53.5 52.5 53.5 52.5 54.5 54.5 54.5 54.5 56.5 53.5 56.5 53.5 55.5 51.5 55.5 51.5 56.5 50.5 56.5 50.5 58.5 51.5 58.5 53.5 58.5 53.5 59.5 54.5 59.5 58.5 59.5 59.5 59.5 59.5 58.5 60.5 58.5 61.5 58.5 61.5 54.5 60.5 54.5"/><polygon class="cls-4" points="53.5 46.5 53.5 47.5 52.5 47.5 52.5 50.5 53.5 50.5 53.5 48.5 54.5 48.5 54.5 46.5 53.5 46.5"/><rect class="cls-2" x="37.5" y="39.5" width="1" height="3" transform="translate(-3 79) rotate(-90)"/><rect class="cls-2" x="34.5" y="40.5" width="1" height="3" transform="translate(-7 77) rotate(-90)"/><polygon class="cls-2" points="39.5 44.5 39.5 43.5 37.5 43.5 37.5 42.5 36.5 42.5 36.5 43.5 34.5 43.5 34.5 44.5 36.5 44.5 36.5 45.5 35.5 45.5 35.5 46.5 38.5 46.5 38.5 45.5 37.5 45.5 37.5 44.5 39.5 44.5"/><rect class="cls-2" x="31" y="35" width="1" height="4" transform="translate(-5.5 68.5) rotate(-90)"/><rect class="cls-6" x="31" y="36" width="1" height="4" transform="translate(-6.5 69.5) rotate(-90)"/><rect class="cls-2" x="27.5" y="36.5" width="1" height="3" transform="translate(-10 66) rotate(-90)"/><rect class="cls-6" x="27.5" y="37.5" width="1" height="3" transform="translate(-11 67) rotate(-90)"/><rect class="cls-2" x="24.5" y="37.5" width="1" height="3" transform="translate(-14 64) rotate(-90)"/><rect class="cls-6" x="24.5" y="38.5" width="1" height="3" transform="translate(-15 65) rotate(-90)"/><rect class="cls-6" x="22" y="40" width="1" height="2" transform="translate(-18.5 63.5) rotate(-90)"/><rect class="cls-6" x="20" y="47" width="1" height="2" transform="translate(-27.5 68.5) rotate(-90)"/><rect class="cls-7" x="18" y="46" width="1" height="2" transform="translate(-28.5 65.5) rotate(-90)"/><rect class="cls-7" x="14.5" y="44.5" width="1" height="3" transform="translate(-31 61) rotate(-90)"/><rect class="cls-7" x="12" y="44" width="1" height="2" transform="translate(-32.5 57.5) rotate(-90)"/><rect class="cls-6" x="20.5" y="48.5" width="1" height="1" transform="translate(42 98) rotate(180)"/><rect class="cls-6" x="20.5" y="50.5" width="1" height="1" transform="translate(42 102) rotate(180)"/><rect class="cls-7" x="20.5" y="49.5" width="1" height="1" transform="translate(42 100) rotate(180)"/><rect class="cls-7" x="20.5" y="51.5" width="1" height="1" transform="translate(42 104) rotate(180)"/><rect class="cls-7" x="20.5" y="53.5" width="1" height="3" transform="translate(42 110) rotate(180)"/><rect class="cls-6" x="20.5" y="52.5" width="1" height="1" transform="translate(42 106) rotate(180)"/><rect class="cls-5" x="27.5" y="52.5" width="1" height="1" transform="translate(56 106) rotate(180)"/><rect class="cls-8" x="33.5" y="49.5" width="1" height="1" transform="translate(68 100) rotate(180)"/><rect class="cls-8" x="39.5" y="48.5" width="1" height="1" transform="translate(80 98) rotate(180)"/><rect class="cls-8" x="36.5" y="47.5" width="1" height="1" transform="translate(74 96) rotate(180)"/><rect class="cls-8" x="35.5" y="46.5" width="1" height="1" transform="translate(72 94) rotate(180)"/><rect class="cls-8" x="31.5" y="45.5" width="1" height="1" transform="translate(64 92) rotate(180)"/><rect class="cls-5" x="39.5" y="40.5" width="1" height="1" transform="translate(80 82) rotate(180)"/><rect class="cls-8" x="28.5" y="45.5" width="1" height="1" transform="translate(58 92) rotate(180)"/><rect class="cls-8" x="38.5" y="46.5" width="1" height="1" transform="translate(78 94) rotate(180)"/><polygon class="cls-9" points="39.5 41.5 38.5 41.5 37.5 41.5 36.5 41.5 36.5 42.5 37.5 42.5 37.5 43.5 38.5 43.5 39.5 43.5 39.5 44.5 37.5 44.5 37.5 45.5 38.5 45.5 38.5 46.5 39.5 46.5 39.5 47.5 38.5 47.5 38.5 46.5 36.5 46.5 36.5 47.5 37.5 47.5 37.5 48.5 39.5 48.5 40.5 48.5 40.5 41.5 39.5 41.5"/><path class="cls-9" d="M35.5,45.5h1v-1h-2v-1h2v-1h-3v2h-3v1h-1v1h1v1h2v1h-2v1h1v1h-3v-1h1v-1h-2v-1h2v-1h-1v-1h-2v6h1v1h1v1h2v-1h3v-1h1v-1h-1v-1h1v-1h2v-1h-1Zm-4,1v-1h1v1Z"/><polygon class="cls-6" points="19.5 41.5 18.5 41.5 18.5 45.5 19.5 45.5 19.5 42.5 21.5 42.5 21.5 41.5 19.5 41.5"/><polygon class="cls-2" points="20.5 39.5 20.5 40.5 18.5 40.5 18.5 41.5 21.5 41.5 21.5 40.5 23.5 40.5 23.5 39.5 20.5 39.5"/><polygon class="cls-10" points="17.5 40.5 17.5 41.5 17.5 45.5 18.5 45.5 18.5 41.5 18.5 40.5 17.5 40.5"/><polygon class="cls-2" points="21.5 43.5 21.5 42.5 19.5 42.5 19.5 46.5 21.5 46.5 22.5 46.5 22.5 54.5 24.5 54.5 24.5 46.5 24.5 43.5 21.5 43.5"/><rect class="cls-2" x="31.5" y="41.5" width="1" height="3" transform="translate(-11 75) rotate(-90)"/><rect class="cls-2" x="28.5" y="42.5" width="1" height="3" transform="translate(-15 73) rotate(-90)"/><rect class="cls-5" x="28.5" y="41.5" width="1" height="3" transform="translate(-14 72) rotate(-90)"/><polygon class="cls-11" points="36.5 38.5 36.5 37.5 33.5 37.5 33.5 38.5 29.5 38.5 29.5 39.5 26.5 39.5 26.5 40.5 23.5 40.5 23.5 41.5 21.5 41.5 21.5 42.5 24.5 42.5 24.5 43.5 27.5 43.5 27.5 42.5 30.5 42.5 30.5 41.5 33.5 41.5 33.5 40.5 36.5 40.5 36.5 39.5 39.5 39.5 39.5 38.5 36.5 38.5"/><polygon class="cls-7" points="16.5 50.5 16.5 51.5 17.5 51.5 17.5 52.5 18.5 52.5 18.5 51.5 18.5 50.5 16.5 50.5"/><polygon class="cls-7" points="17.5 53.5 17.5 52.5 16.5 52.5 16.5 51.5 15.5 51.5 15.5 52.5 14.5 52.5 14.5 53.5 16.5 53.5 16.5 54.5 18.5 54.5 18.5 53.5 17.5 53.5"/><polygon class="cls-7" points="14.5 49.5 14.5 50.5 13.5 50.5 13.5 49.5 14.5 49.5 14.5 48.5 12.5 48.5 12.5 49.5 12.5 52.5 13.5 52.5 13.5 51.5 15.5 51.5 15.5 50.5 16.5 50.5 16.5 49.5 14.5 49.5"/><rect class="cls-5" x="28.5" y="43.5" width="1" height="3" transform="translate(-16 74) rotate(-90)"/><rect class="cls-5" x="22.5" y="41.5" width="1" height="3" transform="translate(-20 66) rotate(-90)"/><polygon class="cls-5" points="24.5 43.5 24.5 44.5 24.5 55.5 25.5 55.5 25.5 44.5 27.5 44.5 27.5 43.5 24.5 43.5"/><rect class="cls-5" x="26.5" y="51.5" width="1" height="3" transform="translate(54 106) rotate(180)"/><polygon class="cls-5" points="36.5 48.5 34.5 48.5 34.5 51.5 36.5 51.5 36.5 50.5 39.5 50.5 39.5 48.5 36.5 48.5"/><rect class="cls-5" x="31.5" y="40.5" width="1" height="3" transform="translate(-10 74) rotate(-90)"/><rect class="cls-5" x="31.5" y="42.5" width="1" height="3" transform="translate(-12 76) rotate(-90)"/><rect class="cls-5" x="34.5" y="39.5" width="1" height="3" transform="translate(-6 76) rotate(-90)"/><rect class="cls-5" x="37.5" y="38.5" width="1" height="3" transform="translate(-2 78) rotate(-90)"/><rect class="cls-2" x="26" y="54" width="1" height="2" transform="translate(-28.5 81.5) rotate(-90)"/><rect class="cls-2" x="28.5" y="52.5" width="1" height="3" transform="translate(-25 83) rotate(-90)"/><rect class="cls-2" x="31.5" y="51.5" width="1" height="3" transform="translate(-21 85) rotate(-90)"/><rect class="cls-2" x="34.5" y="50.5" width="1" height="3" transform="translate(-17 87) rotate(-90)"/><rect class="cls-2" x="37.5" y="49.5" width="1" height="3" transform="translate(-13 89) rotate(-90)"/><polygon class="cls-2" points="40.5 39.5 39.5 39.5 39.5 40.5 40.5 40.5 40.5 49.5 39.5 49.5 39.5 50.5 40.5 50.5 41.5 50.5 41.5 39.5 40.5 39.5"/><polygon class="cls-2" points="25.5 44.5 25.5 45.5 25.5 55.5 26.5 55.5 26.5 45.5 27.5 45.5 27.5 44.5 25.5 44.5"/><rect class="cls-12" x="13.5" y="49.5" width="1" height="1" transform="translate(28 100) rotate(180)"/><rect class="cls-12" x="15.5" y="50.5" width="1" height="1" transform="translate(32 102) rotate(180)"/><rect class="cls-12" x="16.5" y="51.5" width="1" height="1" transform="translate(34 104) rotate(180)"/><path class="cls-12" d="M18.5,48.5h-2v-1h-3v-1h-2v9h2v1h3v1h3v-9Zm0,4h-1v1h1v1h-2v-1h-2v-1h1v-1h-2v1h-1v-4h2v1h2v1h2Z"/><polygon class="cls-2" points="32.5 48.5 32.5 47.5 30.5 47.5 30.5 46.5 29.5 46.5 29.5 47.5 27.5 47.5 27.5 48.5 29.5 48.5 29.5 49.5 28.5 49.5 28.5 50.5 31.5 50.5 31.5 49.5 30.5 49.5 30.5 48.5 32.5 48.5"/><rect class="cls-13" x="58.5" y="43.5" width="1" height="1"/><rect class="cls-13" x="50.5" y="55.5" width="1" height="1"/><rect class="cls-13" x="47.5" y="49.5" width="1" height="1"/><rect class="cls-13" x="48.5" y="50.5" width="1" height="1"/><rect class="cls-13" x="52.5" y="50.5" width="1" height="1"/><rect class="cls-13" x="52.5" y="43.5" width="1" height="2"/><rect class="cls-13" x="53.5" y="42.5" width="5" height="1"/><polygon class="cls-13" points="53.5 46.5 52.5 46.5 52.5 45.5 51.5 45.5 51.5 46.5 50.5 46.5 50.5 47.5 51.5 47.5 51.5 48.5 50.5 48.5 50.5 49.5 51.5 49.5 51.5 50.5 52.5 50.5 52.5 47.5 53.5 47.5 53.5 46.5"/><rect class="cls-13" x="59.5" y="44.5" width="1" height="5"/><rect class="cls-13" x="61.5" y="51.5" width="1" height="7"/><rect class="cls-13" x="60.5" y="49.5" width="1" height="2"/><rect class="cls-13" x="49.5" y="56.5" width="1" height="2"/><rect class="cls-13" x="51.5" y="53.5" width="1" height="2"/><rect class="cls-13" x="53.5" y="54.5" width="1" height="2"/><rect class="cls-13" x="46.5" y="50.5" width="1" height="2"/><rect class="cls-13" x="52" y="54" width="1" height="2" transform="translate(-2.5 107.5) rotate(-90)"/><rect class="cls-13" x="50.5" y="52.5" width="1" height="3" transform="translate(-3 105) rotate(-90)"/><rect class="cls-13" x="36.5" y="58.5" width="1" height="3" transform="translate(-23 97) rotate(-90)"/><rect class="cls-13" x="38.93" y="56.65" width="1" height="3.19" transform="translate(17.75 125.15) rotate(-127.95)"/><rect class="cls-13" x="41.93" y="55.65" width="1" height="3.19" transform="translate(23.39 125.91) rotate(-127.95)"/><rect class="cls-13" x="43.4" y="53.2" width="1" height="3.19" transform="translate(27.68 123.12) rotate(-127.95)"/><rect class="cls-13" x="46.31" y="52.39" width="1" height="2.96" transform="matrix(-0.61, -0.79, 0.79, -0.61, 33.11, 123.91)"/><rect class="cls-13" x="33.5" y="57.5" width="1" height="3" transform="translate(-25 93) rotate(-90)"/><rect class="cls-13" x="30.5" y="58.5" width="1" height="3" transform="translate(-29 91) rotate(-90)"/><rect class="cls-13" x="27.5" y="57.5" width="1" height="3" transform="translate(-31 87) rotate(-90)"/><rect class="cls-13" x="24.5" y="58.5" width="1" height="3" transform="translate(-35 85) rotate(-90)"/><rect class="cls-13" x="17.5" y="58.5" width="1" height="3" transform="translate(-42 78) rotate(-90)"/><rect class="cls-13" x="17.5" y="56.5" width="1" height="3" transform="translate(-40 76) rotate(-90)"/><rect class="cls-2" x="17.5" y="57.5" width="1" height="3" transform="translate(-41 77) rotate(-90)"/><rect class="cls-13" x="14.5" y="55.5" width="1" height="3" transform="translate(-42 72) rotate(-90)"/><rect class="cls-2" x="14.5" y="56.5" width="1" height="3" transform="translate(-43 73) rotate(-90)"/><rect class="cls-2" x="11.5" y="55.5" width="1" height="3" transform="translate(-45 69) rotate(-90)"/><rect class="cls-13" x="14.5" y="57.5" width="1" height="3" transform="translate(-44 74) rotate(-90)"/><rect class="cls-13" x="11.5" y="56.5" width="1" height="3" transform="translate(-46 70) rotate(-90)"/><rect class="cls-13" x="20" y="58" width="1" height="2" transform="translate(-38.5 79.5) rotate(-90)"/><rect class="cls-2" x="20" y="57" width="1" height="2" transform="translate(-37.5 78.5) rotate(-90)"/><rect class="cls-13" x="8.5" y="54.5" width="1" height="2" transform="translate(18 111) rotate(180)"/><rect class="cls-13" x="7.5" y="52.5" width="1" height="2" transform="translate(16 107) rotate(180)"/><rect class="cls-13" x="12" y="43" width="1" height="2" transform="translate(-31.5 56.5) rotate(-90)"/><rect class="cls-13" x="18.5" y="38.5" width="1" height="3" transform="translate(-21 59) rotate(-90)"/><rect class="cls-13" x="21.5" y="37.5" width="1" height="3" transform="translate(-17 61) rotate(-90)"/><rect class="cls-13" x="24.5" y="36.5" width="1" height="3" transform="translate(-13 63) rotate(-90)"/><rect class="cls-13" x="27.5" y="35.5" width="1" height="3" transform="translate(-9 65) rotate(-90)"/><rect class="cls-13" x="31" y="34" width="1" height="4" transform="translate(-4.5 67.5) rotate(-90)"/><rect class="cls-13" x="34.5" y="35.5" width="1" height="3" transform="translate(-2 72) rotate(-90)"/><rect class="cls-13" x="37.5" y="36.5" width="1" height="3" transform="translate(0 76) rotate(-90)"/><rect class="cls-13" x="37.5" y="50.5" width="1" height="3" transform="translate(-14 90) rotate(-90)"/><rect class="cls-13" x="34.5" y="51.5" width="1" height="3" transform="translate(-18 88) rotate(-90)"/><rect class="cls-13" x="31.5" y="52.5" width="1" height="3" transform="translate(-22 86) rotate(-90)"/><rect class="cls-13" x="28.5" y="53.5" width="1" height="3" transform="translate(-26 84) rotate(-90)"/><rect class="cls-13" x="25.5" y="54.5" width="1" height="3" transform="translate(-30 82) rotate(-90)"/><rect class="cls-13" x="23" y="54" width="1" height="2" transform="translate(-31.5 78.5) rotate(-90)"/><polygon class="cls-13" points="19.5 46.5 19.5 45.5 17.5 45.5 17.5 44.5 17.5 40.5 16.5 40.5 16.5 44.5 13.5 44.5 13.5 45.5 16.5 45.5 16.5 46.5 13.5 46.5 13.5 47.5 16.5 47.5 16.5 48.5 19.5 48.5 19.5 47.5 17.5 47.5 17.5 46.5 19.5 46.5"/><polygon class="cls-13" points="39.5 38.5 39.5 39.5 41.5 39.5 41.5 50.5 39.5 50.5 39.5 51.5 41.5 51.5 42.5 51.5 42.5 50.5 42.5 39.5 42.5 38.5 39.5 38.5"/><polygon class="cls-13" points="19.5 46.5 19.5 47.5 21.5 47.5 21.5 56.5 22.5 56.5 22.5 47.5 22.5 46.5 19.5 46.5"/><polygon class="cls-13" points="11.5 51.5 11.5 46.5 13.5 46.5 13.5 45.5 11.5 45.5 11.5 44.5 10.5 44.5 10.5 51.5 8.5 51.5 8.5 52.5 10.5 52.5 10.5 55.5 10.5 56.5 11.5 56.5 13.5 56.5 13.5 55.5 11.5 55.5 11.5 52.5 11.5 51.5"/><rect class="cls-13" x="22.5" y="56.5" width="1" height="3" transform="translate(46 116) rotate(180)"/><rect class="cls-13" x="21.5" y="57.5" width="1" height="1" transform="translate(44 116) rotate(180)"/><rect class="cls-2" x="21.5" y="56.5" width="1" height="1" transform="translate(44 114) rotate(180)"/><polygon class="cls-13" points="20.5 56.5 20.5 48.5 19.5 48.5 19.5 57.5 20.5 57.5 21.5 57.5 21.5 56.5 20.5 56.5"/><rect class="cls-13" x="9.5" y="56.5" width="1" height="1" transform="translate(20 114) rotate(180)"/><rect class="cls-13" x="48" y="52" width="1" height="2" transform="translate(-4.5 101.5) rotate(-90)"/><rect class="cls-13" x="50.5" y="50.5" width="1" height="3" transform="translate(-1 103) rotate(-90)"/><rect class="cls-13" x="60" y="58" width="1" height="2" transform="translate(1.5 119.5) rotate(-90)"/><rect class="cls-13" x="51.5" y="57.5" width="1" height="3" transform="translate(-7 111) rotate(-90)"/><rect class="cls-13" x="56" y="57" width="1" height="6" transform="translate(-3.5 116.5) rotate(-90)"/><polygon class="cls-1" points="52.5 13 52.5 12 19.5 12 19.5 13 18.5 13 18.5 25 19.5 25 19.5 26 37.47 26 37.47 28 38.47 28 38.47 29 39.47 29 39.47 31 40.47 31 40.47 32 41.47 32 41.47 31 42.47 31 42.47 28 41.47 28 41.47 26 52.47 26 52.47 25 52.5 25 53.5 25 53.5 13 52.5 13"/><rect class="cls-13" x="19.5" y="12" width="33" height="1" transform="translate(72 25) rotate(180)"/><rect class="cls-13" x="13" y="18.5" width="12" height="1" transform="translate(0 38) rotate(-90)"/><rect class="cls-13" x="47" y="18.5" width="12" height="1" transform="translate(34 72) rotate(-90)"/><rect class="cls-13" x="38.47" y="28" width="1" height="1" transform="translate(10.47 67.47) rotate(-90)"/><rect class="cls-13" x="40.47" y="31" width="1" height="1" transform="translate(9.47 72.47) rotate(-90)"/><rect class="cls-13" x="38.97" y="29.5" width="2" height="1" transform="translate(9.97 69.97) rotate(-90)"/><polygon class="cls-5" points="52.5 25 52.5 13 19.5 13 19.5 25 38.47 25 38.47 28 39.47 28 39.47 29 40.47 29 40.47 31 41.47 31 41.47 28 40.47 28 40.47 25 52.5 25"/><rect class="cls-13" x="40.47" y="29" width="3" height="1" transform="translate(12.47 71.47) rotate(-90)"/><polygon class="cls-13" points="37.47 25 19.5 25 19.5 26 37.47 26 37.47 28 38.47 28 38.47 25 37.47 25"/><polygon class="cls-13" points="41.47 25 40.47 25 40.47 28 41.47 28 41.47 26 52.47 26 52.47 25 41.47 25"/><path class="cls-13" d="M29.27,16.82a1,1,0,0,0-.84-.46H27.32a1,1,0,0,0-.84.46.7.7,0,0,0-.23.11,1,1,0,0,0-.89-.57H24.8a1,1,0,0,0-.83.45,1,1,0,0,0-.84-.45h-.55a1,1,0,0,0-1,1v3.32a1,1,0,0,0,1,1h.55a1,1,0,0,0,.84-.45,1,1,0,0,0,.83.45h.56a1,1,0,0,0,.89-.56l.23.11a1,1,0,0,0,.84.45h1.11a1,1,0,0,0,.84-.45,1,1,0,0,0,.72-1V17.78A1,1,0,0,0,29.27,16.82Z"/><path class="cls-13" d="M50.66,17.36a1,1,0,0,0-1-1H47.43a1,1,0,0,0-.89.57.8.8,0,0,0-.23-.11,1,1,0,0,0-.84-.46H44.35a1,1,0,0,0-.83.46,1,1,0,0,0-.56.41,1,1,0,0,0-.61.53.18.18,0,0,0-.07-.05,1,1,0,0,0-.72-.89,1,1,0,0,0-.83-.46h-.56a1,1,0,0,0-.84.46,1,1,0,0,0-.68.72v-.18a1,1,0,0,0-1-1H37.1a1,1,0,0,0-.84.45,1,1,0,0,0-.84-.45h-.55a1,1,0,0,0-.7.29,1,1,0,0,0-.7-.29H31.8a1,1,0,0,0-1,1v.42a1,1,0,0,0,.55.89v.7a1,1,0,0,0-.55.9v.41a1,1,0,0,0,1,1h1.67a1,1,0,0,0,.7-.29,1,1,0,0,0,.7.29h.55a1,1,0,0,0,.84-.45,1,1,0,0,0,.84.45h.55a1,1,0,0,0,.7-.29,1,1,0,0,0,.7.29h.56a1,1,0,0,0,.84-.45,1,1,0,0,0,.83.45h.56a1,1,0,0,0,1-.93.52.52,0,0,0,.13.06,1,1,0,0,0,.56.42,1,1,0,0,0,.83.45h1.12a1,1,0,0,0,.84-.45l.23-.11a1,1,0,0,0,.89.56h2.23a1,1,0,0,0,1-1v-.41a1.07,1.07,0,0,0-.22-.63,1,1,0,0,0,.22-.62v-.41a1.17,1.17,0,0,0-.09-.42,1.07,1.07,0,0,0,.09-.41Z"/><path class="cls-1" d="M22.58,20.68V17.36h.55v.83h.56v.42h-.56v2.07Zm1.11-1.24v-.83h.56v.83Zm.56.41v-.41h.55V17.36h.56v3.32H24.8v-.83Z"/><path class="cls-1" d="M26.76,20.27V17.78h.56v2.49Zm.56-2.91h1.11v.42H27.32Zm0,3.32v-.41h1.11v.41ZM29,17.78v2.49h-.56V17.78Z"/><path class="cls-1" d="M31.8,17.78v-.42h1.67v.42h-.56v2.49h.56v.41H31.8v-.41h.55V17.78Z"/><path class="cls-1" d="M34.87,20.68V17.36h.55v.42H36v.41h-.56v2.49ZM36,19v-.83h.56V19Zm1.12,1.66V18.19h-.56v-.41h.56v-.42h.55v3.32Z"/><path class="cls-1" d="M39.05,20.68V18.61h.56V19h1.67v-.41h.56v2.07h-.56V19.44H39.61v1.24Zm.56-2.9h.56v.83h-.56Zm.56-.42h.56v.42h-.56Zm.56,1.25v-.83h.55v.83Z"/><path class="cls-1" d="M43.24,19.85V18.19h.56v1.66Zm.56-2.07h.55v.41H43.8Zm0,2.49v-.42h.55v.42Zm.55-2.91h1.12v.42H44.35Zm0,3.32v-.41h1.12v.41Zm.56-1.24V19H46v1.25h-.56v-.83Zm.56-1.25v-.41H46v.41Z"/><path class="cls-1" d="M47.43,20.68V17.36h2.23v.42H48v.83h1.68V19H48v1.25h1.68v.41Z"/><text class="cls-14" transform="translate(-0.42 -3.29)">像素合併</text></g></svg>