<?xml version="1.0" encoding="UTF-8"?>
<svg id="_圖層_2" data-name="圖層 2" xmlns="http://www.w3.org/2000/svg" xmlns:xlink="http://www.w3.org/1999/xlink" viewBox="0 0 20 20">
  <defs>
    <clipPath id="clippath">
      <rect width="20" height="20" style="fill: none; stroke-width: 0px;"/>
    </clipPath>
  </defs>
  <g id="_圖層_1-2" data-name="圖層 1">
    <g style="clip-path: url(#clippath);">
      <g>
        <path d="M16.7,12.5H6.2c-1.3,0-2.4-1.1-2.4-2.4v-5.3c0-1.3,1.1-2.4,2.4-2.4h10.4c1.4.1,2.4,1.1,2.4,2.4v5.3c0,1.4-1,2.4-2.3,2.4Z" style="fill: #fff; stroke-width: 0px;"/>
        <rect x="1.1" y="6" width="13.7" height="7.4" style="fill: #e5e5e5; stroke-width: 0px;"/>
        <rect x="1.1" y="6" width=".9" height="7.4" style="fill: #fff; stroke-width: 0px;"/>
        <path d="M1,13.4c0,.9.7,2.2,1.6,2.2h2.8c.3,0,.6.1.9.4l.9,1c.5.5,1.3.5,1.7,0l.9-1.1c.2-.3.5-.4.9-.4h2.8c.9,0,1.6-1.2,1.6-2.2" style="fill: #00b792; stroke-width: 0px;"/>
        <path d="M11.6,9.7h-7.4c-.3,0-.5-.2-.5-.5s.2-.5.5-.5h7.4c.3,0,.5.2.5.5s-.2.5-.5.5h0Z" style="fill: #006946; stroke-width: 0px;"/>
        <path d="M8,17.9c-.5,0-.9-.2-1.3-.6l-.9-1.1c-.1-.1-.3-.2-.4-.2h-2.8c-1.2,0-2.1-1-2.1-2.2v-6.4c0-1.2,1-2.2,2.1-2.2h10.8c1.2,0,2.1,1,2.1,2.2v6.4c0,1.2-1,2.2-2.1,2.2h-2.8c-.2,0-.3.1-.4.2l-.9,1.1c-.4.4-.8.6-1.3.6ZM2.6,6.3c-.6,0-1.1.5-1.1,1.1v6.4c0,.7.5,1.2,1.1,1.2h2.8c.5,0,.9.2,1.3.6l.9,1.1c.2.3.7.3.9,0l.9-1.1c.3-.4.8-.6,1.3-.6h2.8c.6,0,1.1-.5,1.1-1.2v-6.4c0-.6-.5-1.2-1.1-1.2l-10.9.1h0Z" style="fill: #006946; stroke-width: 0px;"/>
        <path d="M17.7,12.8c-.2,0-.4-.1-.5-.4-.1-.3.1-.6.4-.7.5-.1.8-.6.8-1.1v-6.4c0-.6-.5-1.2-1.2-1.2H5.8c-.5,0-.9.3-1.1.7-.1.3-.4.4-.7.3s-.4-.4-.3-.7c.4-.8,1.2-1.3,2.1-1.3h11.5c1.2,0,2.2,1,2.2,2.2v6.4c0,1-.7,1.9-1.6,2.1q-.1.1-.2.1h0Z" style="fill: #006946; stroke-width: 0px;"/>
        <path d="M10,12.2h-4.2c-.3,0-.5-.2-.5-.5s.2-.5.5-.5h4.2c.3,0,.5.2.5.5s-.2.5-.5.5Z" style="fill: #006946; stroke-width: 0px;"/>
      </g>
    </g>
  </g>
</svg>