<?xml version="1.0" encoding="UTF-8"?>
<svg id="_圖層_2" data-name="圖層 2" xmlns="http://www.w3.org/2000/svg" viewBox="0 0 47.0777 45.5">
  <g id="Layer_1" data-name="Layer 1">
    <g>
      <path d="M41.7,15.1c1,0,1.4-1.3.6-1.8L24.4,1c-.7-.3-1.5-.3-2.2,0L4.3,13.2c-.8.6-.4,1.8.6,1.8h36.8v.1Z" style="fill: #c1c1c1; stroke-width: 0px;"/>
      <path d="M42.3,13.3c-.2.1-.4.2-.6.2H4.9c-.3,0-.5-.1-.6-.2-.7.6-.3,1.8.6,1.8h36.8c.9,0,1.3-1.2.6-1.8Z" style="fill: #9b9b9b; stroke-width: 0px;"/>
      <path d="M44.9,38.4h-1.5v-3.5c0-.4-.3-.7-.7-.7h-2.7V15.1H6.5v19.1h-2.7c-.4,0-.7.3-.7.7v3.5h-1.6c-.4,0-.7.3-.7.7v3.5h44.8v-3.5c0-.4-.3-.7-.7-.7Z" style="fill: #e5e5e5; stroke-width: 0px;"/>
      <path d="M6.5,34.2V15.1h1.9v19.1h-1.9Z" style="fill: #fff; stroke-width: 0px;"/>
      <rect x=".8" y="41.1" width="44.8" height="1.6" style="fill: #c1c1c1; stroke-width: 0px;"/>
      <path d="M23.2,6.1c-1.6,0-3,1.4-3,3,0,1.7,1.3,3,3,3,1.6,0,3-1.4,3-3s-1.4-3-3-3Z" style="fill: #fff; stroke-width: 0px;"/>
      <g>
        <path d="M44.9,37.7h-.8v-2.7c0-.8-.7-1.5-1.5-1.5h-1.9V15.8h.9c.8,0,1.4-.5,1.7-1.2.2-.7,0-1.5-.7-2L24.8.4l-.1-.1c-.9-.4-1.9-.4-2.8,0,0,0-.1,0-.1.1L3.9,12.6c-.6.4-.9,1.2-.7,2s.9,1.2,1.7,1.2h.9v7.7c0,.4.3.8.8.8s.6-.3.6-.7v-7.7h6.9v17.6h-6.9v-5.2c0-.4-.3-.8-.8-.8s-.8.3-.8.8v5.2h-1.8c-.8,0-1.5.7-1.5,1.5v2.7h-.8c-.8,0-1.5.7-1.5,1.5v3.5c0,.4.3.8.8.8h13c.4,0,.8-.3.8-.8s-.3-.8-.8-.8H1.6v-2.7h43.4v2.8h-26.7c-.4,0-.8.3-.8.8s.3.8.8.8h27.3c.4,0,.8-.3.8-.8v-3.5c0-1-.7-1.6-1.5-1.6ZM39.2,33.4h-6.9V15.8h6.9v17.6ZM30.9,15.8v17.6h-6.9V15.8h6.9ZM6.5,14.3h-1.6c-.1,0-.2-.1-.2-.2s0-.2.1-.3L22.6,1.7c.5-.2,1-.2,1.4,0l17.8,12.2c.1.1.1.2.1.3s-.1.2-.2.2H6.5v-.1ZM15.6,15.8h6.9v17.6h-6.9V15.8ZM42.6,34.9v3.1H3.9l-.1-3,38.8-.1Z" style="fill: #015a48; stroke-width: 0px;"/>
        <path d="M23.2,12.8c-2,0-3.6-1.6-3.6-3.7s1.6-3.6,3.6-3.6h0c2,0,3.6,1.6,3.6,3.7,0,2-1.6,3.6-3.6,3.6ZM23.2,6.8c-1.3,0-2.3,1.1-2.3,2.4s1,2.4,2.3,2.4,2.3-1.1,2.3-2.4-1-2.4-2.3-2.4Z" style="fill: #015a48; stroke-width: 0px;"/>
      </g>
    </g>
    <g>
      <g>
        <path d="M29.4,38.1l16.6-16.6c.4-.4.4-1.1,0-1.5s-1.1-.5-1.5-.1l-18.4,14.7" style="fill: #00b792; stroke-width: 0px;"/>
        <path d="M31.9,33.1c-.6-.7-1.4-1.1-2.3-1.3l-3.5,2.8,3.3,3.5,3.2-3.2c-.1-.7-.3-1.3-.7-1.8Z" style="fill: #c1c1c1; stroke-width: 0px;"/>
      </g>
      <path d="M46.6,19.5c-.6-.7-1.7-.8-2.5-.2l-18.4,14.8q-.1.1-.2.2v.1q0,.1-.1.2h0v.3s0,.1.1.1c0,0,0,.1.1.1h0l3.3,3.5h0l.1.1s.1,0,.1.1h.3c.1,0,.2,0,.3-.1.1,0,.2-.1.2-.2l16.6-16.6c.7-.6.8-1.7.1-2.4ZM29.8,32.6c.6.2,1.1.5,1.5,1h0c.3.3.4.7.6,1.1l-.5.5-2,2-2.2-2.5,2.6-2.1ZM45.6,20.9l-12.6,12.6c-.2-.3-.3-.6-.6-.9-.4-.5-.8-.8-1.4-1.1l14-11.2c.2-.1.4-.1.6,0,.1.2.1.5,0,.6Z" style="fill: #015a48; stroke-width: 0px;"/>
      <g>
        <path d="M23.2,44.8c-1.6-1.4-2.6-3.4-2.4-5.4.2-2.1,1.6-3.9,3.4-5,.1,0,.3-.2.3-.2.9-.5,1.8-.6,2.6-.5.1,0,.2,0,.3.1,1,.3,1.8.9,2.4,1.7,1.2,1.5.9,3.3-.7,4.5-.6.4-1.2.7-1.9.8-2.3.4-4,2-4,4h0Z" style="fill: #fff; stroke-width: 0px;"/>
        <path d="M23.2,45.5c-.2,0-.3-.1-.5-.2-1.9-1.6-2.9-3.9-2.6-6,.2-2.2,1.6-4.2,3.7-5.5.1,0,.3-.2.4-.2,1-.6,2.1-.7,3.1-.5.1,0,.2,0,.3.1,1.1.3,2,1,2.8,1.9.7.9,1,1.9.8,2.9-.1,1-.7,1.9-1.7,2.6-.7.5-1.4.8-2.2.9-2,.4-3.4,1.7-3.4,3.3,0,.3-.2.5-.4.6-.1.1-.2.1-.3.1ZM26.4,34.4c-.5,0-1.1.1-1.6.4-.1,0-.3.1-.3.2-1.7,1.1-2.9,2.7-3,4.4-.1,1.3.3,2.7,1.3,3.9.6-1.6,2.2-2.9,4.3-3.2.6-.1,1.2-.4,1.6-.7.6-.5,1-1,1.1-1.7.1-.6-.1-1.3-.6-1.8-.5-.7-1.2-1.2-2-1.4-.1,0-.2,0-.2-.1-.2,0-.4,0-.6,0Z" style="fill: #015a48; stroke-width: 0px;"/>
      </g>
    </g>
  </g>
</svg>