<?xml version="1.0" encoding="utf-8"?>
<!-- Generator: Adobe Illustrator 28.3.0, SVG Export Plug-In . SVG Version: 6.00 Build 0)  -->
<svg version="1.1" id="_圖層_2" xmlns="http://www.w3.org/2000/svg" xmlns:xlink="http://www.w3.org/1999/xlink" x="0px" y="0px"
	 viewBox="0 0 2613.1 2089.5" style="enable-background:new 0 0 2613.1 2089.5;" xml:space="preserve">
<style type="text/css">
	.st0{fill:#11D0B4;}
	.st1{fill:#8DFFF6;}

	@keyframes marquee {
    0%   { transform: translateX(100%); }

    100% { transform: translateX(-100%); }
}

	.marquee {
		animation: marquee 14s linear infinite;
	}

</style>
<g id="_圖層_1-2">
	<g>
		<g class="marquee">
			<g>
				<path class="st1" d="M902.3,1046.5v-54.9h39.2v7.8H918v15.7h23.5v7.8l-23.5,0.1l0,15.7l23.5,0v7.8H902.3L902.3,1046.5z
					 M941.5,1015.2l-0.1-15.6h7.8v15.7L941.5,1015.2z M941.5,1038.8l0-15.7h7.8v15.7H941.5z"/>
				<path class="st1" d="M957.2,1046.5v-47h7.8v-7.8h31.4v7.8l-23.5,0v15.7l23.5,0v-15.7h7.8v47h-7.8l0-23.5h-23.5l0,23.5H957.2
					L957.2,1046.5z"/>
				<path class="st1" d="M1012,1046.5v-54.9l15.7,0v23.5l23.5,0l-0.1-23.4h7.8v54.9h-7.8v-23.5h-23.5l0,23.5L1012,1046.5z"/>
				<path class="st1" d="M1066.8,1046.6v-47h7.8v-7.8h31.4v7.8h-23.5v15.7h23.5v-15.7h7.8v47h-7.8l0.1-23.5h-23.5v23.5
					L1066.8,1046.6L1066.8,1046.6z"/>
				<path class="st1" d="M1121.7,1046.6v-54.9h15.7v7.8h7.8v7.8h-7.8v39.2L1121.7,1046.6L1121.7,1046.6z M1160.9,1046.6v-39.2h-7.8
					v-7.8h7.8v-7.8h7.8v54.9L1160.9,1046.6L1160.9,1046.6z M1145.2,1015.2v-7.8h7.8v7.8H1145.2z"/>
				<path class="st1" d="M1184.4,1046.6v-7.8h-7.8v-47h15.7v47h23.5v7.8H1184.4L1184.4,1046.6z M1215.7,1038.8v-47h7.8v47H1215.7z"
					/>
				<path class="st1" d="M1247,1046.6v-47l-15.6-0.1v-7.8h47v7.8h-15.7v47L1247,1046.6L1247,1046.6z"/>
			</g>
			<g>
				<path class="st1" d="M463.5,1044.1l0-54.9l39.2,0v7.8h-23.5l0,15.7h23.5v7.8h-23.5v15.7h23.5v7.8L463.5,1044.1L463.5,1044.1z
					 M502.7,1012.7l0-15.7h7.8l0,15.7H502.7z M502.7,1036.3v-15.7h7.8l0,15.7H502.7z"/>
				<path class="st1" d="M518.4,1044.1v-47h7.8v-7.8l31.4,0v7.8h-23.5l0,15.7h23.5l0-15.7h7.8v47h-7.8v-23.5l-23.5,0l0,23.5
					L518.4,1044.1L518.4,1044.1z"/>
				<path class="st1" d="M573.3,1044.1l0-54.9l15.7,0l0,23.5l23.5,0v-23.5h7.8l0,54.9h-7.8v-23.5H589v23.5H573.3z"/>
				<path class="st1" d="M628,1044.1l0-47h7.8v-7.8l31.4,0v7.8h-23.5v15.7h23.5v-15.7h7.8l0,47h-7.8l0.1-23.5h-23.5v23.5L628,1044.1
					L628,1044.1z"/>
				<path class="st1" d="M682.9,1044.1v-54.9h15.7v7.8h7.8v7.8h-7.8l0,39.2L682.9,1044.1L682.9,1044.1z M722.1,1044.1V1005h-7.8
					v-7.8h7.8v-7.8h7.8l0,54.9L722.1,1044.1L722.1,1044.1z M706.5,1012.8v-7.8h7.8v7.8H706.5z"/>
				<path class="st1" d="M745.6,1044.1v-7.8h-7.8l0-47l15.7,0l0,47H777v7.8H745.6L745.6,1044.1z M777,1036.3v-47h7.8l0,47H777z"/>
				<path class="st1" d="M808.4,1044.1l0-47l-15.7,0v-7.8h47v7.8h-15.7v47H808.4L808.4,1044.1z"/>
			</g>
			<g>
				<path class="st1" d="M1338.3,1041.9v-54.9h39.2v7.8H1354v15.7h23.5v7.8l-23.5,0.1v15.7h23.5v7.8H1338.3L1338.3,1041.9z
					 M1377.4,1010.5l0.1-15.6h7.8v15.7L1377.4,1010.5z M1377.5,1034.1v-15.7h7.8v15.7H1377.5z"/>
				<path class="st1" d="M1393.1,1041.9l-0.1-47h7.8v-7.8h31.4v7.8h-23.5v15.7h23.5v-15.7h7.8v47h-7.8v-23.5h-23.5v23.5
					L1393.1,1041.9L1393.1,1041.9z"/>
				<path class="st1" d="M1448,1041.9v-54.9h15.7v23.5h23.5v-23.5h7.8v54.9h-7.8v-23.5h-23.5v23.5H1448L1448,1041.9z"/>
				<path class="st1" d="M1502.8,1041.9v-47h7.8v-7.8h31.4v7.8h-23.5v15.7h23.5v-15.7h7.8v47h-7.8v-23.5h-23.5v23.5H1502.8
					L1502.8,1041.9z"/>
				<path class="st1" d="M1557.6,1041.9v-54.9l15.7,0v7.8h7.8v7.8h-7.8v39.2L1557.6,1041.9L1557.6,1041.9z M1596.8,1041.9v-39.2
					h-7.8V995h7.8v-7.8h7.8v54.9L1596.8,1041.9L1596.8,1041.9z M1581.2,1010.6v-7.8h7.8v7.8H1581.2z"/>
				<path class="st1" d="M1620.3,1041.9v-7.8h-7.8v-47.1l15.7,0v47h23.5v7.8L1620.3,1041.9L1620.3,1041.9z M1651.7,1034.2v-47h7.8
					v47H1651.7z"/>
				<path class="st1" d="M1706.6,1041.9v-47h-15.7v-7.8h47v7.8l-15.6-0.1v47L1706.6,1041.9L1706.6,1041.9z"/>
			</g>
			<g>
				<path class="st1" d="M1781,1041.3v-54.9h39.2v7.8h-23.5l-0.1,15.8l23.5,0v7.8h-23.5v15.7h23.5v7.8L1781,1041.3L1781,1041.3z
					 M1820.2,1010l0-15.7h7.8v15.7H1820.2z M1820.2,1033.5v-15.7h7.8v15.7H1820.2z"/>
				<path class="st1" d="M1835.9,1041.3v-47h7.8v-7.8l31.4,0v7.8h-23.5v15.7h23.5v-15.7h7.8v47h-7.8v-23.5h-23.5v23.5H1835.9
					L1835.9,1041.3z"/>
				<path class="st1" d="M1890.7,1041.4v-54.9h15.7v23.5h23.5v-23.5h7.8v54.9h-7.8v-23.5l-23.5,0v23.5H1890.7L1890.7,1041.4z"/>
				<path class="st1" d="M1945.5,1041.3v-47h7.8v-7.8h31.4v7.8l-23.5,0l0,15.7l23.5-0.1v-15.7h7.8v47h-7.8v-23.5l-23.5,0v23.5
					L1945.5,1041.3L1945.5,1041.3z"/>
				<path class="st1" d="M2000.4,1041.3v-54.9h15.7v7.8h7.8v7.8h-7.8v39.2L2000.4,1041.3L2000.4,1041.3z M2039.6,1041.3v-39.2h-7.8
					v-7.8h7.8v-7.8h7.8l0,54.9L2039.6,1041.3L2039.6,1041.3z M2023.9,1010v-7.8h7.8v7.8H2023.9z"/>
				<path class="st1" d="M2063.1,1041.3v-7.8h-7.8v-47h15.7v47h23.5v7.8H2063.1L2063.1,1041.3z M2094.5,1033.5v-47h7.8v47H2094.5z"
					/>
				<path class="st1" d="M2149.3,1041.3v-47h-15.7v-7.8h47v7.8l-15.7,0v47H2149.3L2149.3,1041.3z"/>
			</g>
		</g>
	</g>
</g>
</svg>
