<?xml version="1.0" encoding="UTF-8"?>
<svg id="_圖層_2" data-name="圖層 2" xmlns="http://www.w3.org/2000/svg" xmlns:xlink="http://www.w3.org/1999/xlink" viewBox="0 0 1921.0362 987.5403">
  <defs>
    <clipPath id="clippath">
      <rect width="1921.0362" height="987.5403" style="fill: none; stroke-width: 0px;"/>
    </clipPath>
    <clipPath id="clippath-1">
      <circle cx="1372.4027" cy="219.4534" r="180.9672" style="fill: none; stroke-width: 0px;"/>
    </clipPath>
    <clipPath id="clippath-2">
      <rect x="-2.4566" y="782.8263" width="621.9938" height="205.5329" style="fill: none; stroke-width: 0px;"/>
    </clipPath>
  </defs>
  <g id="_圖層_1-2" data-name="圖層 1">
    <g style="clip-path: url(#clippath);">
      <g>
        <g style="clip-path: url(#clippath-1);">
          <line x1="1100.3601" y1="252.3845" x2="1409.5415" y2="-56.7969" style="fill: none; stroke: #fff; stroke-miterlimit: 10; stroke-width: 6.8263px;"/>
          <line x1="1116.4305" y1="268.4549" x2="1425.6119" y2="-40.7264" style="fill: none; stroke: #fff; stroke-miterlimit: 10; stroke-width: 6.8263px;"/>
          <line x1="1132.501" y1="284.5254" x2="1441.6824" y2="-24.656" style="fill: none; stroke: #fff; stroke-miterlimit: 10; stroke-width: 6.8263px;"/>
          <line x1="1148.5714" y1="300.5958" x2="1457.7528" y2="-8.5855" style="fill: none; stroke: #fff; stroke-miterlimit: 10; stroke-width: 6.8263px;"/>
          <line x1="1164.6419" y1="316.6663" x2="1473.8232" y2="7.4849" style="fill: none; stroke: #fff; stroke-miterlimit: 10; stroke-width: 6.8263px;"/>
          <line x1="1180.7123" y1="332.7367" x2="1489.8937" y2="23.5553" style="fill: none; stroke: #fff; stroke-miterlimit: 10; stroke-width: 6.8263px;"/>
          <line x1="1196.7828" y1="348.8072" x2="1505.9641" y2="39.6258" style="fill: none; stroke: #fff; stroke-miterlimit: 10; stroke-width: 6.8263px;"/>
          <line x1="1212.8532" y1="364.8776" x2="1522.0346" y2="55.6962" style="fill: none; stroke: #fff; stroke-miterlimit: 10; stroke-width: 6.8263px;"/>
          <line x1="1228.9237" y1="380.948" x2="1538.105" y2="71.7667" style="fill: none; stroke: #fff; stroke-miterlimit: 10; stroke-width: 6.8263px;"/>
          <line x1="1244.9941" y1="397.0185" x2="1554.1755" y2="87.8371" style="fill: none; stroke: #fff; stroke-miterlimit: 10; stroke-width: 6.8263px;"/>
          <line x1="1261.0645" y1="413.0889" x2="1570.2459" y2="103.9076" style="fill: none; stroke: #fff; stroke-miterlimit: 10; stroke-width: 6.8263px;"/>
          <line x1="1277.135" y1="429.1594" x2="1586.3164" y2="119.978" style="fill: none; stroke: #fff; stroke-miterlimit: 10; stroke-width: 6.8263px;"/>
          <line x1="1293.2054" y1="445.2298" x2="1602.3868" y2="136.0485" style="fill: none; stroke: #fff; stroke-miterlimit: 10; stroke-width: 6.8263px;"/>
          <line x1="1309.2759" y1="461.3003" x2="1618.4572" y2="152.1189" style="fill: none; stroke: #fff; stroke-miterlimit: 10; stroke-width: 6.8263px;"/>
          <line x1="1325.3463" y1="477.3707" x2="1634.5277" y2="168.1893" style="fill: none; stroke: #fff; stroke-miterlimit: 10; stroke-width: 6.8263px;"/>
          <line x1="1341.4168" y1="493.4412" x2="1650.5981" y2="184.2598" style="fill: none; stroke: #fff; stroke-miterlimit: 10; stroke-width: 6.8263px;"/>
        </g>
        <circle cx="1220.9143" cy="554.3655" r="262.8528" style="fill: #8cfff6; stroke-width: 0px;"/>
        <circle cx="1697.6932" cy="619.2598" r="106.656" style="fill: none; stroke: #8cfff6; stroke-miterlimit: 10; stroke-width: 31.0119px;"/>
        <circle cx="1660.2305" cy="106.0419" r="73.2876" style="fill: #3098ef; stroke-width: 0px;"/>
        <circle cx="207.9894" cy="40.9428" r="58.1388" style="fill: #3098ef; stroke-width: 0px;"/>
        <circle cx="1738.4313" cy="13.9206" r="95.8062" style="fill: none; stroke: #c486f1; stroke-miterlimit: 10; stroke-width: 20px;"/>
        <g>
          <circle cx="542.0827" cy="415.9788" r="92.5307" style="fill: #8cfff6; stroke-width: 0px;"/>
          <circle cx="397.1452" cy="723.0498" r="142.4809" style="fill: #ffeb15; stroke-width: 0px;"/>
          <circle cx="194.8877" cy="545.3581" r="37.6674" style="fill: #f9659f; stroke-width: 0px;"/>
          <g style="clip-path: url(#clippath-2);">
            <g>
              <g>
                <circle cx="13.2404" cy="795.607" r="7.0056" style="fill: #fff; stroke-width: 0px;"/>
                <circle cx="47.8571" cy="795.607" r="7.0056" style="fill: #fff; stroke-width: 0px;"/>
                <circle cx="82.4738" cy="795.607" r="7.0056" style="fill: #fff; stroke-width: 0px;"/>
                <circle cx="117.0906" cy="795.607" r="7.0056" style="fill: #fff; stroke-width: 0px;"/>
                <circle cx="151.7073" cy="795.607" r="7.0056" style="fill: #fff; stroke-width: 0px;"/>
                <circle cx="186.3241" cy="795.607" r="7.0056" style="fill: #fff; stroke-width: 0px;"/>
                <circle cx="30.5487" cy="818.9089" r="7.0056" style="fill: #fff; stroke-width: 0px;"/>
                <circle cx="65.1655" cy="818.9089" r="7.0056" style="fill: #fff; stroke-width: 0px;"/>
                <circle cx="99.7822" cy="818.9089" r="7.0056" style="fill: #fff; stroke-width: 0px;"/>
                <circle cx="134.399" cy="818.9089" r="7.0056" style="fill: #fff; stroke-width: 0px;"/>
                <circle cx="169.0157" cy="818.9089" r="7.0056" style="fill: #fff; stroke-width: 0px;"/>
                <circle cx="13.2404" cy="846.1763" r="7.0056" style="fill: #fff; stroke-width: 0px;"/>
                <circle cx="47.8571" cy="846.1763" r="7.0056" style="fill: #fff; stroke-width: 0px;"/>
                <circle cx="82.4738" cy="846.1763" r="7.0056" style="fill: #fff; stroke-width: 0px;"/>
                <circle cx="117.0906" cy="846.1763" r="7.0056" style="fill: #fff; stroke-width: 0px;"/>
                <circle cx="151.7073" cy="846.1763" r="7.0056" style="fill: #fff; stroke-width: 0px;"/>
                <circle cx="186.3241" cy="846.1763" r="7.0056" style="fill: #fff; stroke-width: 0px;"/>
                <circle cx="30.5487" cy="869.4782" r="7.0056" style="fill: #fff; stroke-width: 0px;"/>
                <circle cx="65.1655" cy="869.4782" r="7.0056" style="fill: #fff; stroke-width: 0px;"/>
                <circle cx="99.7822" cy="869.4782" r="7.0056" style="fill: #fff; stroke-width: 0px;"/>
                <circle cx="134.399" cy="869.4782" r="7.0056" style="fill: #fff; stroke-width: 0px;"/>
                <circle cx="169.0157" cy="869.4782" r="7.0056" style="fill: #fff; stroke-width: 0px;"/>
                <circle cx="13.2404" cy="896.7456" r="7.0056" style="fill: #fff; stroke-width: 0px;"/>
                <circle cx="47.8571" cy="896.7456" r="7.0056" style="fill: #fff; stroke-width: 0px;"/>
                <circle cx="82.4738" cy="896.7456" r="7.0056" style="fill: #fff; stroke-width: 0px;"/>
                <circle cx="117.0906" cy="896.7456" r="7.0056" style="fill: #fff; stroke-width: 0px;"/>
                <circle cx="151.7073" cy="896.7456" r="7.0056" style="fill: #fff; stroke-width: 0px;"/>
                <circle cx="186.3241" cy="896.7456" r="7.0056" style="fill: #fff; stroke-width: 0px;"/>
                <circle cx="30.5487" cy="920.0475" r="7.0056" style="fill: #fff; stroke-width: 0px;"/>
                <circle cx="65.1655" cy="920.0475" r="7.0056" style="fill: #fff; stroke-width: 0px;"/>
                <circle cx="99.7822" cy="920.0475" r="7.0056" style="fill: #fff; stroke-width: 0px;"/>
                <circle cx="134.399" cy="920.0475" r="7.0056" style="fill: #fff; stroke-width: 0px;"/>
                <circle cx="169.0157" cy="920.0475" r="7.0056" style="fill: #fff; stroke-width: 0px;"/>
                <circle cx="13.2404" cy="947.3149" r="7.0056" style="fill: #fff; stroke-width: 0px;"/>
                <circle cx="47.8571" cy="947.3149" r="7.0056" style="fill: #fff; stroke-width: 0px;"/>
                <circle cx="82.4738" cy="947.3149" r="7.0056" style="fill: #fff; stroke-width: 0px;"/>
                <circle cx="117.0906" cy="947.3149" r="7.0056" style="fill: #fff; stroke-width: 0px;"/>
                <circle cx="151.7073" cy="947.3149" r="7.0056" style="fill: #fff; stroke-width: 0px;"/>
                <circle cx="186.3241" cy="947.3149" r="7.0056" style="fill: #fff; stroke-width: 0px;"/>
                <circle cx="30.5487" cy="970.6168" r="7.0056" style="fill: #fff; stroke-width: 0px;"/>
                <circle cx="65.1655" cy="970.6168" r="7.0056" style="fill: #fff; stroke-width: 0px;"/>
                <circle cx="99.7822" cy="970.6168" r="7.0056" style="fill: #fff; stroke-width: 0px;"/>
                <circle cx="134.399" cy="970.6168" r="7.0056" style="fill: #fff; stroke-width: 0px;"/>
                <circle cx="169.0157" cy="970.6168" r="7.0056" style="fill: #fff; stroke-width: 0px;"/>
              </g>
              <g>
                <g>
                  <circle cx="226.6365" cy="795.607" r="7.0056" style="fill: #fff; stroke-width: 0px;"/>
                  <circle cx="261.2533" cy="795.607" r="7.0056" style="fill: #fff; stroke-width: 0px;"/>
                  <circle cx="295.87" cy="795.607" r="7.0056" style="fill: #fff; stroke-width: 0px;"/>
                  <circle cx="330.4868" cy="795.607" r="7.0056" style="fill: #fff; stroke-width: 0px;"/>
                  <circle cx="365.1035" cy="795.607" r="7.0056" style="fill: #fff; stroke-width: 0px;"/>
                  <circle cx="399.7202" cy="795.607" r="7.0056" style="fill: #fff; stroke-width: 0px;"/>
                  <circle cx="209.3282" cy="818.9089" r="7.0056" style="fill: #fff; stroke-width: 0px;"/>
                  <circle cx="243.9449" cy="818.9089" r="7.0056" style="fill: #fff; stroke-width: 0px;"/>
                  <circle cx="278.5616" cy="818.9089" r="7.0056" style="fill: #fff; stroke-width: 0px;"/>
                  <circle cx="313.1784" cy="818.9089" r="7.0056" style="fill: #fff; stroke-width: 0px;"/>
                  <circle cx="347.7951" cy="818.9089" r="7.0056" style="fill: #fff; stroke-width: 0px;"/>
                  <circle cx="382.4119" cy="818.9089" r="7.0056" style="fill: #fff; stroke-width: 0px;"/>
                  <circle cx="226.6365" cy="846.1763" r="7.0056" style="fill: #fff; stroke-width: 0px;"/>
                  <circle cx="261.2533" cy="846.1763" r="7.0056" style="fill: #fff; stroke-width: 0px;"/>
                  <circle cx="295.87" cy="846.1763" r="7.0056" style="fill: #fff; stroke-width: 0px;"/>
                  <circle cx="330.4868" cy="846.1763" r="7.0056" style="fill: #fff; stroke-width: 0px;"/>
                  <circle cx="365.1035" cy="846.1763" r="7.0056" style="fill: #fff; stroke-width: 0px;"/>
                  <circle cx="399.7202" cy="846.1763" r="7.0056" style="fill: #fff; stroke-width: 0px;"/>
                  <circle cx="209.3282" cy="869.4782" r="7.0056" style="fill: #fff; stroke-width: 0px;"/>
                  <circle cx="243.9449" cy="869.4782" r="7.0056" style="fill: #fff; stroke-width: 0px;"/>
                  <circle cx="278.5616" cy="869.4782" r="7.0056" style="fill: #fff; stroke-width: 0px;"/>
                  <circle cx="313.1784" cy="869.4782" r="7.0056" style="fill: #fff; stroke-width: 0px;"/>
                  <circle cx="347.7951" cy="869.4782" r="7.0056" style="fill: #fff; stroke-width: 0px;"/>
                  <circle cx="382.4119" cy="869.4782" r="7.0056" style="fill: #fff; stroke-width: 0px;"/>
                  <circle cx="226.6365" cy="896.7456" r="7.0056" style="fill: #fff; stroke-width: 0px;"/>
                  <circle cx="261.2533" cy="896.7456" r="7.0056" style="fill: #fff; stroke-width: 0px;"/>
                  <circle cx="295.87" cy="896.7456" r="7.0056" style="fill: #fff; stroke-width: 0px;"/>
                  <circle cx="330.4868" cy="896.7456" r="7.0056" style="fill: #fff; stroke-width: 0px;"/>
                  <circle cx="365.1035" cy="896.7456" r="7.0056" style="fill: #fff; stroke-width: 0px;"/>
                  <circle cx="399.7202" cy="896.7456" r="7.0056" style="fill: #fff; stroke-width: 0px;"/>
                  <circle cx="209.3282" cy="920.0475" r="7.0056" style="fill: #fff; stroke-width: 0px;"/>
                  <circle cx="243.9449" cy="920.0475" r="7.0056" style="fill: #fff; stroke-width: 0px;"/>
                  <circle cx="278.5616" cy="920.0475" r="7.0056" style="fill: #fff; stroke-width: 0px;"/>
                  <circle cx="313.1784" cy="920.0475" r="7.0056" style="fill: #fff; stroke-width: 0px;"/>
                  <circle cx="347.7951" cy="920.0475" r="7.0056" style="fill: #fff; stroke-width: 0px;"/>
                  <circle cx="382.4119" cy="920.0475" r="7.0056" style="fill: #fff; stroke-width: 0px;"/>
                  <circle cx="226.6365" cy="947.3149" r="7.0056" style="fill: #fff; stroke-width: 0px;"/>
                  <circle cx="261.2533" cy="947.3149" r="7.0056" style="fill: #fff; stroke-width: 0px;"/>
                  <circle cx="295.87" cy="947.3149" r="7.0056" style="fill: #fff; stroke-width: 0px;"/>
                  <circle cx="330.4868" cy="947.3149" r="7.0056" style="fill: #fff; stroke-width: 0px;"/>
                  <circle cx="365.1035" cy="947.3149" r="7.0056" style="fill: #fff; stroke-width: 0px;"/>
                  <circle cx="399.7202" cy="947.3149" r="7.0056" style="fill: #fff; stroke-width: 0px;"/>
                  <circle cx="209.3282" cy="970.6168" r="7.0056" style="fill: #fff; stroke-width: 0px;"/>
                  <circle cx="243.9449" cy="970.6168" r="7.0056" style="fill: #fff; stroke-width: 0px;"/>
                  <circle cx="278.5616" cy="970.6168" r="7.0056" style="fill: #fff; stroke-width: 0px;"/>
                  <circle cx="313.1784" cy="970.6168" r="7.0056" style="fill: #fff; stroke-width: 0px;"/>
                  <circle cx="347.7951" cy="970.6168" r="7.0056" style="fill: #fff; stroke-width: 0px;"/>
                  <circle cx="382.4119" cy="970.6168" r="7.0056" style="fill: #fff; stroke-width: 0px;"/>
                </g>
                <g>
                  <circle cx="435.4077" cy="795.607" r="7.0056" style="fill: #fff; stroke-width: 0px;"/>
                  <circle cx="470.0245" cy="795.607" r="7.0056" style="fill: #fff; stroke-width: 0px;"/>
                  <circle cx="504.6412" cy="795.607" r="7.0056" style="fill: #fff; stroke-width: 0px;"/>
                  <circle cx="539.2579" cy="795.607" r="7.0056" style="fill: #fff; stroke-width: 0px;"/>
                  <circle cx="573.8747" cy="795.607" r="7.0056" style="fill: #fff; stroke-width: 0px;"/>
                  <circle cx="608.4914" cy="795.607" r="7.0056" style="fill: #fff; stroke-width: 0px;"/>
                  <circle cx="418.0993" cy="818.9089" r="7.0056" style="fill: #fff; stroke-width: 0px;"/>
                  <circle cx="452.7161" cy="818.9089" r="7.0056" style="fill: #fff; stroke-width: 0px;"/>
                  <circle cx="487.3328" cy="818.9089" r="7.0056" style="fill: #fff; stroke-width: 0px;"/>
                  <circle cx="521.9496" cy="818.9089" r="7.0056" style="fill: #fff; stroke-width: 0px;"/>
                  <circle cx="556.5663" cy="818.9089" r="7.0056" style="fill: #fff; stroke-width: 0px;"/>
                  <circle cx="591.1831" cy="818.9089" r="7.0056" style="fill: #fff; stroke-width: 0px;"/>
                  <circle cx="435.4077" cy="846.1763" r="7.0056" style="fill: #fff; stroke-width: 0px;"/>
                  <circle cx="470.0245" cy="846.1763" r="7.0056" style="fill: #fff; stroke-width: 0px;"/>
                  <circle cx="504.6412" cy="846.1763" r="7.0056" style="fill: #fff; stroke-width: 0px;"/>
                  <circle cx="539.2579" cy="846.1763" r="7.0056" style="fill: #fff; stroke-width: 0px;"/>
                  <circle cx="573.8747" cy="846.1763" r="7.0056" style="fill: #fff; stroke-width: 0px;"/>
                  <circle cx="608.4914" cy="846.1763" r="7.0056" style="fill: #fff; stroke-width: 0px;"/>
                  <circle cx="418.0993" cy="869.4782" r="7.0056" style="fill: #fff; stroke-width: 0px;"/>
                  <circle cx="452.7161" cy="869.4782" r="7.0056" style="fill: #fff; stroke-width: 0px;"/>
                  <circle cx="487.3328" cy="869.4782" r="7.0056" style="fill: #fff; stroke-width: 0px;"/>
                  <circle cx="521.9496" cy="869.4782" r="7.0056" style="fill: #fff; stroke-width: 0px;"/>
                  <circle cx="556.5663" cy="869.4782" r="7.0056" style="fill: #fff; stroke-width: 0px;"/>
                  <circle cx="591.1831" cy="869.4782" r="7.0056" style="fill: #fff; stroke-width: 0px;"/>
                  <circle cx="435.4077" cy="896.7456" r="7.0056" style="fill: #fff; stroke-width: 0px;"/>
                  <circle cx="470.0245" cy="896.7456" r="7.0056" style="fill: #fff; stroke-width: 0px;"/>
                  <circle cx="504.6412" cy="896.7456" r="7.0056" style="fill: #fff; stroke-width: 0px;"/>
                  <circle cx="539.2579" cy="896.7456" r="7.0056" style="fill: #fff; stroke-width: 0px;"/>
                  <circle cx="573.8747" cy="896.7456" r="7.0056" style="fill: #fff; stroke-width: 0px;"/>
                  <circle cx="608.4914" cy="896.7456" r="7.0056" style="fill: #fff; stroke-width: 0px;"/>
                  <circle cx="418.0993" cy="920.0475" r="7.0056" style="fill: #fff; stroke-width: 0px;"/>
                  <circle cx="452.7161" cy="920.0475" r="7.0056" style="fill: #fff; stroke-width: 0px;"/>
                  <circle cx="487.3328" cy="920.0475" r="7.0056" style="fill: #fff; stroke-width: 0px;"/>
                  <circle cx="521.9496" cy="920.0475" r="7.0056" style="fill: #fff; stroke-width: 0px;"/>
                  <circle cx="556.5663" cy="920.0475" r="7.0056" style="fill: #fff; stroke-width: 0px;"/>
                  <circle cx="591.1831" cy="920.0475" r="7.0056" style="fill: #fff; stroke-width: 0px;"/>
                  <circle cx="435.4077" cy="947.3149" r="7.0056" style="fill: #fff; stroke-width: 0px;"/>
                  <circle cx="470.0245" cy="947.3149" r="7.0056" style="fill: #fff; stroke-width: 0px;"/>
                  <circle cx="504.6412" cy="947.3149" r="7.0056" style="fill: #fff; stroke-width: 0px;"/>
                  <circle cx="539.2579" cy="947.3149" r="7.0056" style="fill: #fff; stroke-width: 0px;"/>
                  <circle cx="573.8747" cy="947.3149" r="7.0056" style="fill: #fff; stroke-width: 0px;"/>
                  <circle cx="608.4914" cy="947.3149" r="7.0056" style="fill: #fff; stroke-width: 0px;"/>
                  <circle cx="418.0993" cy="970.6168" r="7.0056" style="fill: #fff; stroke-width: 0px;"/>
                  <circle cx="452.7161" cy="970.6168" r="7.0056" style="fill: #fff; stroke-width: 0px;"/>
                  <circle cx="487.3328" cy="970.6168" r="7.0056" style="fill: #fff; stroke-width: 0px;"/>
                  <circle cx="521.9496" cy="970.6168" r="7.0056" style="fill: #fff; stroke-width: 0px;"/>
                  <circle cx="556.5663" cy="970.6168" r="7.0056" style="fill: #fff; stroke-width: 0px;"/>
                  <circle cx="591.1831" cy="970.6168" r="7.0056" style="fill: #fff; stroke-width: 0px;"/>
                </g>
              </g>
            </g>
          </g>
          <circle cx="716.0896" cy="897.8756" r="75.7442" style="fill: #d9fff9; stroke-width: 0px;"/>
        </g>
      </g>
    </g>
  </g>
</svg>