<?xml version="1.0" encoding="utf-8"?>
<!-- Generator: Adobe Illustrator 28.3.0, SVG Export Plug-In . SVG Version: 6.00 Build 0)  -->
<svg version="1.1" id="_圖層_2" xmlns="http://www.w3.org/2000/svg" xmlns:xlink="http://www.w3.org/1999/xlink" x="0px" y="0px"
	 viewBox="0 0 1416.3 1426.1" style="enable-background:new 0 0 1416.3 1426.1;" xml:space="preserve">
<style type="text/css">
	.st0{fill:#11D0B4;}
	.st1{fill:#8DFFF6;}
</style>
<g id="_圖層_1-2">
	<g>
		<polygon class="st0" points="146.8,1398.3 0,1246.1 1246.1,0 1392.9,152.2 		"/>
		<polygon class="st1" points="170.4,1426.1 125.6,1375.9 1371.5,130 1416.3,180.2 		"/>
		<g>
			<path class="st1" d="M422.5,1001.2l-38.8-38.8l27.7-27.7l5.5,5.5l-16.6,16.6l11.1,11.1l16.6-16.6l5.5,5.5L417,973.5l11.1,11.1
				l16.6-16.6l5.5,5.5L422.5,1001.2L422.5,1001.2z M428.1,951.3L417,940.3l5.5-5.5l11.1,11.1L428.1,951.3z M444.7,968l-11.1-11.1
				l5.5-5.5l11.1,11.1L444.7,968z"/>
			<path class="st1" d="M461.3,962.4l-33.2-33.2l5.5-5.5l-5.5-5.5l22.2-22.2l5.5,5.5l-16.6,16.6l11.1,11.1l16.6-16.6l-11.1-11.1
				l5.5-5.5l33.2,33.2l-5.5,5.5l-16.6-16.6l-16.6,16.6l16.6,16.6L461.3,962.4L461.3,962.4z"/>
			<path class="st1" d="M500.1,923.6l-38.8-38.8l11.1-11.1l16.6,16.6l16.6-16.6L489,857.2l5.5-5.5l38.8,38.8l-5.5,5.5l-16.6-16.6
				l-16.6,16.6l16.6,16.6L500.1,923.6z"/>
			<path class="st1" d="M538.9,884.9l-33.2-33.2l5.5-5.5l-5.5-5.5l22.2-22.2l5.5,5.5l-16.6,16.6l11.1,11.1l16.6-16.6l-11.1-11.1
				l5.5-5.5l33.2,33.2l-5.5,5.5L550,840.5l-16.6,16.6l16.6,16.6L538.9,884.9L538.9,884.9z"/>
			<path class="st1" d="M577.7,846.1l-38.8-38.8l11.1-11.1l5.5,5.5l5.5-5.5l5.5,5.5l-5.5,5.5l27.7,27.7L577.7,846.1L577.7,846.1z
				 M605.4,818.4l-27.7-27.7l-5.5,5.5l-5.5-5.5l5.5-5.5l-5.5-5.5l5.5-5.5l38.8,38.8L605.4,818.4L605.4,818.4z M572.1,807.3l-5.5-5.5
				l5.5-5.5l5.5,5.5L572.1,807.3z"/>
			<path class="st1" d="M622,801.8l-5.5-5.5l-5.5,5.5l-33.2-33.2l11.1-11.1l33.2,33.2l16.6-16.6l5.5,5.5L622,801.8L622,801.8z
				 M638.6,774.1l-33.2-33.2l5.5-5.5l33.2,33.2L638.6,774.1z"/>
			<path class="st1" d="M666.3,757.5l-33.2-33.2L622,735.3l-5.5-5.5l33.2-33.2l5.5,5.5l-11.1,11.1l33.2,33.2L666.3,757.5
				L666.3,757.5z"/>
		</g>
		<g>
			<path class="st1" d="M110.6,1309.7l-38.8-38.8l27.7-27.7l5.5,5.5l-16.6,16.6l11.1,11.1l16.6-16.6l5.5,5.5l-16.6,16.6l11.1,11.1
				l16.6-16.6l5.5,5.5L110.6,1309.7L110.6,1309.7z M116.1,1259.8l-11.1-11.1l5.5-5.5l11.1,11.1L116.1,1259.8z M132.8,1276.5
				l-11.1-11.1l5.5-5.5l11.1,11.1L132.8,1276.5z"/>
			<path class="st1" d="M149.4,1270.9l-33.2-33.2l5.5-5.5l-5.5-5.5l22.2-22.2l5.5,5.5l-16.6,16.6l11.1,11.1l16.6-16.6l-11.1-11.1
				l5.5-5.5l33.2,33.2l-5.5,5.5l-16.6-16.6l-16.6,16.6l16.6,16.6L149.4,1270.9L149.4,1270.9z"/>
			<path class="st1" d="M188.2,1232.1l-38.8-38.8l11.1-11.1l16.6,16.6l16.6-16.6l-16.6-16.6l5.5-5.5l38.8,38.8l-5.5,5.5l-16.6-16.6
				l-16.6,16.6l16.6,16.6L188.2,1232.1z"/>
			<path class="st1" d="M226.9,1193.4l-33.2-33.2l5.5-5.5l-5.5-5.5l22.2-22.2l5.5,5.5l-16.6,16.6l11.1,11.1l16.6-16.6l-11.1-11.1
				l5.5-5.5l33.2,33.2l-5.5,5.5L238,1149l-16.6,16.6l16.6,16.6L226.9,1193.4L226.9,1193.4z"/>
			<path class="st1" d="M265.7,1154.6l-38.8-38.8l11.1-11.1l5.5,5.5l5.5-5.5l5.5,5.5l-5.5,5.5l27.7,27.7L265.7,1154.6L265.7,1154.6z
				 M293.4,1126.9l-27.7-27.7l-5.5,5.5l-5.5-5.5l5.5-5.5l-5.5-5.5l5.5-5.5l38.8,38.8L293.4,1126.9L293.4,1126.9z M260.2,1115.8
				l-5.5-5.5l5.5-5.5l5.5,5.5L260.2,1115.8z"/>
			<path class="st1" d="M310,1110.3l-5.5-5.5l-5.5,5.5l-33.2-33.2l11.1-11.1l33.2,33.2l16.6-16.6l5.5,5.5L310,1110.3L310,1110.3z
				 M326.7,1082.6l-33.2-33.2l5.5-5.5l33.2,33.2L326.7,1082.6z"/>
			<path class="st1" d="M354.4,1065.9l-33.2-33.2l-11.1,11.1l-5.5-5.5l33.2-33.2l5.5,5.5l-11.1,11.1l33.2,33.2L354.4,1065.9
				L354.4,1065.9z"/>
		</g>
		<g>
			<path class="st1" d="M727.5,689.7l-38.8-38.8l27.7-27.7l5.5,5.5l-16.6,16.6l11.1,11.1l16.6-16.6l5.5,5.5L722,662l11.1,11.1
				l16.6-16.6l5.5,5.5L727.5,689.7L727.5,689.7z M733,639.8L722,628.7l5.5-5.5l11.1,11.1L733,639.8z M749.7,656.4l-11.1-11.1
				l5.5-5.5l11.1,11.1L749.7,656.4z"/>
			<path class="st1" d="M766.3,650.9L733,617.7l5.5-5.5l-5.5-5.5l22.2-22.2l5.5,5.5l-16.6,16.6l11.1,11.1l16.6-16.6L760.7,590
				l5.5-5.5l33.2,33.2l-5.5,5.5l-16.6-16.6l-16.6,16.6l16.6,16.6L766.3,650.9L766.3,650.9z"/>
			<path class="st1" d="M805.1,612.1l-38.8-38.8l11.1-11.1l16.6,16.6l16.6-16.6L794,545.6l5.5-5.5l38.8,38.8l-5.5,5.5l-16.6-16.6
				l-16.6,16.6l16.6,16.6L805.1,612.1L805.1,612.1z"/>
			<path class="st1" d="M843.8,573.3l-33.2-33.2l5.5-5.5l-5.5-5.5l22.2-22.2l5.5,5.5L821.7,529l11.1,11.1l16.6-16.6l-11.1-11.1
				l5.5-5.5l33.2,33.2l-5.5,5.5L854.9,529l-16.6,16.6l16.6,16.6L843.8,573.3L843.8,573.3z"/>
			<path class="st1" d="M882.6,534.6l-38.8-38.8l11.1-11.1l5.5,5.5l5.5-5.5l5.5,5.5l-5.5,5.5l27.7,27.7L882.6,534.6L882.6,534.6z
				 M910.3,506.9l-27.7-27.7l-5.5,5.5l-5.5-5.5l5.5-5.5l-5.5-5.5l5.5-5.5l38.8,38.8L910.3,506.9L910.3,506.9z M877.1,495.8l-5.5-5.5
				l5.5-5.5l5.5,5.5L877.1,495.8z"/>
			<path class="st1" d="M926.9,490.3l-5.5-5.5l-5.5,5.5L882.6,457l11.1-11.1l33.2,33.2l16.6-16.6l5.5,5.5L926.9,490.3L926.9,490.3z
				 M943.6,462.6l-33.2-33.2l5.5-5.5l33.2,33.2L943.6,462.6z"/>
			<path class="st1" d="M987.9,429.3l-33.2-33.2l-11.1,11.1l-5.5-5.5l33.2-33.2l5.5,5.5L965.7,385l33.2,33.2L987.9,429.3
				L987.9,429.3z"/>
		</g>
		<g>
			<path class="st1" d="M1040.1,376.2l-38.8-38.8l27.7-27.7l5.5,5.5l-16.6,16.6L1029,343l16.6-16.6l5.5,5.5l-16.6,16.6l11.1,11.1
				l16.6-16.6l5.5,5.5L1040.1,376.2L1040.1,376.2z M1045.7,326.4l-11.1-11.1l5.5-5.5l11.1,11.1L1045.7,326.4z M1062.3,343
				l-11.1-11.1l5.5-5.5l11.1,11.1L1062.3,343z"/>
			<path class="st1" d="M1078.9,337.4l-33.2-33.2l5.5-5.5l-5.5-5.5l22.2-22.2l5.5,5.5l-16.6,16.6l11.1,11.1l16.6-16.6l-11.1-11.1
				l5.5-5.5l33.2,33.2l-5.5,5.5l-16.6-16.6l-16.6,16.6l16.6,16.6L1078.9,337.4L1078.9,337.4z"/>
			<path class="st1" d="M1117.7,298.7l-38.8-38.8l11.1-11.1l16.6,16.6l16.6-16.6l-16.6-16.6l5.5-5.5l38.8,38.8l-5.5,5.5l-16.6-16.6
				l-16.6,16.6l16.6,16.6L1117.7,298.7L1117.7,298.7z"/>
			<path class="st1" d="M1156.4,259.9l-33.2-33.2l5.5-5.5l-5.5-5.5l22.2-22.2l5.5,5.5l-16.6,16.6l11.1,11.1L1162,210l-11.1-11.1
				l5.5-5.5l33.2,33.2l-5.5,5.5l-16.6-16.6l-16.6,16.6l16.6,16.6L1156.4,259.9L1156.4,259.9z"/>
			<path class="st1" d="M1195.2,221.1l-38.8-38.8l11.1-11.1l5.5,5.5l5.5-5.5l5.5,5.5l-5.5,5.5l27.7,27.7L1195.2,221.1L1195.2,221.1z
				 M1222.9,193.4l-27.7-27.7l-5.5,5.5l-5.5-5.5l5.5-5.5l-5.5-5.5l5.5-5.5l38.8,38.8L1222.9,193.4L1222.9,193.4z M1189.7,182.3
				l-5.5-5.5l5.5-5.5l5.5,5.5L1189.7,182.3z"/>
			<path class="st1" d="M1239.5,176.8l-5.5-5.5l-5.5,5.5l-33.2-33.2l11.1-11.1l33.2,33.2l16.6-16.6l5.5,5.5L1239.5,176.8
				L1239.5,176.8z M1256.2,149.1l-33.2-33.2l5.5-5.5l33.2,33.2L1256.2,149.1z"/>
			<path class="st1" d="M1300.5,115.8l-33.2-33.2l-11.1,11.1l-5.5-5.5l33.2-33.2l5.5,5.5l-11.1,11.1l33.2,33.2L1300.5,115.8
				L1300.5,115.8z"/>
		</g>
	</g>
</g>
</svg>
