<?xml version="1.0" encoding="UTF-8"?>
<svg id="_圖層_2" data-name="圖層 2" xmlns="http://www.w3.org/2000/svg" viewBox="0 0 1416.3169 1426.1013">
  <g id="_圖層_1-2" data-name="圖層 1">
    <g>
      <polygon points="146.8351 1398.3061 0 1246.0654 1246.0653 0 1392.9004 152.2407 146.8351 1398.3061" style="fill: #11d0b4; stroke-width: 0px;"/>
      <polygon points="170.4344 1426.1013 125.6432 1375.9054 1371.5258 130.0225 1416.3169 180.2184 170.4344 1426.1013" style="fill: #8dfff6; stroke-width: 0px;"/>
      <g>
        <path d="M369.5367,1044.1485l-38.7785-38.7785,27.7004-27.7002,5.5353,5.5353-16.6218,16.6216,11.0865,11.0865,16.6218-16.6216,5.5353,5.5353-16.6218,16.6216,11.0865,11.0865,16.6218-16.6218,5.5345,5.5353-27.7,27.7ZM375.0804,994.2916l-11.0865-11.0865,5.5429-5.5431,11.0865,11.0865-5.5429,5.5431ZM391.7022,1010.9133l-11.0865-11.0863,5.5429-5.5431,11.0865,11.0865-5.5429,5.5429Z" style="fill: #8dfff6; stroke-width: 0px;"/>
        <path d="M408.3152,1005.37l-33.2432-33.2432,5.5353-5.5353-5.5353-5.5353,22.1647-22.1649,5.5353,5.5353-16.6214,16.6216,11.0865,11.0865,16.6214-16.6216-11.0865-11.0865,5.5433-5.5433,33.2436,33.2432-5.5433,5.5433-16.6218-16.6214-16.6214,16.6216,16.6214,16.6214-11.0785,11.0785Z" style="fill: #8dfff6; stroke-width: 0px;"/>
        <path d="M447.0937,966.5915l-38.7785-38.7785,11.0785-11.0785,16.6218,16.6218,16.6218-16.6218-16.6218-16.6218,5.5433-5.5431,38.7781,38.7785-5.5429,5.5431-16.6214-16.6214-16.6218,16.6218,16.6214,16.6214-11.0785,11.0785Z" style="fill: #8dfff6; stroke-width: 0px;"/>
        <path d="M485.8722,927.8128l-33.2428-33.2432,5.5349-5.5351-5.5353-5.5353,22.1651-22.1651,5.5353,5.5353-16.6218,16.6218,11.0865,11.0865,16.6218-16.6218-11.0865-11.0865,5.5433-5.5433,33.2432,33.2432-5.5433,5.5433-16.6214-16.6214-16.6218,16.6218,16.6214,16.6214-11.0785,11.0783Z" style="fill: #8dfff6; stroke-width: 0px;"/>
        <path d="M524.6511,889.0343l-38.7789-38.7785,11.0785-11.0785,5.5353,5.5353,5.5433-5.5431,5.5433,5.5433-5.5433,5.5431,27.7004,27.7-11.0785,11.0785ZM552.3511,861.3341l-27.7-27.7-5.5433,5.5433-5.5433-5.5433,5.5433-5.5433-5.5353-5.5353,5.5433-5.5433,38.7785,38.7785-5.5433,5.5433ZM519.1159,850.2559l-5.5433-5.5433,5.5353-5.5353,5.5433,5.5433-5.5353,5.5353Z" style="fill: #8dfff6; stroke-width: 0px;"/>
        <path d="M568.9645,844.7205l-5.5345-5.5349-5.5353,5.5351-33.2436-33.2436,11.0785-11.0783,33.2436,33.2436,16.6214-16.6216,5.5349,5.5349-22.1651,22.1649ZM585.5947,817.0207l-33.2436-33.2436,5.5433-5.5433,33.2436,33.2436-5.5433,5.5433Z" style="fill: #8dfff6; stroke-width: 0px;"/>
        <path d="M613.2867,800.3985l-33.2432-33.2432-11.0785,11.0785-5.5353-5.5353,33.2432-33.2434,5.5353,5.5353-11.0865,11.0865,33.2436,33.2432-11.0785,11.0783Z" style="fill: #8dfff6; stroke-width: 0px;"/>
      </g>
      <g>
        <path d="M653.0296,760.6556l-38.7785-38.7785,27.7004-27.7004,5.5353,5.5353-16.6218,16.6218,11.0865,11.0865,16.6218-16.6218,5.5353,5.5353-16.6218,16.6218,11.0865,11.0865,16.6218-16.6218,5.5349,5.5349-27.7004,27.7004ZM658.5733,710.7985l-11.0865-11.0865,5.5433-5.5433,11.0865,11.0865-5.5433,5.5433ZM675.1951,727.4203l-11.0865-11.0865,5.5433-5.5433,11.0865,11.0865-5.5433,5.5433Z" style="fill: #8dfff6; stroke-width: 0px;"/>
        <path d="M691.8081,721.8769l-33.2428-33.2432,5.5349-5.5351-5.5353-5.5353,22.1651-22.1651,5.5353,5.5353-16.6218,16.6218,11.0865,11.0865,16.6218-16.6218-11.0865-11.0865,5.5433-5.5433,33.2432,33.2432-5.5433,5.5433-16.6214-16.6214-16.6218,16.6218,16.6214,16.6214-11.0785,11.0783Z" style="fill: #8dfff6; stroke-width: 0px;"/>
        <path d="M730.587,683.0982l-38.7785-38.7785,11.0781-11.0783,16.6218,16.6218,16.6218-16.6216-16.6218-16.6218,5.5433-5.5433,38.7785,38.7785-5.5433,5.5433-16.6214-16.6214-16.6218,16.6216,16.6218,16.6214-11.0785,11.0783Z" style="fill: #8dfff6; stroke-width: 0px;"/>
        <path d="M769.3655,644.3197l-33.2432-33.2432,5.5353-5.5353-5.5353-5.5353,22.1651-22.1649,5.5353,5.5353-16.6218,16.6216,11.0865,11.0865,16.6218-16.6216-11.0865-11.0865,5.5433-5.5433,33.2428,33.2432-5.5433,5.5433-16.621-16.6214-16.6218,16.6216,16.6214,16.6214-11.0785,11.0785Z" style="fill: #8dfff6; stroke-width: 0px;"/>
        <path d="M808.144,605.5411l-38.7785-38.7785,11.0785-11.0785,5.5353,5.5353,5.5433-5.5433,5.5433,5.5433-5.5433,5.5433,27.7,27.7-11.0785,11.0785ZM835.8444,577.8408l-27.7-27.7-5.5433,5.5433-5.5433-5.5433,5.5433-5.5433-5.5353-5.5353,5.5429-5.5431,38.7789,38.7785-5.5433,5.5431ZM802.6092,566.7626l-5.5433-5.5433,5.5353-5.5353,5.5433,5.5433-5.5353,5.5353Z" style="fill: #8dfff6; stroke-width: 0px;"/>
        <path d="M852.4578,561.2274l-5.5349-5.5349-5.5353,5.5353-33.2436-33.2436,11.0785-11.0785,33.2436,33.2436,16.6218-16.6216,5.5345,5.5349-22.1647,22.1649ZM869.088,533.5276l-33.2436-33.2436,5.5433-5.5433,33.2436,33.2436-5.5433,5.5433Z" style="fill: #8dfff6; stroke-width: 0px;"/>
        <path d="M913.4014,500.2838l-33.2432-33.2432-11.0785,11.0785-5.5353-5.5353,33.2432-33.2434,5.5353,5.5353-11.0865,11.0865,33.2436,33.2432-11.0785,11.0783Z" style="fill: #8dfff6; stroke-width: 0px;"/>
      </g>
    </g>
  </g>
</svg>