<?xml version="1.0" encoding="UTF-8"?>
<svg id="_圖層_2" data-name="圖層 2" xmlns="http://www.w3.org/2000/svg" xmlns:xlink="http://www.w3.org/1999/xlink" viewBox="0 0 970 812">
  <defs>
    <clipPath id="clippath">
      <rect y="561" width="746" height="251" style="fill: none; stroke-width: 0px;"/>
    </clipPath>
  </defs>
  <g id="_圖層_3" data-name="圖層 3">
    <g>
      <circle cx="665" cy="113" r="113" style="fill: #8cfff6; stroke-width: 0px;"/>
      <circle cx="488" cy="488" r="174" style="fill: #ffeb15; stroke-width: 0px;"/>
      <circle cx="241" cy="271" r="46" style="fill: #f9659f; stroke-width: 0px;"/>
      <g style="clip-path: url(#clippath);">
        <g>
          <g>
            <circle cx="4.5147" cy="576.6079" r="8.5553" style="fill: #fff; stroke-width: 0px;"/>
            <circle cx="46.7893" cy="576.6079" r="8.5553" style="fill: #fff; stroke-width: 0px;"/>
            <circle cx="89.0638" cy="576.6079" r="8.5553" style="fill: #fff; stroke-width: 0px;"/>
            <circle cx="131.3383" cy="576.6079" r="8.5553" style="fill: #fff; stroke-width: 0px;"/>
            <circle cx="173.6128" cy="576.6079" r="8.5553" style="fill: #fff; stroke-width: 0px;"/>
            <circle cx="215.8873" cy="576.6079" r="8.5553" style="fill: #fff; stroke-width: 0px;"/>
            <circle cx="25.652" cy="605.0646" r="8.5553" style="fill: #fff; stroke-width: 0px;"/>
            <circle cx="67.9265" cy="605.0646" r="8.5553" style="fill: #fff; stroke-width: 0px;"/>
            <circle cx="110.201" cy="605.0646" r="8.5553" style="fill: #fff; stroke-width: 0px;"/>
            <circle cx="152.4756" cy="605.0646" r="8.5553" style="fill: #fff; stroke-width: 0px;"/>
            <circle cx="194.7501" cy="605.0646" r="8.5553" style="fill: #fff; stroke-width: 0px;"/>
            <circle cx="4.5147" cy="638.364" r="8.5553" style="fill: #fff; stroke-width: 0px;"/>
            <circle cx="46.7893" cy="638.364" r="8.5553" style="fill: #fff; stroke-width: 0px;"/>
            <circle cx="89.0638" cy="638.364" r="8.5553" style="fill: #fff; stroke-width: 0px;"/>
            <circle cx="131.3383" cy="638.364" r="8.5553" style="fill: #fff; stroke-width: 0px;"/>
            <circle cx="173.6128" cy="638.364" r="8.5553" style="fill: #fff; stroke-width: 0px;"/>
            <circle cx="215.8873" cy="638.364" r="8.5553" style="fill: #fff; stroke-width: 0px;"/>
            <circle cx="25.652" cy="666.8206" r="8.5553" style="fill: #fff; stroke-width: 0px;"/>
            <circle cx="67.9265" cy="666.8206" r="8.5553" style="fill: #fff; stroke-width: 0px;"/>
            <circle cx="110.201" cy="666.8206" r="8.5553" style="fill: #fff; stroke-width: 0px;"/>
            <circle cx="152.4756" cy="666.8206" r="8.5553" style="fill: #fff; stroke-width: 0px;"/>
            <circle cx="194.7501" cy="666.8206" r="8.5553" style="fill: #fff; stroke-width: 0px;"/>
            <circle cx="4.5147" cy="700.12" r="8.5553" style="fill: #fff; stroke-width: 0px;"/>
            <circle cx="46.7893" cy="700.12" r="8.5553" style="fill: #fff; stroke-width: 0px;"/>
            <circle cx="89.0638" cy="700.12" r="8.5553" style="fill: #fff; stroke-width: 0px;"/>
            <circle cx="131.3383" cy="700.12" r="8.5553" style="fill: #fff; stroke-width: 0px;"/>
            <circle cx="173.6128" cy="700.12" r="8.5553" style="fill: #fff; stroke-width: 0px;"/>
            <circle cx="215.8873" cy="700.12" r="8.5553" style="fill: #fff; stroke-width: 0px;"/>
            <circle cx="25.652" cy="728.5767" r="8.5553" style="fill: #fff; stroke-width: 0px;"/>
            <circle cx="67.9265" cy="728.5767" r="8.5553" style="fill: #fff; stroke-width: 0px;"/>
            <circle cx="110.201" cy="728.5767" r="8.5553" style="fill: #fff; stroke-width: 0px;"/>
            <circle cx="152.4756" cy="728.5767" r="8.5553" style="fill: #fff; stroke-width: 0px;"/>
            <circle cx="194.7501" cy="728.5767" r="8.5553" style="fill: #fff; stroke-width: 0px;"/>
            <circle cx="4.5147" cy="761.876" r="8.5553" style="fill: #fff; stroke-width: 0px;"/>
            <circle cx="46.7893" cy="761.876" r="8.5553" style="fill: #fff; stroke-width: 0px;"/>
            <circle cx="89.0638" cy="761.876" r="8.5553" style="fill: #fff; stroke-width: 0px;"/>
            <circle cx="131.3383" cy="761.876" r="8.5553" style="fill: #fff; stroke-width: 0px;"/>
            <circle cx="173.6128" cy="761.876" r="8.5553" style="fill: #fff; stroke-width: 0px;"/>
            <circle cx="215.8873" cy="761.876" r="8.5553" style="fill: #fff; stroke-width: 0px;"/>
            <circle cx="25.652" cy="790.3327" r="8.5553" style="fill: #fff; stroke-width: 0px;"/>
            <circle cx="67.9265" cy="790.3327" r="8.5553" style="fill: #fff; stroke-width: 0px;"/>
            <circle cx="110.201" cy="790.3327" r="8.5553" style="fill: #fff; stroke-width: 0px;"/>
            <circle cx="152.4756" cy="790.3327" r="8.5553" style="fill: #fff; stroke-width: 0px;"/>
            <circle cx="194.7501" cy="790.3327" r="8.5553" style="fill: #fff; stroke-width: 0px;"/>
          </g>
          <g>
            <g>
              <circle cx="265.1176" cy="576.6079" r="8.5553" style="fill: #fff; stroke-width: 0px;"/>
              <circle cx="307.3921" cy="576.6079" r="8.5553" style="fill: #fff; stroke-width: 0px;"/>
              <circle cx="349.6666" cy="576.6079" r="8.5553" style="fill: #fff; stroke-width: 0px;"/>
              <circle cx="391.9411" cy="576.6079" r="8.5553" style="fill: #fff; stroke-width: 0px;"/>
              <circle cx="434.2156" cy="576.6079" r="8.5553" style="fill: #fff; stroke-width: 0px;"/>
              <circle cx="476.4901" cy="576.6079" r="8.5553" style="fill: #fff; stroke-width: 0px;"/>
              <circle cx="243.9803" cy="605.0646" r="8.5553" style="fill: #fff; stroke-width: 0px;"/>
              <circle cx="286.2548" cy="605.0646" r="8.5553" style="fill: #fff; stroke-width: 0px;"/>
              <circle cx="328.5293" cy="605.0646" r="8.5553" style="fill: #fff; stroke-width: 0px;"/>
              <circle cx="370.8038" cy="605.0646" r="8.5553" style="fill: #fff; stroke-width: 0px;"/>
              <circle cx="413.0784" cy="605.0646" r="8.5553" style="fill: #fff; stroke-width: 0px;"/>
              <circle cx="455.3529" cy="605.0646" r="8.5553" style="fill: #fff; stroke-width: 0px;"/>
              <circle cx="265.1176" cy="638.364" r="8.5553" style="fill: #fff; stroke-width: 0px;"/>
              <circle cx="307.3921" cy="638.364" r="8.5553" style="fill: #fff; stroke-width: 0px;"/>
              <circle cx="349.6666" cy="638.364" r="8.5553" style="fill: #fff; stroke-width: 0px;"/>
              <circle cx="391.9411" cy="638.364" r="8.5553" style="fill: #fff; stroke-width: 0px;"/>
              <circle cx="434.2156" cy="638.364" r="8.5553" style="fill: #fff; stroke-width: 0px;"/>
              <circle cx="476.4901" cy="638.364" r="8.5553" style="fill: #fff; stroke-width: 0px;"/>
              <circle cx="243.9803" cy="666.8206" r="8.5553" style="fill: #fff; stroke-width: 0px;"/>
              <circle cx="286.2548" cy="666.8206" r="8.5553" style="fill: #fff; stroke-width: 0px;"/>
              <circle cx="328.5293" cy="666.8206" r="8.5553" style="fill: #fff; stroke-width: 0px;"/>
              <circle cx="370.8038" cy="666.8206" r="8.5553" style="fill: #fff; stroke-width: 0px;"/>
              <circle cx="413.0784" cy="666.8206" r="8.5553" style="fill: #fff; stroke-width: 0px;"/>
              <circle cx="455.3529" cy="666.8206" r="8.5553" style="fill: #fff; stroke-width: 0px;"/>
              <circle cx="265.1176" cy="700.12" r="8.5553" style="fill: #fff; stroke-width: 0px;"/>
              <circle cx="307.3921" cy="700.12" r="8.5553" style="fill: #fff; stroke-width: 0px;"/>
              <circle cx="349.6666" cy="700.12" r="8.5553" style="fill: #fff; stroke-width: 0px;"/>
              <circle cx="391.9411" cy="700.12" r="8.5553" style="fill: #fff; stroke-width: 0px;"/>
              <circle cx="434.2156" cy="700.12" r="8.5553" style="fill: #fff; stroke-width: 0px;"/>
              <circle cx="476.4901" cy="700.12" r="8.5553" style="fill: #fff; stroke-width: 0px;"/>
              <circle cx="243.9803" cy="728.5767" r="8.5553" style="fill: #fff; stroke-width: 0px;"/>
              <circle cx="286.2548" cy="728.5767" r="8.5553" style="fill: #fff; stroke-width: 0px;"/>
              <circle cx="328.5293" cy="728.5767" r="8.5553" style="fill: #fff; stroke-width: 0px;"/>
              <circle cx="370.8038" cy="728.5767" r="8.5553" style="fill: #fff; stroke-width: 0px;"/>
              <circle cx="413.0784" cy="728.5767" r="8.5553" style="fill: #fff; stroke-width: 0px;"/>
              <circle cx="455.3529" cy="728.5767" r="8.5553" style="fill: #fff; stroke-width: 0px;"/>
              <circle cx="265.1176" cy="761.876" r="8.5553" style="fill: #fff; stroke-width: 0px;"/>
              <circle cx="307.3921" cy="761.876" r="8.5553" style="fill: #fff; stroke-width: 0px;"/>
              <circle cx="349.6666" cy="761.876" r="8.5553" style="fill: #fff; stroke-width: 0px;"/>
              <circle cx="391.9411" cy="761.876" r="8.5553" style="fill: #fff; stroke-width: 0px;"/>
              <circle cx="434.2156" cy="761.876" r="8.5553" style="fill: #fff; stroke-width: 0px;"/>
              <circle cx="476.4901" cy="761.876" r="8.5553" style="fill: #fff; stroke-width: 0px;"/>
              <circle cx="243.9803" cy="790.3327" r="8.5553" style="fill: #fff; stroke-width: 0px;"/>
              <circle cx="286.2548" cy="790.3327" r="8.5553" style="fill: #fff; stroke-width: 0px;"/>
              <circle cx="328.5293" cy="790.3327" r="8.5553" style="fill: #fff; stroke-width: 0px;"/>
              <circle cx="370.8038" cy="790.3327" r="8.5553" style="fill: #fff; stroke-width: 0px;"/>
              <circle cx="413.0784" cy="790.3327" r="8.5553" style="fill: #fff; stroke-width: 0px;"/>
              <circle cx="455.3529" cy="790.3327" r="8.5553" style="fill: #fff; stroke-width: 0px;"/>
            </g>
            <g>
              <circle cx="520.0723" cy="576.6079" r="8.5553" style="fill: #fff; stroke-width: 0px;"/>
              <circle cx="562.3468" cy="576.6079" r="8.5553" style="fill: #fff; stroke-width: 0px;"/>
              <circle cx="604.6213" cy="576.6079" r="8.5553" style="fill: #fff; stroke-width: 0px;"/>
              <circle cx="646.8958" cy="576.6079" r="8.5553" style="fill: #fff; stroke-width: 0px;"/>
              <circle cx="689.1703" cy="576.6079" r="8.5553" style="fill: #fff; stroke-width: 0px;"/>
              <circle cx="731.4448" cy="576.6079" r="8.5553" style="fill: #fff; stroke-width: 0px;"/>
              <circle cx="498.935" cy="605.0646" r="8.5553" style="fill: #fff; stroke-width: 0px;"/>
              <circle cx="541.2095" cy="605.0646" r="8.5553" style="fill: #fff; stroke-width: 0px;"/>
              <circle cx="583.484" cy="605.0646" r="8.5553" style="fill: #fff; stroke-width: 0px;"/>
              <circle cx="625.7586" cy="605.0646" r="8.5553" style="fill: #fff; stroke-width: 0px;"/>
              <circle cx="668.0331" cy="605.0646" r="8.5553" style="fill: #fff; stroke-width: 0px;"/>
              <circle cx="710.3076" cy="605.0646" r="8.5553" style="fill: #fff; stroke-width: 0px;"/>
              <circle cx="520.0723" cy="638.364" r="8.5553" style="fill: #fff; stroke-width: 0px;"/>
              <circle cx="562.3468" cy="638.364" r="8.5553" style="fill: #fff; stroke-width: 0px;"/>
              <circle cx="604.6213" cy="638.364" r="8.5553" style="fill: #fff; stroke-width: 0px;"/>
              <circle cx="646.8958" cy="638.364" r="8.5553" style="fill: #fff; stroke-width: 0px;"/>
              <circle cx="689.1703" cy="638.364" r="8.5553" style="fill: #fff; stroke-width: 0px;"/>
              <circle cx="731.4448" cy="638.364" r="8.5553" style="fill: #fff; stroke-width: 0px;"/>
              <circle cx="498.935" cy="666.8206" r="8.5553" style="fill: #fff; stroke-width: 0px;"/>
              <circle cx="541.2095" cy="666.8206" r="8.5553" style="fill: #fff; stroke-width: 0px;"/>
              <circle cx="583.484" cy="666.8206" r="8.5553" style="fill: #fff; stroke-width: 0px;"/>
              <circle cx="625.7586" cy="666.8206" r="8.5553" style="fill: #fff; stroke-width: 0px;"/>
              <circle cx="668.0331" cy="666.8206" r="8.5553" style="fill: #fff; stroke-width: 0px;"/>
              <circle cx="710.3076" cy="666.8206" r="8.5553" style="fill: #fff; stroke-width: 0px;"/>
              <circle cx="520.0723" cy="700.12" r="8.5553" style="fill: #fff; stroke-width: 0px;"/>
              <circle cx="562.3468" cy="700.12" r="8.5553" style="fill: #fff; stroke-width: 0px;"/>
              <circle cx="604.6213" cy="700.12" r="8.5553" style="fill: #fff; stroke-width: 0px;"/>
              <circle cx="646.8958" cy="700.12" r="8.5553" style="fill: #fff; stroke-width: 0px;"/>
              <circle cx="689.1703" cy="700.12" r="8.5553" style="fill: #fff; stroke-width: 0px;"/>
              <circle cx="731.4448" cy="700.12" r="8.5553" style="fill: #fff; stroke-width: 0px;"/>
              <circle cx="498.935" cy="728.5767" r="8.5553" style="fill: #fff; stroke-width: 0px;"/>
              <circle cx="541.2095" cy="728.5767" r="8.5553" style="fill: #fff; stroke-width: 0px;"/>
              <circle cx="583.484" cy="728.5767" r="8.5553" style="fill: #fff; stroke-width: 0px;"/>
              <circle cx="625.7586" cy="728.5767" r="8.5553" style="fill: #fff; stroke-width: 0px;"/>
              <circle cx="668.0331" cy="728.5767" r="8.5553" style="fill: #fff; stroke-width: 0px;"/>
              <circle cx="710.3076" cy="728.5767" r="8.5553" style="fill: #fff; stroke-width: 0px;"/>
              <circle cx="520.0723" cy="761.876" r="8.5553" style="fill: #fff; stroke-width: 0px;"/>
              <circle cx="562.3468" cy="761.876" r="8.5553" style="fill: #fff; stroke-width: 0px;"/>
              <circle cx="604.6213" cy="761.876" r="8.5553" style="fill: #fff; stroke-width: 0px;"/>
              <circle cx="646.8958" cy="761.876" r="8.5553" style="fill: #fff; stroke-width: 0px;"/>
              <circle cx="689.1703" cy="761.876" r="8.5553" style="fill: #fff; stroke-width: 0px;"/>
              <circle cx="731.4448" cy="761.876" r="8.5553" style="fill: #fff; stroke-width: 0px;"/>
              <circle cx="498.935" cy="790.3327" r="8.5553" style="fill: #fff; stroke-width: 0px;"/>
              <circle cx="541.2095" cy="790.3327" r="8.5553" style="fill: #fff; stroke-width: 0px;"/>
              <circle cx="583.484" cy="790.3327" r="8.5553" style="fill: #fff; stroke-width: 0px;"/>
              <circle cx="625.7586" cy="790.3327" r="8.5553" style="fill: #fff; stroke-width: 0px;"/>
              <circle cx="668.0331" cy="790.3327" r="8.5553" style="fill: #fff; stroke-width: 0px;"/>
              <circle cx="710.3076" cy="790.3327" r="8.5553" style="fill: #fff; stroke-width: 0px;"/>
            </g>
          </g>
        </g>
      </g>
      <circle cx="877.5" cy="701.5" r="92.5" style="fill: #d9fff9; stroke-width: 0px;"/>
    </g>
  </g>
</svg>