<?xml version="1.0" encoding="UTF-8"?>
<svg id="_圖層_2" data-name="圖層 2" xmlns="http://www.w3.org/2000/svg" xmlns:xlink="http://www.w3.org/1999/xlink" viewBox="0 0 1740.6573 233.3044">
  <defs>
    <clipPath id="clippath">
      <path d="M1740.6573,119.1615V43.3446c0-19.7807-16.0929-35.8736-35.8741-35.8736h-50.4063c-12.0577,0-22.7367,5.9855-29.2442,15.1348-6.2191-9.4368-16.9056-15.6814-29.0281-15.6814h-14.8063c-5.2116-3.1238-11.304-4.9202-17.8097-4.9202h-37.8998c-6.5057,0-12.5981,1.7964-17.8097,4.9202h-12.9885c-4.665-2.332-9.9234-3.6445-15.4842-3.6445h-26.5276c-12.4213,0-24.0002,6.7845-30.1446,17.4735-5.8144-8.1419-15.3335-13.465-26.0787-13.465h-16.7345c-5.3479-4.0041-11.9824-6.3774-19.1615-6.3774h-24.9794c-4.9336,0-9.716,1.1245-14.027,3.2233-2.1137-.4406-4.3045-.6724-6.547-.6724h-79.4032c-9.5303,0-18.0968,4.1881-23.9701,10.8146-4.6313-2.3648-9.8675-3.7082-15.4147-3.7082h-16.8126c-6.0069-5.3265-13.9051-8.5642-22.5454-8.5642h-46.6703c-4.9227,0-9.714,1.0693-14.0767,3.0537-3.4127-1.1528-7.0657-1.778-10.8624-1.778h-32.8239c-11.3401,0-21.9765,5.789-28.2299,15.0542-5.7923-9.1463-15.9948-15.2362-27.5989-15.2362h-36.6251c-7.4606,0-14.3448,2.5155-19.8493,6.7419h-4.9316c-4.3965,0-8.592.8733-12.424,2.4559l-9.5415-6.55c-5.4663-3.7584-11.8635-5.7458-18.498-5.7458h-29.1302c-6.6161,0-12.998,1.9769-18.4597,5.7189l-30.9808,21.2344c-.2444.1674-.4757.3491-.7147.5225-5.8947-7.4074-14.9784-12.1696-25.1588-12.1696h-12.6896c-5.7811-8.5672-15.5782-14.2125-26.6683-14.2125h-49.9015c-3.4655,0-6.8334.5451-10.005,1.5751-2.3658-.5555-4.8152-.8465-7.3054-.8465h-38.9317c-11.5477,0-21.6913,6.1198-27.3608,15.2865-5.9871-7.9786-15.5226-13.0997-25.9997-13.0997h-8.6388c-4.295-2.1003-9.1207-3.28-14.215-3.28h-46.4644c-9.5609,0-18.1693,4.1533-24.1165,10.7505h-64.9854c-5.471,0-10.627,1.3657-15.1543,3.7659-5.9714-6.0337-14.2503-9.7792-23.3895-9.7792h-72.5205c-3.8574,0-7.5606.6664-11.0031,1.8904-5.5125-4.1588-12.3688-6.6275-19.7911-6.6275h-36.6246c-7.4894,0-14.4034,2.5141-19.9418,6.7419h-.648c-18.1549,0-32.9254,14.7705-32.9254,32.9254v13.3789c-3.6937-1.1931-7.6287-1.8446-11.7143-1.8446H38.3171C17.2533,51.9307.1165,69.0675.1165,90.1313v48.4861c0,21.0638,17.1368,38.2006,38.2006,38.2006h151.0723c3.4868,0,6.8623-.4787,10.0741-1.358v24.1898c0,18.1549,14.7705,32.9254,32.9254,32.9254h14.5233c3.6659,0,7.2671-.6252,10.6625-1.7969,3.0895.943,6.3267,1.4323,9.6185,1.4323h129.5515c6.572,0,12.6951-1.9431,17.84-5.2738,5.2567,3.6639,11.6384,5.8204,18.5175,5.8204h28.9302c4.4134,0,8.6865-.8818,12.6115-2.5315,1.5472.2273,3.1303.3452,4.7401.3452h37.7257c3.2078,1.0638,6.636,1.6397,10.1965,1.6397h18.6821c2.9955,0,5.9323-.4073,8.7442-1.1896,3.1705,1.0181,6.5201,1.5542,9.9488,1.5542h32.4121c7.6191,0,14.6282-2.6449,20.1731-7.0553,5.3038,3.8594,11.8236,6.1441,18.8701,6.1441h26.8812c1.2463,0,2.4772-.0716,3.6873-.2104,1.21.1388,2.4409.2104,3.6873.2104h20.6858c1.2777,0,2.5394-.0751,3.7783-.2208,1.2394.1457,2.5011.2208,3.7788.2208h18.8641c3.646,0,7.1522-.6102,10.4222-1.7337,3.6803,1.4706,7.6948,2.2803,11.8939,2.2803h59.1327c5.8498,0,11.3347-1.5783,16.0652-4.3199,5.1025,3.3038,11.1752,5.231,17.6932,5.231h15.1316c2.428,0,4.8147-.2706,7.1244-.7883,1.306.1596,2.6344.2417,3.9827.2417h66.3257c2.4812,0,4.9003-.2785,7.2244-.8052.7435.0507,1.4945.0766,2.2505.0766h61.9526c9.103,0,17.344-3.7484,23.2715-9.7779,6.1431,6.0417,14.5602,9.7779,23.8365,9.7779h41.5448c3.4486,0,6.7772-.5152,9.9165-1.4736,3.4625,1.1906,7.1761,1.8377,11.038,1.8377h47.7396c15.2246,0,28.1454-10.0532,32.4728-23.8698h8.1608c2.957,0,5.8264-.381,8.5635-1.0934,3.8053,13.4423,16.1771,23.3235,30.8213,23.3235h10.3074c1.0365,0,2.0659-.0492,3.0855-.1462,2.808.8072,5.7731,1.2394,8.8372,1.2394h39.6802c3.5222,0,6.9135-.5714,10.086-1.6263,3.9529,1.7481,8.322,2.7195,12.9149,2.7195h65.337c12.3021,0,23.4567-7.0503,28.7972-18.0494,6.05,10.2464,17.2012,17.1388,29.9376,17.1388h36.26c7.6958,0,14.8147-2.5141,20.5794-6.7653,6.0561,5.1271,13.8852,8.223,22.423,8.223h44.2771c12.0416,0,22.6722-6.1571,28.9093-15.4881h1.5209c9.9805,0,18.9854-4.2356,25.3289-10.9964,5.4088,12.9699,18.2175,22.1115,33.1249,22.1115h44.7576c19.7812,0,35.8741-16.0929,35.8741-35.8736v-33.4615c0-6.0715-1.5169-11.7969-4.1906-16.815l1.5736-2.0973c4.6253-6.1685,7.1726-13.8121,7.1726-21.5224Z" style="fill: none; stroke-width: 0px;"/>
    </clipPath>
    <filter id="drop-shadow-1" filterUnits="userSpaceOnUse">
      <feOffset dx="7.1299" dy="7.1299"/>
      <feGaussianBlur result="blur" stdDeviation="0"/>
      <feFlood flood-color="#1380a2" flood-opacity="1"/>
      <feComposite in2="blur" operator="in"/>
      <feComposite in="SourceGraphic"/>
    </filter>
  </defs>
  <g id="_圖層_3" data-name="圖層 3">
    <g>
      <g style="clip-path: url(#clippath);">
        <path d="M1740.6573,119.1615V43.3446c0-19.7807-16.0929-35.8736-35.8741-35.8736h-50.4063c-12.0577,0-22.7367,5.9855-29.2442,15.1348-6.2191-9.4368-16.9056-15.6814-29.0281-15.6814h-14.8063c-5.2116-3.1238-11.304-4.9202-17.8097-4.9202h-37.8998c-6.5057,0-12.5981,1.7964-17.8097,4.9202h-12.9885c-4.665-2.332-9.9234-3.6445-15.4842-3.6445h-26.5276c-12.4213,0-24.0002,6.7845-30.1446,17.4735-5.8144-8.1419-15.3335-13.465-26.0787-13.465h-16.7345c-5.3479-4.0041-11.9824-6.3774-19.1615-6.3774h-24.9794c-4.9336,0-9.716,1.1245-14.027,3.2233-2.1137-.4406-4.3045-.6724-6.547-.6724h-79.4032c-9.5303,0-18.0968,4.1881-23.9701,10.8146-4.6313-2.3648-9.8675-3.7082-15.4147-3.7082h-16.8126c-6.0069-5.3265-13.9051-8.5642-22.5454-8.5642h-46.6703c-4.9227,0-9.714,1.0693-14.0767,3.0537-3.4127-1.1528-7.0657-1.778-10.8624-1.778h-32.8239c-11.3401,0-21.9765,5.789-28.2299,15.0542-5.7923-9.1463-15.9948-15.2362-27.5989-15.2362h-36.6251c-7.4606,0-14.3448,2.5155-19.8493,6.7419h-4.9316c-4.3965,0-8.592.8733-12.424,2.4559l-9.5415-6.55c-5.4663-3.7584-11.8635-5.7458-18.498-5.7458h-29.1302c-6.6161,0-12.998,1.9769-18.4597,5.7189l-30.9808,21.2344c-.2444.1674-.4757.3491-.7147.5225-5.8947-7.4074-14.9784-12.1696-25.1588-12.1696h-12.6896c-5.7811-8.5672-15.5782-14.2125-26.6683-14.2125h-49.9015c-3.4655,0-6.8334.5451-10.005,1.5751-2.3658-.5555-4.8152-.8465-7.3054-.8465h-38.9317c-11.5477,0-21.6913,6.1198-27.3608,15.2865-5.9871-7.9786-15.5226-13.0997-25.9997-13.0997h-8.6388c-4.295-2.1003-9.1207-3.28-14.215-3.28h-46.4644c-9.5609,0-18.1693,4.1533-24.1165,10.7505h-64.9854c-5.471,0-10.627,1.3657-15.1543,3.7659-5.9714-6.0337-14.2503-9.7792-23.3895-9.7792h-72.5205c-3.8574,0-7.5606.6664-11.0031,1.8904-5.5125-4.1588-12.3688-6.6275-19.7911-6.6275h-36.6246c-7.4894,0-14.4034,2.5141-19.9418,6.7419h-.648c-18.1549,0-32.9254,14.7705-32.9254,32.9254v13.3789c-3.6937-1.1931-7.6287-1.8446-11.7143-1.8446H38.3171C17.2533,51.9307.1165,69.0675.1165,90.1313v48.4861c0,21.0638,17.1368,38.2006,38.2006,38.2006h151.0723c3.4868,0,6.8623-.4787,10.0741-1.358v24.1898c0,18.1549,14.7705,32.9254,32.9254,32.9254h14.5233c3.6659,0,7.2671-.6252,10.6625-1.7969,3.0895.943,6.3267,1.4323,9.6185,1.4323h129.5515c6.572,0,12.6951-1.9431,17.84-5.2738,5.2567,3.6639,11.6384,5.8204,18.5175,5.8204h28.9302c4.4134,0,8.6865-.8818,12.6115-2.5315,1.5472.2273,3.1303.3452,4.7401.3452h37.7257c3.2078,1.0638,6.636,1.6397,10.1965,1.6397h18.6821c2.9955,0,5.9323-.4073,8.7442-1.1896,3.1705,1.0181,6.5201,1.5542,9.9488,1.5542h32.4121c7.6191,0,14.6282-2.6449,20.1731-7.0553,5.3038,3.8594,11.8236,6.1441,18.8701,6.1441h26.8812c1.2463,0,2.4772-.0716,3.6873-.2104,1.21.1388,2.4409.2104,3.6873.2104h20.6858c1.2777,0,2.5394-.0751,3.7783-.2208,1.2394.1457,2.5011.2208,3.7788.2208h18.8641c3.646,0,7.1522-.6102,10.4222-1.7337,3.6803,1.4706,7.6948,2.2803,11.8939,2.2803h59.1327c5.8498,0,11.3347-1.5783,16.0652-4.3199,5.1025,3.3038,11.1752,5.231,17.6932,5.231h15.1316c2.428,0,4.8147-.2706,7.1244-.7883,1.306.1596,2.6344.2417,3.9827.2417h66.3257c2.4812,0,4.9003-.2785,7.2244-.8052.7435.0507,1.4945.0766,2.2505.0766h61.9526c9.103,0,17.344-3.7484,23.2715-9.7779,6.1431,6.0417,14.5602,9.7779,23.8365,9.7779h41.5448c3.4486,0,6.7772-.5152,9.9165-1.4736,3.4625,1.1906,7.1761,1.8377,11.038,1.8377h47.7396c15.2246,0,28.1454-10.0532,32.4728-23.8698h8.1608c2.957,0,5.8264-.381,8.5635-1.0934,3.8053,13.4423,16.1771,23.3235,30.8213,23.3235h10.3074c1.0365,0,2.0659-.0492,3.0855-.1462,2.808.8072,5.7731,1.2394,8.8372,1.2394h39.6802c3.5222,0,6.9135-.5714,10.086-1.6263,3.9529,1.7481,8.322,2.7195,12.9149,2.7195h65.337c12.3021,0,23.4567-7.0503,28.7972-18.0494,6.05,10.2464,17.2012,17.1388,29.9376,17.1388h36.26c7.6958,0,14.8147-2.5141,20.5794-6.7653,6.0561,5.1271,13.8852,8.223,22.423,8.223h44.2771c12.0416,0,22.6722-6.1571,28.9093-15.4881h1.5209c9.9805,0,18.9854-4.2356,25.3289-10.9964,5.4088,12.9699,18.2175,22.1115,33.1249,22.1115h44.7576c19.7812,0,35.8741-16.0929,35.8741-35.8736v-33.4615c0-6.0715-1.5169-11.7969-4.1906-16.815l1.5736-2.0973c4.6253-6.1685,7.1726-13.8121,7.1726-21.5224Z" style="fill: #22beff; opacity: .75; stroke-width: 0px;"/>
      </g>
      <g>
        <path d="M894.7123,7.1299c5.1856,0,10.1853,1.5532,14.463,4.4942l9.5415,6.5497,3.1855,2.1868,3.5712-1.4749c3.0786-1.2714,6.3428-1.916,9.7024-1.916h7.353l1.9207-1.4746c4.4881-3.4461,9.8503-5.2673,15.5072-5.2673h36.625c8.7825,0,16.8482,4.4567,21.5755,11.9212l5.8335,9.2115,6.0997-9.0374c4.9597-7.3484,13.5122-11.9133,22.3202-11.9133h32.824c2.9378,0,5.825.4722,8.5806,1.403l2.6693.9017,2.5644-1.1665c3.5214-1.6017,7.2641-2.4138,11.1247-2.4138h46.6705c6.5657,0,12.8925,2.4041,17.8149,6.769l2.0246,1.7951h19.5184c4.2717,0,8.3669.9852,12.1721,2.9283l4.9166,2.5106,3.6617-4.1314c4.7393-5.3471,11.5312-8.414,18.6342-8.414h79.4032c1.7165,0,3.4295.1758,5.0914.5222l2.3857.4976,2.191-1.0668c3.3642-1.638,7.1356-2.5039,10.9059-2.5039h24.9793c5.4106,0,10.5589,1.7133,14.8882,4.955l1.8998,1.4224h19.108c8.0107,0,15.5908,3.9173,20.2763,10.4787l6.4514,9.0339,5.5323-9.6243c4.9273-8.5719,14.1095-13.8969,23.9633-13.8969h26.5275c4.3205,0,8.4575.973,12.2965,2.892l1.5051.7525h16.6441l1.6924-1.0146c4.2631-2.5551,9.1542-3.9056,14.1444-3.9056h37.8996c4.9902,0,9.8813,1.3505,14.1444,3.9056l1.6924,1.0146h16.7792c9.3008,0,17.927,4.6636,23.0746,12.4748l5.7291,8.6935,6.0345-8.4841c5.4057-7.6003,14.1662-12.1376,23.4341-12.1376h50.4065c15.8496,0,28.7442,12.8943,28.7442,28.7437v75.8169c0,6.178-2.0411,12.3024-5.7458,17.2435l-1.5737,2.0973-2.7225,3.6283,2.1332,4.0033c2.1936,4.117,3.3531,8.7723,3.3531,13.4622v33.4615c0,15.8492-12.8946,28.7437-28.7442,28.7437h-44.7577c-11.6344,0-22.0535-6.9578-26.5441-17.7259l-4.2409-10.1693-7.5391,8.035c-5.2914,5.6396-12.4402,8.7452-20.1296,8.7452h-5.3312l-2.1175,3.1678c-5.1564,7.7145-13.7476,12.3203-22.9815,12.3203h-44.2771c-6.5113,0-12.8386-2.3208-17.8163-6.5348l-4.3022-3.6423-4.5365,3.3459c-4.7668,3.5152-10.4195,5.3735-16.3475,5.3735h-36.26c-9.7135,0-18.8325-5.2243-23.7982-13.6341l-6.7528-11.4361-5.8006,11.9468c-4.1393,8.5254-12.9252,14.0339-22.3831,14.0339h-65.337c-3.4899,0-6.865-.71-10.0311-2.1102l-2.5195-1.1143-2.614.8691c-2.5188.8375-5.1555,1.2622-7.8364,1.2622h-39.6802c-2.3367,0-4.6471-.3235-6.8676-.9619l-1.2991-.3735-1.3459.1281c-.7968.0758-1.6077.1141-2.4103.1141h-10.3073c-11.0853,0-20.9384-7.4576-23.9612-18.1357l-1.9012-6.7163-6.7551,1.7583c-2.2015.5732-4.4782.8636-6.7673.8636h-13.3993l-1.5656,4.999c-3.5351,11.2871-13.8507,18.8708-25.6689,18.8708h-47.7395c-2.9876,0-5.921-.4879-8.719-1.4502l-2.188-.7525-2.213.6759c-2.5269.7714-5.1627,1.1628-7.8343,1.1628h-41.5448c-7.078,0-13.7676-2.7458-18.8369-7.7314l-5.0844-5.0005-4.9995,5.0855c-4.8473,4.9306-11.3064,7.6463-18.1871,7.6463h-61.9525c-.5891,0-1.1824-.0201-1.7633-.0599l-1.0435-.0716-1.0199.2313c-1.841.4173-3.7413.6289-5.6481.6289h-66.3257c-1.0417,0-2.0911-.0637-3.1184-.189l-1.2222-.1495-1.2014.2696c-1.8227.4083-3.695.6155-5.565.6155h-15.1315c-4.9115,0-9.6897-1.4127-13.818-4.0859l-3.6686-2.3753-3.7816,2.1913c-3.7913,2.1975-8.1105,3.3588-12.4902,3.3588h-59.1327c-3.1952,0-6.3067-.5961-9.2482-1.7713l-2.4587-.9825-2.504.8604c-2.601.8935-5.3279,1.3468-8.1051,1.3468h-18.8643c-.9829,0-1.9744-.0579-2.9466-.1721l-.8322-.0977-.832.0977c-.9718.1141-1.963.1721-2.9462.1721h-20.6858c-.9579,0-1.9255-.055-2.8758-.1641l-.8116-.093-.8118.093c-.9498.1092-1.9174.1641-2.8753.1641h-26.8812c-5.3034,0-10.3781-1.6527-14.675-4.7794l-4.3872-3.1924-4.2462,3.3774c-4.5282,3.6017-9.969,5.5055-15.7348,5.5055h-32.4122c-2.6489,0-5.2627-.4081-7.7688-1.2128l-2.0334-.653-2.0572.5724c-2.2156.6162-4.5147.9288-6.8336.9288h-18.6821c-2.7209,0-5.3965-.4297-7.9523-1.2774l-1.0927-.3623h-38.8771c-1.2396,0-2.486-.0908-3.7047-.2696l-1.966-.2885-1.832.7699c-3.117,1.31-6.4308,1.9744-9.8489,1.9744h-28.9301c-5.186,0-10.1795-1.5699-14.4407-4.5397l-3.93-2.7393-4.0214,2.6033c-4.1726,2.7013-9.0017,4.1292-13.9655,4.1292h-129.5514c-2.5625,0-5.0985-.3772-7.5371-1.1217l-2.2167-.6766-2.1908.756c-2.7052.9335-5.5099,1.407-8.3364,1.407h-14.5233c-14.2237,0-25.7955-11.5718-25.7955-25.7955v-33.5336l-9.0123,2.4668c-2.6784.7333-5.4346,1.1051-8.1918,1.1051H38.2008c-17.1325,0-31.0709-13.9382-31.0709-31.0708v-48.4861c0-17.1326,13.9384-31.0708,31.0709-31.0708h151.0722c3.239,0,6.4428.5043,9.5228,1.4995l9.3216,3.0114v-23.175c0-14.2237,11.5718-25.7955,25.7955-25.7955h3.0581l1.9159-1.4627c4.5247-3.4538,9.9243-5.2793,15.6157-5.2793h36.6246c5.6382,0,10.9971,1.7944,15.4972,5.1895l3.0649,2.3121,3.6173-1.2861c2.7594-.981,5.6578-1.4783,8.6149-1.4783h72.5206c6.9234,0,13.4303,2.7219,18.3217,7.6645l3.7268,3.7659,4.6809-2.4817c3.6735-1.9478,7.6484-2.9353,11.8145-2.9353h68.1571l2.1239-2.3559c4.8092-5.3347,11.6691-8.3946,18.8208-8.3946h46.4644c3.887,0,7.6158.8597,11.083,2.5551l1.4822.7249h10.2885c7.8936,0,15.4811,3.8313,20.297,10.2492l6.2708,8.3568,5.4958-8.8857c4.6115-7.4559,12.5729-11.9071,21.297-11.9071h38.9318c1.9075,0,3.8168.2211,5.6754.6575l1.9383.4553,1.8936-.615c2.5063-.8136,5.1316-1.2264,7.8033-1.2264h49.9014c8.3204,0,16.0804,4.1386,20.7583,11.0708l2.12,3.1417h16.4797c7.6493,0,14.7859,3.4553,19.58,9.4793l4.245,5.3347,5.5192-4.0021c.116-.0841.2306-.1693.3452-.2549.0704-.0527.1401-.1067.2153-.1587l30.9792-21.2337c4.2693-2.9249,9.2593-4.4708,14.4303-4.4708h29.1301M1283.6237,61.0693l-.2059.0629-.3516.1485-9.9163,4.1913,7.7287,7.4947.11.1052.023.0211,12.0304,11.6661v-27.1746l-9.4182,3.4849M873.7024,80.2534l.0553.0709h18.0969l-1.1558-1.4791c1.6777-1.0849,3.0005-2.7093,3.6947-4.6795l.8919-2.5315-.9989-2.4909c-.4625-1.1536-1.0112-2.328-1.6306-3.4903l-.8359-1.5679-1.4736-.9924c-1.5382-1.0357-3.3179-1.5833-5.1463-1.5833h-9.8883c-.4894,0-.8873.0433-1.1792.0811l-3.5869.4638-1.7445,3.1683c-.0449.0816-.0919.1619-.1382.2425-.1491.2581-.3532.6122-.5602,1.027l-.0007.0015-.0007.0015c-.5218,1.0471-1.0137,2.1987-1.504,3.5199l-1.4783,3.9849,2.8019,3.1959c1.4911,1.7004,3.5531,2.7809,5.7813,3.0576M348.5865,86.7126l6.1421-.4297c.7088-.0495,1.285-.0726,1.8132-.0726h11.2066l1.0531-5.8713c.1039-.5789.1544-1.128.1544-1.6783v-5.1017c0-5.2377-4.261-9.4987-9.4987-9.4987h-2.9154c-5.2377,0-9.4987,4.261-9.4987,9.4987v5.1017c0,.6754.0753,1.361.2239,2.0378l1.3195,6.0141M703.8455,90.5834h44.2931l-.4741-7.5752c-.0625-.9969-.1692-2.0127-.3179-3.0189l-.8982-6.0897h-33.151c-3.0267,0-5.7916,1.5323-7.3963,4.0996l-.4244.6789-.8884,1.4216-.1618,1.6686-.0199.2012c-.0348.3457-.0678.6916-.0893,1.0407l-.4718,7.5732M872.312,99.5917h-16.2607l8.4487,4.3209c-.6067.9668-1.0416,2.0595-1.2579,3.2392l-.8289,4.5198-12.7331,6.735h62.3981l-11.812-6.2473.1701-2.0916c.0264-.227.0518-.5272.0518-.8863v-.3645c0-1.9043-.58-3.6756-1.5725-5.1465l8.9063-4.0787h-35.5097M708.3353,127.1528h18.2297l.3704-6.7387c.0607-1.1061.0729-2.1982.0364-3.2459l-.2401-6.8812h-20.1509l.4697,7.5712c.0653,1.0514.1845,2.1445.3544,3.2491l.9303,6.0454M894.7123,0h-29.1301c-6.6162,0-12.9981,1.9769-18.4598,5.7189l-30.9806,21.2344c-.2445.1674-.4757.3491-.7149.5225-5.8946-7.4074-14.9785-12.1696-25.1589-12.1696h-12.6896c-5.7812-8.5672-15.5783-14.2125-26.6684-14.2125h-49.9014c-3.4656,0-6.8336.5451-10.0052,1.5751-2.3658-.5555-4.8152-.8465-7.3053-.8465h-38.9318c-11.5476,0-21.6912,6.1198-27.3608,15.2865-5.987-7.9786-15.5225-13.0997-25.9997-13.0997h-8.6387c-4.2951-2.1003-9.1207-3.28-14.2151-3.28h-46.4644c-9.5607,0-18.1693,4.1533-24.1165,10.7505h-64.9852c-5.4712,0-10.6271,1.3657-15.1544,3.7659-5.9713-6.0337-14.2503-9.7792-23.3894-9.7792h-72.5206c-3.8573,0-7.5607.6664-11.0031,1.8904-5.5124-4.1588-12.3689-6.6275-19.7911-6.6275h-36.6246c-7.4893,0-14.4034,2.5141-19.9418,6.7419h-.6479c-18.155,0-32.9254,14.7705-32.9254,32.9254v13.3789c-3.6939-1.1931-7.6288-1.8446-11.7146-1.8446H38.2008C17.1369,51.9307,0,69.0675,0,90.1313v48.4861c0,21.0638,17.1369,38.2006,38.2008,38.2006h151.0722c3.487,0,6.8623-.4787,10.0742-1.358v24.1898c0,18.1549,14.7706,32.9254,32.9254,32.9254h14.5233c3.6659,0,7.2672-.6252,10.6625-1.7969,3.0894.943,6.3265,1.4323,9.6185,1.4323h129.5514c6.572,0,12.6953-1.9431,17.8402-5.2738,5.2566,3.6639,11.6383,5.8204,18.5174,5.8204h28.9301c4.4133,0,8.6867-.8818,12.6115-2.5315,1.5473.2273,3.1304.3452,4.7402.3452h37.7257c3.2077,1.0638,6.6359,1.6397,10.1964,1.6397h18.6821c2.9955,0,5.9324-.4073,8.7443-1.1896,3.1705,1.0181,6.5201,1.5542,9.9487,1.5542h32.4122c7.619,0,14.6282-2.6449,20.1731-7.0553,5.3039,3.8594,11.8236,6.1441,18.8701,6.1441h26.8812c1.2463,0,2.4772-.0716,3.6872-.2104,1.2102.1388,2.4411.2104,3.6874.2104h20.6858c1.2776,0,2.5395-.0751,3.7783-.2208,1.2394.1457,2.5011.2208,3.7786.2208h18.8643c3.6459,0,7.1521-.6102,10.4221-1.7337,3.6804,1.4706,7.6949,2.2803,11.8939,2.2803h59.1327c5.85,0,11.3349-1.5783,16.0653-4.3199,5.1025,3.3038,11.1751,5.231,17.6932,5.231h15.1315c2.4281,0,4.8147-.2706,7.1243-.7883,1.3061.1596,2.6346.2417,3.9828.2417h66.3257c2.4811,0,4.9002-.2785,7.2243-.8052.7435.0507,1.4945.0766,2.2505.0766h61.9525c9.1031,0,17.3441-3.7484,23.2716-9.7779,6.143,6.0417,14.5602,9.7779,23.8364,9.7779h41.5448c3.4485,0,6.7773-.5152,9.9165-1.4736,3.4624,1.1906,7.1759,1.8377,11.0379,1.8377h47.7395c15.2246,0,28.1456-10.0532,32.4728-23.8698h8.1609c2.957,0,5.8263-.381,8.5635-1.0934,3.8052,13.4423,16.1771,23.3235,30.8214,23.3235h10.3073c1.0366,0,2.066-.0492,3.0855-.1462,2.808.8072,5.7731,1.2394,8.8373,1.2394h39.6802c3.5221,0,6.9134-.5714,10.086-1.6263,3.9529,1.7481,8.322,2.7195,12.915,2.7195h65.337c12.302,0,23.4565-7.0503,28.797-18.0494,6.0502,10.2464,17.2013,17.1388,29.9378,17.1388h36.26c7.6958,0,14.8148-2.5141,20.5794-6.7653,6.0562,5.1271,13.8852,8.223,22.4232,8.223h44.2771c12.0416,0,22.6722-6.1571,28.9093-15.4881h1.5209c9.9807,0,18.9853-4.2356,25.3291-10.9964,5.4088,12.9699,18.2175,22.1115,33.1247,22.1115h44.7577c19.7812,0,35.8741-16.0929,35.8741-35.8736v-33.4615c0-6.0715-1.5169-11.7969-4.1906-16.815l1.5737-2.0973c4.6251-6.1685,7.1727-13.8121,7.1727-21.5224V43.3446c0-19.7807-16.0929-35.8736-35.8741-35.8736h-50.4065c-12.0576,0-22.7366,5.9855-29.2442,15.1348-6.219-9.4368-16.9054-15.6814-29.028-15.6814h-14.8063c-5.2117-3.1238-11.3041-4.9202-17.8098-4.9202h-37.8996c-6.5058,0-12.5981,1.7964-17.8098,4.9202h-12.9884c-4.6652-2.332-9.9235-3.6445-15.4843-3.6445h-26.5275c-12.4215,0-24.0003,6.7845-30.1447,17.4735-5.8143-8.1419-15.3334-13.465-26.0786-13.465h-16.7346c-5.3479-4.0041-11.9823-6.3774-19.1615-6.3774h-24.9793c-4.9337,0-9.7161,1.1245-14.0271,3.2233-2.1135-.4406-4.3043-.6724-6.547-.6724h-79.4032c-9.5302,0-18.0966,4.1881-23.97,10.8146-4.6314-2.3648-9.8674-3.7082-15.4146-3.7082h-16.8126c-6.0069-5.3265-13.9053-8.5642-22.5454-8.5642h-46.6705c-4.9226,0-9.714,1.0693-14.0766,3.0537-3.4128-1.1528-7.0657-1.778-10.8624-1.778h-32.824c-11.3399,0-21.9764,5.789-28.2298,15.0542-5.7923-9.1463-15.995-15.2362-27.599-15.2362h-36.625c-7.4607,0-14.3447,2.5155-19.8493,6.7419h-4.9316c-4.3964,0-8.5922.8733-12.424,2.4559l-9.5415-6.55c-5.4664-3.7584-11.8636-5.7458-18.498-5.7458h0ZM1285.9121,67.9137c-.0229-.0224-.0472-.0433-.0701-.0656.0225-.0094.047-.0147.0701-.0234v.089h0ZM874.8452,73.1944c-.663,0-1.1973-.282-1.563-.6993.3586-.9663.7491-1.9138,1.2012-2.8214.1734-.3476.3771-.6739.5635-1.0123.0877-.0112.1757-.0221.2651-.0221h9.8883c.4171,0,.8188.1353,1.1639.3675.4799.9004.9192,1.8282,1.3047,2.7896-.2732.7751-.9801,1.398-1.9728,1.398h-8.4614l-2.7513-3.5207,2.751,3.5207h-2.3892ZM354.2311,79.1705c-.0361-.1646-.0581-.3345-.0581-.5098v-5.1017c0-1.3083,1.0605-2.3688,2.3688-2.3688h2.9154c1.3084,0,2.3688,1.0606,2.3688,2.3688v5.1017c0,.1437-.0178.283-.0424.4198h-5.2418c-.7775,0-1.5463.0366-2.3107.09h0ZM711.4333,83.4536c.0208-.3347.0576-.6652.0898-.9969l.4243-.6789c.291-.4655.801-.7482,1.3501-.7482h26.9958c.1187.8052.2046,1.6139.2553,2.424h-29.1153ZM893.341,109.3513c-2.6503-.4963-5.2384-1.3759-7.6898-2.6297h5.6115c1.1572,0,2.0954.938,2.0954,2.0953v.3645c0,.0582-.0125.1129-.0171.1698h0ZM870.255,108.4379c.1789-.9758,1.0297-1.7163,2.057-1.7163h2.8168c-1.5746.7211-3.2061,1.2933-4.8738,1.7163h0ZM878.4085,111.2767c.8438-.4461,1.6697-.9211,2.4677-1.4368.7991.5162,1.6274.9902,2.4721,1.4368h-4.9397ZM714.4519,120.0229c-.132-.8574-.2306-1.7255-.2852-2.6061h5.6796c.0303.8689.0176,1.7382-.0301,2.6061h-5.3642Z" style="fill: #fff; stroke-width: 0px;"/>
        <g style="filter: url(#drop-shadow-1);">
          <g>
            <rect x="28.5196" y="80.4502" width="170.4346" height="67.8486" rx="9.6812" ry="9.6812" style="fill: #fff; stroke-width: 0px;"/>
            <path d="M189.2729,82.4871c4.2218,0,7.6443,3.4226,7.6443,7.6445v48.4856c0,4.2219-3.4225,7.6443-7.6443,7.6443H38.2009c-4.2218,0-7.6443-3.4224-7.6443-7.6443v-48.4856c0-4.2219,3.4225-7.6445,7.6443-7.6445h151.072M189.2729,78.4129H38.2009c-6.4617,0-11.7185,5.2571-11.7185,11.7188v48.4856c0,6.4617,5.2568,11.7185,11.7185,11.7185h151.072c6.4617,0,11.7185-5.2568,11.7185-11.7185v-48.4856c0-6.4617-5.2568-11.7188-11.7185-11.7188h0Z" style="fill: #1380a2; stroke-width: 0px;"/>
          </g>
          <g>
            <path d="M232.2726,204.0557c-2.4292,0-4.4058-1.9766-4.4058-4.4058v-76.8936c0-2.4297,1.9766-4.4062,4.4058-4.4062h22.9585c2.4297,0,4.4062,1.9766,4.4062,4.4062v34.438c0,.1831.1489.332.3315.332s.3315-.1489.3315-.332v-39.1758c0-.1826-.1489-.3315-.3315-.3315h-27.1499c-2.4292,0-4.4058-1.9766-4.4058-4.4062v-29.6997c0-2.4297,1.9766-4.4062,4.4058-4.4062h16.9458c.1831,0,.332-.1489.332-.3315v-1.2759c0-.1826-.1489-.3315-.332-.3315h-15.8521c-2.4292,0-4.4058-1.9766-4.4058-4.4058v-32.4336c0-2.4297,1.9766-4.4062,4.4058-4.4062h15.8521c.1831,0,.332-.1489.332-.3315v-2.0044c0-2.4292,1.9766-4.4058,4.4058-4.4058h36.6245c2.4297,0,4.4062,1.9766,4.4062,4.4058v2.0044c0,.1826.1489.3315.3315.3315h16.5815c2.4292,0,4.4058,1.9766,4.4058,4.4062v32.4336c0,2.4292-1.9766,4.4058-4.4058,4.4058h-16.5815c-.1826,0-.3315.1489-.3315.3315v1.2759c0,.1826.1489.3315.3315.3315h16.7632c2.4297,0,4.4062,1.9766,4.4062,4.4062v29.6997c0,2.4297-1.9766,4.4062-4.4062,4.4062h-8.9282c-.1826,0-.3315.1489-.3315.3315v1.0933c0,.1826.1489.3315.3315.3315h8.7466c2.4292,0,4.4058,1.9766,4.4058,4.4062v27.5142c0,2.4292-1.9766,4.4058-4.4058,4.4058h-8.7466c-.1826,0-.3315.1489-.3315.332v1.0928c0,.1831.1489.332.3315.332h92.9287c2.4292,0,4.4058,1.9766,4.4058,4.4058v37.353c0,2.4297-1.9766,4.4062-4.4058,4.4062h-129.5518c-1.0947,0-2.144-.4043-2.9561-1.1387l-8.6812-7.8545c-.064-.0581-.1357-.0859-.2197-.0859-.0708,0-.2017.0205-.2866.1592l-4.3765,7.1733c-.7939,1.3018-2.2354,2.1108-3.7612,2.1108h-14.5229ZM321.9215,156.8628c-2.4292,0-4.4058-1.9766-4.4058-4.4058V38.3917c0-2.4292,1.9766-4.4058,4.4058-4.4058h72.5205c2.4292,0,4.4058,1.9766,4.4058,4.4058v68.8765c0,2.1704-1.5776,3.9795-3.647,4.3403h.1523c2.4292,0,4.4058,1.9766,4.4058,4.4058v36.4429c0,2.4292-1.9766,4.4058-4.4058,4.4058h-73.4316ZM356.5416,111.6739c-.1826,0-.3315.1489-.3315.332v3.4619c0,.1826.1489.3315.3315.3315h4.7251c.0835,0,.1636-.0312.2251-.0879l3.1943-2.9395c.6274-.5767,1.3979-.9541,2.2246-1.0981h-10.3691ZM356.5416,73.2271c-.1826,0-.3315.1489-.3315.332v5.1016c0,.1826.1489.3315.3315.3315h2.9155c.1826,0,.3315-.1489.3315-.3315v-5.1016c0-.1831-.1489-.332-.3315-.332h-2.9155Z" style="fill: #fff; stroke-width: 0px;"/>
            <path d="M291.1273,31.2857c1.3082,0,2.3688,1.0605,2.3688,2.3687v2.0044c0,1.3083,1.0606,2.3689,2.3688,2.3689h16.5813c1.3083,0,2.3688,1.0605,2.3688,2.3687v32.4336c0,1.3083-1.0605,2.3689-2.3688,2.3689h-16.5813c-1.3082,0-2.3688,1.0605-2.3688,2.3687v1.2759c0,1.3081,1.0606,2.3687,2.3688,2.3687h16.7634c1.3082,0,2.3688,1.0605,2.3688,2.3689v29.7002c0,1.3081-1.0605,2.3687-2.3688,2.3687h-8.9283c-1.3082,0-2.3688,1.0608-2.3688,2.3689v1.0933c0,1.3081,1.0606,2.3687,2.3688,2.3687h8.7462c1.3083,0,2.3688,1.0608,2.3688,2.3689v27.5144c0,1.3081-1.0605,2.3689-2.3688,2.3689h-8.7462c-1.3082,0-2.3688,1.0605-2.3688,2.3687v1.0933c0,1.3081,1.0606,2.3687,2.3688,2.3687h92.9284c1.3082,0,2.3688,1.0608,2.3688,2.3689v37.3533c0,1.3081-1.0606,2.3689-2.3688,2.3689h-129.5515c-.5873,0-1.1537-.2183-1.5893-.6123l-8.6815-7.8545c-.4574-.4138-1.0243-.6125-1.5862-.6125-.7914,0-1.5728.3938-2.0251,1.1353l-4.377,7.1736c-.4301.7048-1.1963,1.135-2.0221,1.135h-14.5231c-1.3082,0-2.3689-1.0605-2.3689-2.3689v-76.8936c0-1.3083,1.0607-2.3689,2.3689-2.3689h22.9586c1.3083,0,2.3689,1.0605,2.3689,2.3689v34.4382c0,1.3081,1.0605,2.3687,2.3688,2.3687s2.3688-1.0605,2.3688-2.3687v-39.176c0-1.3081-1.0605-2.3689-2.3688-2.3689h-27.1498c-1.3082,0-2.3688-1.0605-2.3688-2.3687v-29.7002c0-1.3083,1.0605-2.3689,2.3688-2.3689h16.9459c1.3082,0,2.3688-1.0605,2.3688-2.3687v-1.2759c0-1.3081-1.0605-2.3687-2.3688-2.3687h-15.8522c-1.3083,0-2.3689-1.0605-2.3689-2.3689v-32.4336c0-1.3081,1.0605-2.3687,2.3689-2.3687h15.8522c1.3082,0,2.3688-1.0605,2.3688-2.3689v-2.0044c0-1.3081,1.0605-2.3687,2.3689-2.3687h36.6246M394.442,36.0228c1.3083,0,2.3688,1.0605,2.3688,2.3689v68.8765c0,1.3083-1.0605,2.3689-2.3688,2.3689h-37.9002c-1.3083,0-2.3688,1.0605-2.3688,2.3689v3.4619c0,1.3083,1.0605,2.3689,2.3688,2.3689h4.7248c.5942,0,1.1666-.2234,1.6039-.6257l3.1953-2.9399c.4373-.4021,1.0098-.6255,1.6039-.6255h27.6835c1.3083,0,2.3688,1.0605,2.3688,2.3689v36.4424c0,1.3083-1.0605,2.3689-2.3688,2.3689h-73.4316c-1.3083,0-2.3688-1.0605-2.3688-2.3689V38.3917c0-1.3083,1.0605-2.3689,2.3688-2.3689h72.5205M356.5418,81.0296h2.9154c1.3082,0,2.3688-1.0605,2.3688-2.3689v-5.1018c0-1.3081-1.0605-2.3687-2.3688-2.3687h-2.9154c-1.3083,0-2.3688,1.0605-2.3688,2.3687v5.1018c0,1.3083,1.0605,2.3689,2.3688,2.3689M291.1273,27.2115h-36.6246c-3.5527,0-6.4431,2.8904-6.4431,6.4429v.2991h-14.1467c-3.5527,0-6.4431,2.8904-6.4431,6.4429v32.4336c0,2.0264.9406,3.8374,2.4077,5.0195-2.0775,1.0706-3.5013,3.2378-3.5013,5.7314v29.7002c0,1.7424.6954,3.3257,1.8232,4.4866-1.4457,1.1826-2.3699,2.9797-2.3699,4.9888v76.8936c0,3.5527,2.8904,6.4431,6.4431,6.4431h14.5231c2.2307,0,4.3381-1.1829,5.5-3.0872l3.3042-5.4153,7.1543,6.4727c1.187,1.074,2.7221,1.6653,4.3227,1.6653h129.5515c3.5527,0,6.4431-2.8904,6.4431-6.4431v-37.3533c0-2.2031-1.1114-4.1516-2.803-5.314.9526-1.1233,1.5278-2.5764,1.5278-4.1614v-36.4424c0-1.9377-.8598-3.6782-2.2179-4.8606.8199-1.0808,1.3068-2.4275,1.3068-3.8857V38.3917c0-3.5527-2.8903-6.4431-6.4431-6.4431h-72.5205c-2.4083,0-4.5121,1.3281-5.6177,3.2903-1.0762-.8069-2.4119-1.2854-3.8576-1.2854h-14.8759v-.2991c0-3.5525-2.8903-6.4429-6.443-6.4429h0ZM358.2472,113.7112h2.4098l-.0557.0513h-2.3541v-.0513h0Z" style="fill: #1380a2; stroke-width: 0px;"/>
          </g>
          <g>
            <path d="M432.986,204.2378c-2.1782,0-3.9507-1.772-3.9507-3.9502V43.9493c0-2.1782,1.7725-3.9502,3.9507-3.9502h85.1514v-6.8003c0-2.1782,1.772-3.9502,3.9502-3.9502h46.4644c2.1782,0,3.9507,1.772,3.9507,3.9502v1.9033c.5601-1.5015,2.0088-2.5737,3.7026-2.5737h15.2007c1.9458,0,3.6265,1.4521,3.9087,3.3779l.5986,4.0928h.1528c2.1782,0,3.9502,1.772,3.9502,3.9502v38.6289c0,2.1782-1.772,3.9502-3.9502,3.9502h-23.5635v15.5679l8.7471-10.7183c.7544-.9233,1.8696-1.4526,3.0605-1.4526h11.5737c2.1782,0,3.9502,1.7725,3.9502,3.9507v42.7661c0,.9204-.3237,1.8169-.9116,2.5244l-9.3589,11.2627,10.7446,16.8618c.4048.6353.6191,1.3691.6191,2.123v30.6914c0,2.1782-1.772,3.9502-3.9502,3.9502h-32.4121c-1.3242,0-2.5532-.6577-3.2876-1.7598l-5.5581-8.3374-6.792,8.2866c-.7534.9189-1.8667,1.4463-3.0552,1.4463h-18.6821c-2.1782,0-3.9507-1.7725-3.9507-3.9507v-36.5801c0-.9092.3169-1.7969.8921-2.5l7.6011-9.3081-7.2246-12.3623c-.353-.6035-.54-1.293-.54-1.9932v-50.4688h-43.4829v5.9478h37.7764c2.1782,0,3.9502,1.7725,3.9502,3.9507v101.6743c0,2.1782-1.772,3.9507-3.9502,3.9507h-38.9937c-2.1782,0-3.9502-1.7725-3.9502-3.9507v-6.7695c0-.8247.2524-1.6152.7295-2.2871l7.3105-10.3013-.0229-39.3726h-2.8496v38.2158c0,.7588-.2173,1.498-.6284,2.1372l-14.6191,22.7026c-.7305,1.1343-1.9722,1.8115-3.3213,1.8115h-28.9302Z" style="fill: #fff; stroke-width: 0px;"/>
            <path d="M568.5521,31.2857c1.0566,0,1.9133.8564,1.9133,1.9131v6.9241c0,1.0566.8566,1.9133,1.9133,1.9133s1.9133-.8567,1.9133-1.9133v-3.644c0-1.0566.8566-1.9133,1.9133-1.9133h15.2006c.9497,0,1.7556.6968,1.8931,1.6365l.6143,4.198c.1375.9397.9434,1.6362,1.8931,1.6362h.2596c1.0567,0,1.9133.8564,1.9133,1.9131v38.6289c0,1.0566-.8566,1.9133-1.9133,1.9133h-23.6873c-1.0567,0-1.9133.8567-1.9133,1.9133v16.0393c0,1.1682.952,1.9172,1.931,1.9172.5289,0,1.0656-.2185,1.4646-.7075l8.967-10.9878c.3633-.4453.9076-.7036,1.4823-.7036h11.5736c1.0566,0,1.9133.8567,1.9133,1.9133v42.7664c0,.4468-.1563.8792-.4418,1.2229l-9.4165,11.3318c-.5316.6399-.589,1.5496-.142,2.251l10.7936,16.938c.1957.3071.2997.6638.2997,1.0281v30.6917c0,1.0566-.8566,1.9133-1.9133,1.9133h-32.4121c-.6398,0-1.2371-.3198-1.592-.8521l-5.6512-8.4773c-.3761-.5642-.9836-.8521-1.5931-.8521-.546,0-1.0936.2307-1.4786.7004l-6.8984,8.416c-.3634.4434-.9064.7004-1.4797.7004h-18.6821c-1.0566,0-1.9133-.8567-1.9133-1.9133v-36.5803c0-.4409.1524-.8684.4314-1.2102l7.6567-9.376c.5052-.6187.5729-1.4858.1699-2.1755l-7.268-12.4363c-.1712-.293-.2614-.6262-.2614-.9653v-50.5925c0-1.0566-.8566-1.9133-1.9133-1.9133h-43.7311c-1.0566,0-1.9133.8567-1.9133,1.9133v6.1953c0,1.0566.8566,1.9133,1.9133,1.9133h37.9003c1.0566,0,1.9133.8564,1.9133,1.9131v101.6746c0,1.0569-.8566,1.9133-1.9133,1.9133h-38.9934c-1.0567,0-1.9133-.8564-1.9133-1.9133v-6.7695c0-.3967.1234-.7837.353-1.1072l7.3112-10.3025c.2296-.3235.353-.7104.353-1.1072v-39.5681c0-1.0566-.8566-1.9133-1.9133-1.9133h-3.0974c-1.0566,0-1.9133.8567-1.9133,1.9133v38.3396c0,.3674-.1058.7271-.3046,1.0359l-14.6185,22.7012c-.3522.5471-.9581.8774-1.6086.8774h-28.9301c-1.0566,0-1.9133-.8564-1.9133-1.9131V43.9493c0-1.0566.8566-1.9131,1.9133-1.9131h85.2753c1.0566,0,1.9133-.8567,1.9133-1.9133v-6.9241c0-1.0566.8566-1.9131,1.9133-1.9131h46.4644M568.5521,27.2115h-46.4644c-3.3015,0-5.9875,2.6858-5.9875,5.9873v4.7632h-83.1144c-3.3015,0-5.9875,2.6858-5.9875,5.9873v156.3384c0,3.3015,2.686,5.9873,5.9875,5.9873h28.9301c2.0453,0,3.9274-1.0266,5.0344-2.7463l6.33-9.8301v4.4026c0,3.3015,2.686,5.9875,5.9875,5.9875h38.9934c1.4222,0,2.7304-.4985,3.7587-1.3301,1.0402,1.7754,2.9682,2.97,5.17,2.97h18.6821c1.8011,0,3.489-.7988,4.6307-2.1919l5.0481-6.1587,4.0322,6.0486c1.1132,1.6699,2.9756,2.6665,4.982,2.6665h32.4121c3.3015,0,5.9875-2.686,5.9875-5.9875v-30.6917c0-1.1421-.3245-2.2546-.9382-3.2178l-9.9462-15.6082,8.4088-10.1191c.8918-1.0737,1.3825-2.4324,1.3825-3.8267v-42.7664c0-2.5723-1.6306-4.771-3.9122-5.6167,2.3765-.7942,4.0942-3.0408,4.0942-5.6809v-38.6289c0-2.7324-1.8399-5.0432-4.3458-5.7585l-.3774-2.5786c-.4271-2.9194-2.9741-5.1208-5.9244-5.1208h-15.2006c-.7504,0-1.469.1387-2.1315.3918-.9072-2.1548-3.0406-3.6716-5.5216-3.6716h0ZM574.5396,88.5657h6.9989c-.7095.3706-1.3456.8853-1.8672,1.5247l-5.1317,6.2881v-7.8127h0ZM482.5218,88.5657h39.4092v3.1331c-1.0143-.7891-2.2881-1.2595-3.6699-1.2595h-35.7393v-1.8735h0ZM524.2486,157.2962v-14.7119l5.0115,8.5752-5.0115,6.1367h0Z" style="fill: #1380a2; stroke-width: 0px;"/>
          </g>
          <g>
            <path d="M739.6988,203.6915c-2.001,0-3.6289-1.6279-3.6289-3.6289v-.9263h-11.1299c-2.001,0-3.6289-1.6279-3.6289-3.6289v-35.9922c0-2.001,1.6279-3.6289,3.6289-3.6289h17.5884c2.001,0,3.6289,1.6279,3.6289,3.6289v10.7012l.6631-.6123v-14.0171h-78.647l-1.6431,2.6284v41.3003c0,2.001-1.6279,3.6289-3.6289,3.6289h-26.8813c-2.001,0-3.6289-1.6279-3.6289-3.6289v-19.2412c0-.7246.2139-1.4248.6177-2.0259l3.9697-5.8975h-5.1494c-2.0015,0-3.6294-1.6279-3.6294-3.6289v-48.3901c0-.7314.2178-1.438.6299-2.0435l19.4185-28.48h-11.1348c-2.001,0-3.6289-1.6279-3.6289-3.6289v-38.7251c0-2.001,1.6279-3.6289,3.6289-3.6289h7.1543l-2.6738-4.813c-.2988-.5371-.4565-1.147-.4565-1.7622v-3.2798c0-2.001,1.6279-3.6289,3.6289-3.6289h38.9321c1.4131,0,2.7075.8296,3.2974,2.1138l4.9556,10.7861,5.811-11.6226c.6196-1.2378,1.8633-2.0063,3.2461-2.0063h49.9019c2.001,0,3.6289,1.6279,3.6289,3.6294v3.3091c0,.5703-.1372,1.1406-.396,1.6489l-2.8706,5.6255h38.9956c2.001,0,3.6289,1.6279,3.6289,3.6289v26.125c0,.5122-.1118,1.0298-.3228,1.4961l-2.9287,6.4678h4.1777c2.001,0,3.6289,1.6279,3.6289,3.6289v27.6235c0,.4595-.0854.9087-.2549,1.335l-1.521,3.855h2.1553c2.0015,0,3.6294,1.6279,3.6294,3.6289v78.4478c0,2.001-1.6279,3.6289-3.6294,3.6289h-59.1328ZM742.63,117.9859v-1.9385h-49.687l-1.2334,1.9385h50.9204ZM739.8966,84.8233v-1.7568h-26.3525l-1.0977,1.7568h27.4502ZM698.5187,203.1446c-2.001,0-3.6289-1.6279-3.6289-3.6289v-40.0005c0-2.001,1.6279-3.6289,3.6289-3.6289h18.8643c2.001,0,3.6289,1.6279,3.6289,3.6289v40.0005c0,2.001-1.6279,3.6289-3.6289,3.6289h-18.8643ZM670.276,203.1446c-2.0015,0-3.6294-1.6279-3.6294-3.6289v-40.0005c0-2.001,1.6279-3.6289,3.6294-3.6289h20.686c2.001,0,3.6289,1.6279,3.6289,3.6289v40.0005c0,2.001-1.6279,3.6289-3.6289,3.6289h-20.686Z" style="fill: #fff; stroke-width: 0px;"/>
            <path d="M750.9102,31.6502c.8792,0,1.5919.7126,1.5919,1.5918v3.3093c0,.2515-.0596.4995-.1739.7234l-3.2004,6.2727c-.5404,1.0591.2289,2.3152,1.418,2.3152h39.7224c.8792,0,1.5919.7126,1.5919,1.592v26.1248c0,.2266-.0483.4504-.1418.6567l-3.2131,7.0957c-.4772,1.0537.2933,2.2485,1.4501,2.2485h4.8681c.8792,0,1.5919.7126,1.5919,1.5918v27.624c0,.2-.0377.3984-.1112.5845l-1.7627,4.4661c-.4123,1.0444.3576,2.1763,1.4807,2.1763h2.8098c.8792,0,1.5919.7126,1.5919,1.5918v78.4475c0,.8792-.7127,1.592-1.5919,1.592h-59.1328c-.8792,0-1.5919-.7129-1.5919-1.592v-1.3713c0-.8792-.7127-1.5918-1.5919-1.5918h-11.5753c-.8792,0-1.5919-.7129-1.5919-1.592v-35.9922c0-.8792.7127-1.5918,1.5919-1.5918h17.5886c.8792,0,1.5919.7126,1.5919,1.5918v11.718c0,.9546.782,1.595,1.602,1.595.3719,0,.7515-.1316,1.0696-.4253l1.5534-1.4341c.3265-.3013.5121-.7253.5121-1.1697v-14.657c0-.8792-.7127-1.5918-1.5919-1.5918h-79.3392c-.5489,0-1.059.2827-1.3499.748l-2.2657,3.625h.1825v41.5925c0,.8794-.7127,1.592-1.5919,1.592h-26.8814c-.8792,0-1.5919-.7126-1.5919-1.592v-19.2412c0-.3167.0944-.626.2713-.8889l4.4363-6.5908c.7117-1.0574-.046-2.481-1.3206-2.481h-5.9862c-.8792,0-1.5919-.7126-1.5919-1.5918v-48.3901c0-.3198.0964-.6323.2766-.8967l19.8922-29.175c.7205-1.0566-.0363-2.4885-1.3153-2.4885h-11.9774c-.8792,0-1.5919-.7129-1.5919-1.592v-38.7249c0-.8794.7127-1.592,1.5919-1.592h7.9109c1.2138,0,1.981-1.304,1.3916-2.365l-3.041-5.4741c-.1314-.2363-.2003-.5024-.2003-.7729v-3.2798c0-.8792.7127-1.592,1.5919-1.592h38.9319c.6219,0,1.1868.3623,1.4465.9272l5.3433,11.6294c.2596.5652.8246.9272,1.4465.9272.603,0,1.1541-.3406,1.4238-.8799l6.2265-12.4526c.2697-.5393.8209-.8799,1.4238-.8799h49.9016M711.6431,86.8604h28.6987c.8792,0,1.5919-.7129,1.5919-1.592v-2.647c0-.8792-.7127-1.5918-1.5919-1.5918h-27.0444c-.5489,0-1.0591.2827-1.35.748l-1.6543,2.6472c-.6626,1.0603.0997,2.4355,1.35,2.4355M690.8986,120.023h52.1765c.8792,0,1.5919-.7129,1.5919-1.592v-2.8291c0-.8792-.7127-1.5918-1.5919-1.5918h-50.3761c-.5443,0-1.0508.2781-1.343.7373l-1.8004,2.8291c-.6744,1.0596.0869,2.4465,1.343,2.4465M717.383,157.9231c.8792,0,1.5919.7126,1.5919,1.5918v40.0007c0,.8794-.7127,1.592-1.5919,1.592h-18.8643c-.8792,0-1.5919-.7126-1.5919-1.592v-40.0007c0-.8792.7127-1.5918,1.5919-1.5918h18.8643M690.9619,157.9231c.8792,0,1.5919.7126,1.5919,1.5918v40.0007c0,.8794-.7127,1.592-1.5919,1.592h-20.6861c-.8792,0-1.5919-.7126-1.5919-1.592v-40.0007c0-.8792.7127-1.5918,1.5919-1.5918h20.6861M750.9102,27.576h-49.9016c-2.1598,0-4.1017,1.2-5.0677,3.1318l-3.9117,7.8232-3.1823-6.926c-.9216-2.0051-2.9425-3.3005-5.1486-3.3005h-38.9319c-3.1243,0-5.6661,2.5417-5.6661,5.6663v3.2798c0,.9612.2468,1.9131.7137,2.7527l.9917,1.7852h-3.6924c-3.1243,0-5.6661,2.542-5.6661,5.6663v38.7249c0,3.1243,2.5418,5.6663,5.6661,5.6663h7.2804l-17.2461,25.2942c-.6444.9458-.9846,2.0491-.9846,3.1919v48.3901c0,3.1243,2.5418,5.666,5.6661,5.666h1.3232l-1.8326,2.7227c-.6318.9392-.9656,2.033-.9656,3.1638v19.2412c0,3.1243,2.5418,5.6663,5.6661,5.6663h26.8814c1.4067,0,2.6954-.5154,3.6872-1.3672.9917.8518,2.2804,1.3672,3.6871,1.3672h20.6861c1.4504,0,2.7751-.5476,3.7784-1.4473,1.0033.8997,2.3281,1.4473,3.7784,1.4473h18.8643c2.6846,0,4.939-1.8765,5.5204-4.387.6322.2444,1.319.3784,2.0364.3784h9.2023c.5179,2.594,2.8127,4.5552,5.5568,4.5552h59.1328c3.1243,0,5.6661-2.542,5.6661-5.6663v-78.4475c0-2.8474-2.1113-5.2109-4.8506-5.6074l.4463-1.1309c.2625-.6646.3957-1.3647.3957-2.0803v-27.624c0-3.1243-2.5418-5.666-5.6661-5.666h-1.019l1.6254-3.5894c.3348-.7393.5046-1.5256.5046-2.3374v-26.1248c0-3.1243-2.5418-5.6663-5.6661-5.6663h-35.669l1.3582-2.6621c.4048-.7932.619-1.6838.619-2.575v-3.3093c0-3.1243-2.5418-5.666-5.6661-5.666h0Z" style="fill: #1380a2; stroke-width: 0px;"/>
          </g>
          <g>
            <path d="M832.59,204.6026c-2.2783,0-4.1323-1.854-4.1323-4.1323v-51.8037c0-.7515.2051-1.4893.5928-2.1333l6.8696-11.3921.0083-29.9688-1.334-.0581c-2.2783,0-4.1323-1.854-4.1323-4.1323v-47.0913c0-1.3633.6714-2.6372,1.7959-3.4082l30.9878-21.2393c.6914-.4736,1.499-.7236,2.3364-.7236h29.1304c.8389,0,1.6475.251,2.3389.7256l32.2642,22.1484c.9189.6318,1.5342,1.5986,1.728,2.6743v-11.5762c0-2.2783,1.854-4.1323,4.1323-4.1323h16.3994c2.2783,0,4.1323,1.854,4.1323,4.1323v117.1626c0,2.2783-1.854,4.1323-4.1323,4.1323h-16.3994c-2.2783,0-4.1323-1.854-4.1323-4.1323v-57.9375c-.3477,1.9292-2.0391,3.3975-4.0669,3.3975h-.5469l-.0586,41.0566c0,2.2783-1.854,4.1323-4.1323,4.1323h-49.9268v.1167h52.8423c2.2783,0,4.1323,1.854,4.1323,4.1323v45.3711c0,2.2783-1.854,4.1323-4.1323,4.1323h-66.3257c-2.2783,0-4.1323-1.854-4.1323-4.1323v-4.6602l-.083-.061-3.1187,6.9536c-.6646,1.4863-2.1455,2.4468-3.7729,2.4468h-15.1318ZM887.2535,176.3594c-.0322,0-.0581.0259-.0581.0581v2.7334l8.2583.0586.0581-2.792-8.2583-.0581ZM872.3121,126.6158c-.0322,0-.0581.0259-.0581.0581v.3647l19.0088.0581.0581-.4229-19.0088-.0581ZM872.3121,108.7588c-.0322,0-.0581.0259-.0581.0581v.3643l19.0088.0586.0581-.4229-19.0088-.0581ZM861.2272,82.3501l.0029.1055,1.9717-.0015.0581-1.5474-.0669-.0615-1.9658,1.5049ZM898.5592,81.3003c-.0229,0-.0571.0205-.0635.0327l-.0029,1.063,1.4536.0581.0615-.0869-1.4224-1.0518-.0264-.0151ZM875.3116,70.6763c-.0127,0-.0249.0039-.0342.0117l-.4688.3657.0044.1045,10.8828-.001.0615-.0869-.5234-.3833-9.9224-.0107ZM934.629,203.3272c-2.2783,0-4.1323-1.854-4.1323-4.1323v-15.0771c0-1.2959.6196-2.5327,1.6572-3.3091l23.6475-17.6929.0229-127.3662c0-2.2783,1.854-4.1323,4.1323-4.1323h36.625c2.2788,0,4.1328,1.854,4.1328,4.1323v163.4453c0,2.2783-1.854,4.1323-4.1328,4.1323h-61.9526Z" style="fill: #fff; stroke-width: 0px;"/>
            <path d="M894.7123,30.5564c.4234,0,.8368.1284,1.1859.3679l32.2644,22.1492c.5692.3906.9094,1.0369.9094,1.7273v46.1809c0,1.1572-.9381,2.0955-2.0953,2.0955h-.5471c-1.1572,0-2.0953.938-2.0953,2.0952v40.9985c0,1.1572-.9381,2.0955-2.0953,2.0955h-49.9269c-1.1572,0-2.0952.938-2.0952,2.0952s.938,2.0952,2.0952,2.0952h52.8423c1.1572,0,2.0953.9382,2.0953,2.0955v45.3711c0,1.1572-.9381,2.0955-2.0953,2.0955h-66.3257c-1.1572,0-2.0953-.9382-2.0953-2.0955v-4.6604c0-1.3237-1.0582-2.0979-2.1204-2.0981-.7519,0-1.5056.3877-1.8879,1.2434l-3.0905,6.9165c-.3372.7546-1.0865,1.2407-1.913,1.2407h-15.1316c-1.1572,0-2.0953-.9382-2.0953-2.0955v-51.8035c0-.3813.104-.7554.3009-1.0818l6.8687-11.3921c.1969-.3264.3009-.7007.3009-1.0818v-29.9385c0-1.1572-.9381-2.0952-2.0953-2.0952h-1.2757c-1.1572,0-2.0953-.9382-2.0953-2.0955v-47.0911c0-.6909.3407-1.3376.9107-1.7283l30.9878-21.2388c.3488-.2393.7617-.3672,1.1846-.3672h29.1301M874.8452,73.1944h10.8507c2.0237,0,2.8716-2.5845,1.2412-3.7834l-.4958-.3645c-.3598-.2644-.7946-.4072-1.2412-.4072h-9.8883c-.4675,0-.9215.1565-1.2899.4443l-.4666.3645c-1.5704,1.2268-.7029,3.7463,1.2899,3.7463M861.2624,84.4915h1.9394c1.1572,0,2.0953-.938,2.0953-2.0952v-1.4893c0-1.2427-1.0195-2.0991-2.1043-2.0991-.4321,0-.8745.1357-1.2671.4373l-1.9394,1.4893c-1.5876,1.219-.7255,3.7571,1.2761,3.7571M898.5508,84.4915h1.3956c2.02,0,2.8703-2.5767,1.2472-3.7791l-1.3956-1.0337c-.3863-.2861-.8178-.4153-1.2389-.4153-1.0861,0-2.1036.8589-2.1036,2.0991v1.0337c0,1.1572.9381,2.0952,2.0953,2.0952M872.3121,111.2767h18.9506c1.1572,0,2.0953-.938,2.0953-2.0952v-.3645c0-1.1572-.9381-2.0955-2.0953-2.0955h-18.9506c-1.1572,0-2.0952.9382-2.0952,2.0955v.3645c0,1.1572.938,2.0952,2.0952,2.0952M872.3121,129.1336h18.9506c1.1572,0,2.0953-.938,2.0953-2.0952v-.3645c0-1.1572-.9381-2.0952-2.0953-2.0952h-18.9506c-1.1572,0-2.0952.938-2.0952,2.0952v.3645c0,1.1572.938,2.0952,2.0952,2.0952M887.2537,181.2464h8.2002c1.1572,0,2.0953-.938,2.0953-2.0952v-2.7334c0-1.1572-.9381-2.0952-2.0953-2.0952h-8.2002c-1.1572,0-2.0953.938-2.0953,2.0952v2.7334c0,1.1572.9381,2.0952,2.0953,2.0952M996.5818,33.6543c1.1572,0,2.0953.9382,2.0953,2.0955v163.4451c0,1.1572-.9381,2.0952-2.0953,2.0952h-61.9526c-1.1572,0-2.0953-.938-2.0953-2.0952v-15.0771c0-.6602.3113-1.282.8401-1.6775l23.6474-17.6931c.5287-.3958.8401-1.0173.8401-1.6777V35.7498c0-1.1572.9381-2.0955,2.0953-2.0955h36.6251M951.5751,40.3963c1.1572,0,2.0953.9382,2.0953,2.0955v117.1626c0,1.1572-.9381,2.0955-2.0953,2.0955h-16.3993c-1.1572,0-2.0953-.9382-2.0953-2.0955V42.4918c0-1.1572.9381-2.0955,2.0953-2.0955h16.3993M894.7123,26.4822h-29.1301c-1.2512,0-2.4578.374-3.4894,1.0818l-30.9863,21.2378c-1.679,1.1506-2.6816,3.053-2.6816,5.0889v47.0911c0,3.1643,2.3943,5.7798,5.4662,6.1299v27.4487l-6.5844,10.9207c-.5795.9607-.8861,2.0625-.8861,3.1855v51.8035c0,3.4019,2.7676,6.1697,6.1695,6.1697h15.1316c2.4303,0,4.6413-1.4338,5.6328-3.6528l.0534-.1196c1.0469,1.9199,3.0844,3.2258,5.4208,3.2258h66.3257c2.079,0,3.9211-1.0337,5.0394-2.614,1.1226,1.1619,2.6961,1.8853,4.4355,1.8853h61.9526c3.4019,0,6.1695-2.7676,6.1695-6.1694V35.7498c0-3.4019-2.7676-6.1697-6.1695-6.1697h-36.6251c-3.4019,0-6.1695,2.7678-6.1695,6.1697v.9822c-.6871-.2646-1.4329-.4099-2.2122-.4099h-16.3993c-3.4019,0-6.1695,2.7678-6.1695,6.1697v6.2192l-30.8023-21.1455c-1.033-.7087-2.2401-1.0833-3.4917-1.0833h0ZM928.4086,106.9837c.2034-.0486.4027-.1069.5977-.1753v42.9277c-.3855-.3091-.8085-.5725-1.2614-.783.4244-.8364.6637-1.7817.6637-2.7822v-39.1873h0ZM931.324,178.8858v-14.4153c1.0563.8467,2.3959,1.3535,3.8519,1.3535h13.6055l-17.4574,13.0618h0Z" style="fill: #1380a2; stroke-width: 0px;"/>
          </g>
          <g>
            <path d="M1106.1891,203.6915c-3.0322,0-5.499-2.4668-5.499-5.499v-72.8853c0-.7856-.6392-1.4248-1.4248-1.4248h-1.6406c-3.0322,0-5.499-2.4668-5.499-5.499V53.8814c0-1.1377.3457-2.231.9995-3.1621l12.5498-17.8584c1.0278-1.4634,2.71-2.3374,4.499-2.3374h46.6699c3.0322,0,5.499,2.4673,5.499,5.4995v1.6401c0,.7856.6392,1.4248,1.4253,1.4248h32.4336c3.0322,0,5.4995,2.4668,5.4995,5.499v38.6294c0,3.0322-2.4673,5.499-5.4995,5.499h-35.3491c-.7856,0-1.4248.6392-1.4248,1.4248v.3647c0,.7856.6392,1.4248,1.4248,1.4248h33.7095c3.0322,0,5.499,2.4668,5.499,5.499v31.5229c0,3.0322-2.4668,5.499-5.499,5.499h-33.7095c-.7856,0-1.4248.6392-1.4248,1.4248s.6392,1.4248,1.4248,1.4248h33.7095c3.0322,0,5.499,2.4668,5.499,5.499v31.5229c0,3.0322-2.4668,5.499-5.499,5.499h-33.7095c-.7856,0-1.4248.6392-1.4248,1.4253v16.9458c0,3.0322-2.4668,5.499-5.499,5.499h-47.7397ZM1043.6901,203.3272c-3.0322,0-5.4995-2.4668-5.4995-5.499v-57.0327c0-.7856-.6392-1.4248-1.4248-1.4248h-3.0977c-3.0322,0-5.499-2.4673-5.499-5.4995v-58.2358c0-.833.1934-1.6685.5586-2.4155l18.7427-38.3364c.9165-1.8735,2.8555-3.084,4.9404-3.084h32.8237c3.0322,0,5.499,2.4668,5.499,5.499v160.5298c0,3.0322-2.4668,5.499-5.499,5.499h-41.5444Z" style="fill: #fff; stroke-width: 0px;"/>
            <path d="M1156.844,32.5608c1.912,0,3.462,1.55,3.462,3.4619v1.6404c0,1.9119,1.55,3.4619,3.462,3.4619h32.434c1.912,0,3.462,1.55,3.462,3.4619v38.6294c0,1.9119-1.55,3.4619-3.462,3.4619h-35.3494c-1.912,0-3.462,1.55-3.462,3.4619v.3647c0,1.9119,1.55,3.4619,3.462,3.4619h33.7097c1.912,0,3.462,1.55,3.462,3.4619v31.5229c0,1.9119-1.55,3.4619-3.462,3.4619h-33.7097c-1.912,0-3.462,1.55-3.462,3.4619s1.55,3.4622,3.462,3.4622h33.7097c1.912,0,3.462,1.5498,3.462,3.4619v31.5229c0,1.9119-1.55,3.4619-3.462,3.4619h-33.7097c-1.912,0-3.462,1.55-3.462,3.4619v16.9458c0,1.9121-1.55,3.4622-3.462,3.4622h-47.7396c-1.912,0-3.462-1.55-3.462-3.4622v-72.885c0-1.9121-1.55-3.4619-3.462-3.4619h-1.6402c-1.912,0-3.462-1.55-3.462-3.4622V53.8814c0-.7124.2198-1.4075.6294-1.9905l12.549-17.8586c.6483-.9224,1.7051-1.4714,2.8326-1.4714h46.6702M1085.2346,33.8365c1.912,0,3.462,1.55,3.462,3.4619v160.5298c0,1.9121-1.55,3.4619-3.462,3.4619h-41.5448c-1.912,0-3.462-1.5498-3.462-3.4619v-57.033c0-1.9119-1.55-3.4619-3.462-3.4619h-3.0979c-1.912,0-3.462-1.55-3.462-3.4619v-58.2363c0-.5269.1203-1.0471.3518-1.5205l18.7428-38.3367c.5808-1.188,1.7878-1.9414,3.1102-1.9414h32.8238M1156.844,28.4866h-46.6702c-2.4513,0-4.7564,1.1973-6.1659,3.2029l-11.2371,15.9917v-10.3828c0-4.1555-3.3808-7.5361-7.5362-7.5361h-32.8238c-2.8576,0-5.5152,1.6589-6.7703,4.2261l-18.7428,38.3367c-.501,1.0247-.7658,2.1692-.7658,3.3101v58.2363c0,4.1555,3.3807,7.5361,7.5362,7.5361h2.4857v56.4207c0,4.1555,3.3807,7.5361,7.5362,7.5361h41.5448c4.1555,0,7.5362-3.3806,7.5362-7.5361v-73.6843c1.3122,1.1074,3.0066,1.7756,4.854,1.7756h1.028v72.2727c0,4.1555,3.3807,7.5364,7.5362,7.5364h47.7396c4.1555,0,7.5362-3.3809,7.5362-7.5364v-16.3335h33.0974c4.1555,0,7.5362-3.3806,7.5362-7.5361v-31.5229c0-3.0994-1.881-5.7678-4.5611-6.9241,2.6801-1.156,4.5611-3.8245,4.5611-6.9238v-31.5229c0-3.0215-1.7871-5.6333-4.36-6.8337,3.4213-.7114,5.9997-3.7495,5.9997-7.3787v-38.6294c0-4.1555-3.3807-7.5361-7.5362-7.5361h-31.8217v-1.0281c0-4.1555-3.3807-7.5361-7.5362-7.5361h0Z" style="fill: #1380a2; stroke-width: 0px;"/>
          </g>
          <g>
            <path d="M1318.8585,204.2378c-1.939,0-3.5161-1.5771-3.5161-3.5156v-29.6587c0-1.9385,1.5771-3.5156,3.5161-3.5156h3.9546v-9.2393c0-1.9385,1.5771-3.5156,3.5161-3.5156h25.5337c1.27,0,2.4448.688,3.0659,1.7949l3.3516,5.9702,3.333-8.064h-39.8394c-1.3296,0-2.4888-.7417-3.0864-1.833v.8677c0,1.939-1.5771,3.5161-3.5156,3.5161h-13.2217l11.8843,9.0151c.8711.6611,1.3911,1.708,1.3911,2.8013v22.2036c0,1.939-1.5771,3.5161-3.5161,3.5161h-12.3364v5.0479c0,1.9385-1.5771,3.5156-3.5161,3.5156h-39.6797c-1.939,0-3.5161-1.5771-3.5161-3.5156v-4.418l-5.9443,5.834c-.6606.6489-1.5356,1.0068-2.4629,1.0068h-10.3066c-1.939,0-3.5161-1.5771-3.5161-3.5161v-30.9375c0-1.1108.5332-2.168,1.4268-2.8281l10.459-7.7251h-7.0942c-1.9385,0-3.5156-1.5771-3.5156-3.5161v-26.1963c0-1.939,1.5771-3.5161,3.5156-3.5161h17.4385v-1.21h-17.0742c-1.939,0-3.5161-1.5771-3.5161-3.5156V35.4971c0-1.9385,1.5771-3.5156,3.5161-3.5156h79.4028c1.9385,0,3.5156,1.5771,3.5156,3.5156v83.5938c0,1.9385-1.5771,3.5156-3.5156,3.5156h-15.6167v1.21h15.7988c1.9385,0,3.5156,1.5771,3.5156,3.5161v2.4619c.0996-.1836.2158-.3579.3477-.522l7.5718-9.3989h-4.4692c-1.9385,0-3.5156-1.5771-3.5156-3.5156v-29.4766c0-1.939,1.5771-3.5161,3.5156-3.5161h.6753v-3.9546c0-1.9385,1.5771-3.5156,3.5161-3.5156h25.4043c1.2104,0,2.3203.6104,2.9688,1.6323l2.9717,4.6855,3.248-6.6167h-38.4194c-1.939,0-3.5161-1.5771-3.5161-3.5161v-23.4946c0-.8208.2896-1.6206.8154-2.252l13.0635-15.6406c.6689-.8018,1.6528-1.2622,2.6982-1.2622h24.9795c1.939,0,3.5161,1.5771,3.5161,3.5156v2.8618h32.3799c1.939,0,3.5161,1.5771,3.5161,3.5156v54.7881c0,.6235-.1665,1.2378-.4819,1.7764l-13.0356,22.2471c-.6284,1.0723-1.7905,1.7383-3.0337,1.7383h-20.4385v.2988h35.2954c1.9385,0,3.5156,1.5771,3.5156,3.5161v44.8584c0,.4883-.0991.9619-.2939,1.4082l-14.0659,32.1753c-.5601,1.2803-1.8247,2.1074-3.2217,2.1074h-65.3364ZM1290.1969,93.2051v-1.939h-3.2139v1.939h3.2139ZM1262.8653,93.2051v-1.939h-2.668v1.939h2.668ZM1290.1969,71.7037v-1.9385h-3.2139v1.9385h3.2139ZM1262.8653,71.7037v-1.9385h-2.668v1.9385h2.668Z" style="fill: #fff; stroke-width: 0px;"/>
            <path d="M1360.5431,31.4676c.8167,0,1.4788.6621,1.4788,1.479v3.4197c0,.8167.6621,1.4788,1.4788,1.4788h32.9383c.8167,0,1.4788.6621,1.4788,1.4788v54.7883c0,.2627-.0701.5208-.2029.7476l-13.035,22.2458c-.2654.4529-.751.7312-1.2759.7312h-20.9969c-.8167,0-1.4788.6621-1.4788,1.4788v1.4155c0,.8167.6621,1.4788,1.4788,1.4788h35.8537c.8167,0,1.4788.6621,1.4788,1.4788v44.8586c0,.2039-.0422.4055-.1238.5923l-14.0657,32.1748c-.2354.5386-.7673.8865-1.355.8865h-65.3366c-.8167,0-1.4788-.6621-1.4788-1.4788v-29.6584c0-.8167.6621-1.4788,1.4788-1.4788h4.5129c.8167,0,1.4788-.6621,1.4788-1.4788v-9.7971c0-.8167.6621-1.4788,1.4788-1.4788h25.5338c.5347,0,1.0277.2886,1.2895.7549l3.915,6.9734c.285.5078.7868.7551,1.2871.7551.5609,0,1.1198-.311,1.3691-.9141l4.3724-10.5781c.0741-.1792.1122-.3711.1122-.5649v-.7996h-42.4342c-.8167,0-1.4788-.6621-1.4788-1.4788v-19.5005c0-.3376.1154-.665.3272-.9277l8.3026-10.3066c.7793-.9675.0907-2.4065-1.1517-2.4065h-5.6353c-.8167,0-1.4788-.6621-1.4788-1.479v-29.4763c0-.8167.6621-1.4788,1.4788-1.4788h1.2334c.8167,0,1.4788-.6621,1.4788-1.4788v-4.5129c0-.8167.6621-1.4788,1.4788-1.4788h25.4042c.5064,0,.9777.259,1.2489.6868l4.3021,6.7837h1.0932l4.7683-9.7131c.0996-.2029.1513-.4258.1513-.6516,0-.8169-.6621-1.479-1.4788-1.479h-39.3157c-.8167,0-1.4788-.6621-1.4788-1.4788v-23.4949c0-.3464.1217-.6819.3438-.948l13.0612-15.6387c.281-.3364.6967-.531,1.135-.531h24.9793M1314.9897,34.0186c.8167,0,1.4788.6621,1.4788,1.4788v83.5933c0,.8169-.6621,1.4788-1.4788,1.4788h-16.175c-.8167,0-1.4788.6621-1.4788,1.479v2.3264c0,.8169.6621,1.479,1.4788,1.479h16.357c.8167,0,1.4788.6621,1.4788,1.4788v26.1963c0,.8169-.6621,1.479-1.4788,1.479h-17.8358v1.0935l15.2676,11.5818c.3686.2798.5851.7156.5851,1.1782v22.2039c0,.8167-.6621,1.4788-1.4788,1.4788h-12.895c-.8167,0-1.4788.6621-1.4788,1.4788v5.606c0,.8169-.6621,1.479-1.4788,1.479h-39.6797c-.8167,0-1.4788-.6621-1.4788-1.479v-5.748c0-.8904-.7286-1.4817-1.4892-1.4817-.3591,0-.7254.1318-1.0255.4263l-6.8938,6.7659c-.2765.2715-.6484.4233-1.0358.4233h-10.3069c-.8167,0-1.4788-.6621-1.4788-1.4788v-30.9375c0-.4695.2227-.9109.6002-1.1897l11.8221-8.7324c1.1476-.8477.548-2.6682-.8786-2.6682h-8.7892c-.8167,0-1.4788-.6621-1.4788-1.479v-26.1963c0-.8167.6621-1.4788,1.4788-1.4788h17.9967c.8167,0,1.4788-.6621,1.4788-1.479v-2.3264c0-.8169-.6621-1.479-1.4788-1.479h-17.6327c-.8167,0-1.4788-.6619-1.4788-1.4788V35.4974c0-.8167.6621-1.4788,1.4788-1.4788h79.4028M1286.4245,73.741h4.3308c.8168,0,1.4788-.6621,1.4788-1.4788v-3.0552c0-.8169-.6621-1.479-1.4788-1.479h-4.3308c-.8167,0-1.4788.6621-1.4788,1.479v3.0552c0,.8167.6621,1.4788,1.4788,1.4788M1259.6393,73.741h3.7843c.8167,0,1.4788-.6621,1.4788-1.4788v-3.0552c0-.8169-.6621-1.479-1.4788-1.479h-3.7843c-.8167,0-1.4788.6621-1.4788,1.479v3.0552c0,.8167.6621,1.4788,1.4788,1.4788M1286.4245,95.242h4.3308c.8168,0,1.4788-.6621,1.4788-1.4788v-3.0552c0-.8169-.6621-1.479-1.4788-1.479h-4.3308c-.8167,0-1.4788.6621-1.4788,1.479v3.0552c0,.8167.6621,1.4788,1.4788,1.4788M1259.6393,95.242h3.7843c.8167,0,1.4788-.6621,1.4788-1.4788v-3.0552c0-.8169-.6621-1.479-1.4788-1.479h-3.7843c-.8167,0-1.4788.6621-1.4788,1.479v3.0552c0,.8167.6621,1.4788,1.4788,1.4788M1360.5431,27.3934h-24.9793c-1.6505,0-3.204.7266-4.2622,1.9937l-10.7588,12.8818v-6.7715c0-3.062-2.4911-5.553-5.5531-5.553h-79.4028c-3.062,0-5.5531,2.491-5.5531,5.553v83.5933c0,1.5474.6362,2.949,1.6608,3.957-1.2358,1.0193-2.0248,2.5618-2.0248,4.2849v26.1963c0,3.062,2.4911,5.5532,5.553,5.5532h.907l-5.482,4.0493c-1.4112,1.0422-2.2537,2.7122-2.2537,4.4668v30.9375c0,3.062,2.4911,5.553,5.5531,5.553h10.3069c1.4641,0,2.8457-.5647,3.8902-1.5903l2.4957-2.4495c.2154,2.8667,2.6166,5.1331,5.5373,5.1331h39.6797c3.062,0,5.5531-2.4912,5.5531-5.5532v-3.0105h10.2996c.5545,0,1.0901-.0815,1.5957-.2336v4.3374c0,3.062,2.4911,5.553,5.553,5.553h65.3366c2.2071,0,4.2043-1.3066,5.0882-3.3291l14.0655-32.1746c.3084-.7051.465-1.4536.465-2.2241v-44.8586c0-3.062-2.4911-5.553-5.5531-5.553h-9.4623l12.4317-21.2161c.4985-.8511.762-1.8218.762-2.8074v-54.7883c0-3.062-2.4911-5.553-5.5531-5.553h-30.3429v-.8242c0-3.062-2.4911-5.5532-5.553-5.5532h0ZM1320.5428,81.5618v-4.2856c.1907.072.3865.134.5865.1851-.2283.6069-.3532,1.2639-.3532,1.9497v2.0864c-.0786.0198-.156.0413-.2332.0645h0ZM1357.1814,77.6331h.4715l-.2057.4192-.2658-.4192h0ZM1318.797,123.1294c.4958-.4675.9057-1.0251,1.2035-1.6462.6583.2754,1.3804.4277,2.1375.4277h.2118l-2.2725,2.821c-.325-.6106-.7609-1.1538-1.2803-1.6025h0ZM1308.0065,159.0821h7.1653c2.0759,0,3.8895-1.145,4.8422-2.8369.3426.1147.7001.197,1.0686.2432-.1986.5706-.3065,1.1831-.3065,1.8206v7.2017h-1.9175c-.8468,0-1.65.1907-2.3689.531-.3626-.616-.8435-1.1638-1.4227-1.6035l-7.0605-5.356h0ZM1357.2331,156.5311h1.3344l-.5658,1.3689-.7685-1.3689h0Z" style="fill: #1380a2; stroke-width: 0px;"/>
          </g>
          <g>
            <path d="M1522.1925,204.7852c-3.4341,0-6.228-2.7939-6.228-6.2285v-7.106c0-1.1875-.9663-2.1538-2.1543-2.1538h-20.9536c-3.4341,0-6.228-2.7939-6.228-6.228v-32.9805c0-3.4341,2.7939-6.228,6.228-6.228h20.9536c1.188,0,2.1543-.9663,2.1543-2.1538s-.9663-2.1543-2.1543-2.1543h-20.5898c-3.4341,0-6.228-2.7939-6.228-6.228v-30.0645c0-3.4346,2.7939-6.2285,6.228-6.2285h23.8701c1.1875,0,2.1538-.9663,2.1538-2.1538v-58.1255c0-3.4346,2.7939-6.2285,6.228-6.2285h37.8999c3.4341,0,6.2285,2.7939,6.2285,6.2285v58.1255c0,1.1875.9658,2.1538,2.1533,2.1538h24.2344c3.4346,0,6.2285,2.7939,6.2285,6.2285v30.0645c0,3.4341-2.7939,6.228-6.2285,6.228h-21.1367c-1.1875,0-2.1543.9663-2.1543,2.1543s.9668,2.1538,2.1543,2.1538h22.0479c3.4346,0,6.2285,2.7939,6.2285,6.228v32.9805c0,3.4341-2.7939,6.228-6.2285,6.228h-22.0479c-1.1875,0-2.1543.9663-2.1543,2.1538v7.106c0,3.4346-2.7939,6.2285-6.2275,6.2285h-44.2773ZM1442.9303,203.3272c-3.4346,0-6.2285-2.7939-6.2285-6.228v-55.5747c0-1.1875-.9663-2.1538-2.1538-2.1538h-.1821c-3.4341,0-6.228-2.7939-6.228-6.2285v-57.3462c0-.9355.2153-1.8745.623-2.7153l18.2964-37.7686c1.0342-2.1338,3.2344-3.5127,5.6055-3.5127h26.5273c3.4341,0,6.228,2.7939,6.228,6.228v159.0718c0,3.4341-2.7939,6.228-6.228,6.228h-36.2598ZM1576.6739,96.5503c-3.4346,0-6.2285-2.7939-6.2285-6.228v-48.6504c0-3.4341,2.7939-6.228,6.2285-6.228h19.3145c3.4346,0,6.2285,2.7939,6.2285,6.228v39.0713c0,1.4966-.5391,2.9443-1.5195,4.0762l-8.292,9.5796c-1.1855,1.3677-2.9014,2.1514-4.709,2.1514h-11.0225ZM1501.149,96.5503c-1.8086,0-3.5249-.7842-4.7085-2.1519l-8.293-9.5786c-.9795-1.1323-1.519-2.5796-1.519-4.0767v-39.0713c0-3.4341,2.7939-6.228,6.228-6.228h19.314c3.4346,0,6.2285,2.7939,6.2285,6.228v48.6504c0,3.4341-2.7939,6.228-6.2285,6.228h-11.0215Z" style="fill: #fff; stroke-width: 0px;"/>
            <path d="M1563.3722,32.5608c2.3147,0,4.1911,1.8765,4.1911,4.1912v58.1255c0,2.3147,1.8764,4.1909,4.1911,4.1909h24.2339c2.3147,0,4.1911,1.8765,4.1911,4.1912v30.0647c0,2.3147-1.8764,4.1912-4.1911,4.1912h-21.1364c-2.3147,0-4.1911,1.8762-4.1911,4.1909s1.8764,4.1912,4.1911,4.1912h22.0481c2.3147,0,4.1911,1.8765,4.1911,4.1912v32.98c0,2.3147-1.8764,4.1912-4.1911,4.1912h-22.0481c-2.3147,0-4.1911,1.8762-4.1911,4.1909v7.106c0,2.3147-1.8764,4.1912-4.1911,4.1912h-44.2771c-2.3147,0-4.1911-1.8765-4.1911-4.1912v-7.106c0-2.3147-1.8764-4.1909-4.1911-4.1909h-20.9539c-2.3147,0-4.1911-1.8765-4.1911-4.1912v-32.98c0-2.3147,1.8764-4.1912,4.1911-4.1912h20.9539c2.3147,0,4.1911-1.8765,4.1911-4.1912s-1.8764-4.1909-4.1911-4.1909h-20.5898c-2.3147,0-4.1911-1.8765-4.1911-4.1912v-30.0647c0-2.3147,1.8764-4.1912,4.1911-4.1912h23.8698c2.3147,0,4.1911-1.8762,4.1911-4.1909v-58.1255c0-2.3147,1.8764-4.1912,4.1911-4.1912h37.8997M1479.1901,33.8365c2.3147,0,4.1911,1.8765,4.1911,4.1912v159.0715c0,2.3147-1.8764,4.1909-4.1911,4.1909h-36.26c-2.3147,0-4.1911-1.8762-4.1911-4.1909v-55.5747c0-2.3147-1.8764-4.1912-4.1911-4.1912h-.182c-2.3147,0-4.1911-1.8765-4.1911-4.1912v-57.3462c0-.6331.1434-1.2576.4193-1.8274l18.2968-37.7683c.7003-1.4456,2.1654-2.3638,3.7718-2.3638h26.5274M1595.9883,37.481c2.3147,0,4.1911,1.8765,4.1911,4.1912v39.071c0,1.0076-.3629,1.9812-1.0223,2.7429l-8.2921,9.5791c-.7961.9197-1.9524,1.4482-3.1688,1.4482h-11.022c-2.3147,0-4.1911-1.8765-4.1911-4.1912v-48.6501c0-2.3147,1.8764-4.1912,4.1911-4.1912h19.3142M1512.1707,37.481c2.3147,0,4.1911,1.8765,4.1911,4.1912v48.6501c0,2.3147-1.8764,4.1912-4.1911,4.1912h-11.0216c-1.2163,0-2.3726-.5286-3.1687-1.448l-8.2926-9.5793c-.6594-.7617-1.0224-1.7356-1.0224-2.7429v-39.071c0-2.3147,1.8764-4.1912,4.1911-4.1912h19.3142M1563.3722,28.4866h-37.8997c-4.0387,0-7.4102,2.9119-8.1254,6.7463-1.4176-1.1418-3.2187-1.8262-5.1764-1.8262h-19.3142c-2.222,0-4.2421.8813-5.7289,2.313-1.0011-3.4382-4.1805-5.9575-7.9375-5.9575h-26.5274c-3.1467,0-6.0664,1.8298-7.4384,4.6616l-18.2968,37.7683c-.5411,1.1174-.827,2.3633-.827,3.6038v57.3462c0,4.5576,3.7078,8.2654,8.2653,8.2654h.182c.0644,0,.1169.0525.1169.1169v55.5747c0,4.5574,3.7078,8.2651,8.2653,8.2651h36.26c4.5575,0,8.2653-3.7078,8.2653-8.2651v-7.7788c1.4497,1.2542,3.3382,2.0137,5.4011,2.0137h20.9539c.0644,0,.1168.0522.1168.1167v7.106c0,4.5576,3.7078,8.2654,8.2653,8.2654h44.2771c4.5575,0,8.2653-3.7078,8.2653-8.2654v-7.106c0-.0645.0524-.1167.1169-.1167h22.0481c4.5575,0,8.2653-3.7078,8.2653-8.2654v-32.98c0-4.5576-3.7078-8.2654-8.2653-8.2654h-22.0481c-.0645,0-.1169-.0525-.1169-.1169s.0524-.1167.1169-.1167h21.1364c4.5575,0,8.2653-3.7078,8.2653-8.2654v-30.0647c0-4.5576-3.7078-8.2654-8.2653-8.2654h-1.4045l7.6537-8.8416c1.3001-1.5017,2.0161-3.4229,2.0161-5.4094v-39.071c0-4.5576-3.7078-8.2654-8.2653-8.2654h-19.3142c-1.9577,0-3.7589.6843-5.1765,1.8262-.7152-3.8345-4.0867-6.7463-8.1254-6.7463h0ZM1487.4554,97.3423v-10.2102l6.8059,7.8621h-1.0407c-2.2401,0-4.275.896-5.7652,2.3481h0ZM1487.4554,143.837v-4.5955c1.4902,1.4524,3.5251,2.3481,5.7652,2.3481h20.5898c.0644,0,.1168.0522.1168.1167s-.0524.1169-.1168.1169h-20.9539c-2.0629,0-3.9514.7595-5.4011,2.0137h0Z" style="fill: #1380a2; stroke-width: 0px;"/>
          </g>
          <g>
            <path d="M1655.3536,200.4117c-4.0557,0-7.3545-3.2988-7.3545-7.354v-33.4614c0-4.0552,3.2988-7.354,7.3545-7.354h44.7578c4.0557,0,7.3545,3.2988,7.3545,7.354v33.4614c0,4.0552-3.2988,7.354-7.3545,7.354h-44.7578ZM1654.2599,145.566c-4.0557,0-7.3545-3.2993-7.3545-7.3545V43.3448c0-4.0552,3.2988-7.3545,7.3545-7.3545h50.4072c4.0557,0,7.3545,3.2993,7.3545,7.3545v75.8169c0,1.5811-.5225,3.1484-1.4707,4.4126l-14.2881,19.0498c-1.3809,1.8423-3.5801,2.9419-5.8828,2.9419h-36.1201Z" style="fill: #fff; stroke-width: 0px;"/>
            <path d="M1704.6674,38.0276c2.9365,0,5.317,2.3804,5.317,5.3169v75.8171c0,1.1504-.3731,2.27-1.0634,3.1902l-14.2878,19.05c-1.0042,1.3389-2.58,2.1267-4.2536,2.1267h-36.1196c-2.9365,0-5.317-2.3804-5.317-5.3169V43.3445c0-2.9365,2.3805-5.3169,5.317-5.3169h50.4073M1700.1117,154.2791c2.9365,0,5.317,2.3806,5.317,5.3171v33.4614c0,2.9365-2.3805,5.3171-5.317,5.3171h-44.7585c-2.9365,0-5.3171-2.3806-5.3171-5.3171v-33.4614c0-2.9365,2.3806-5.3171,5.3171-5.3171h44.7585M1704.6674,33.9534h-50.4073c-5.1783,0-9.3913,4.2129-9.3913,9.3911v94.8672c0,5.1782,4.2129,9.3911,9.3913,9.3911h36.1196c2.9403,0,5.7489-1.4043,7.513-3.7563l14.2877-19.05c1.2112-1.6145,1.8783-3.6157,1.8783-5.6348V43.3445c0-5.1782-4.2129-9.3911-9.3913-9.3911h0ZM1700.1117,150.2049h-44.7585c-5.1784,0-9.3913,4.2129-9.3913,9.3914v33.4614c0,5.1785,4.2129,9.3914,9.3913,9.3914h44.7585c5.1783,0,9.3913-4.2129,9.3913-9.3914v-33.4614c0-5.1785-4.2129-9.3914-9.3913-9.3914h0Z" style="fill: #1380a2; stroke-width: 0px;"/>
          </g>
        </g>
      </g>
    </g>
  </g>
</svg>