<?xml version="1.0" encoding="UTF-8"?>
<svg id="_圖層_2" data-name="圖層 2" xmlns="http://www.w3.org/2000/svg" xmlns:xlink="http://www.w3.org/1999/xlink" viewBox="0 0 813.8224 81.4841">
  <defs>
    <filter id="drop-shadow-1" filterUnits="userSpaceOnUse">
      <feOffset dx="0" dy="7.1299"/>
      <feGaussianBlur result="blur" stdDeviation="0"/>
      <feFlood flood-color="#0e4a72" flood-opacity="1"/>
      <feComposite in2="blur" operator="in"/>
      <feComposite in="SourceGraphic"/>
    </filter>
  </defs>
  <g id="_圖層_3" data-name="圖層 3">
    <g>
      <rect y="0" width="813.8224" height="74.3542" rx="36.0233" ry="36.0233" style="fill: #3098ef; filter: url(#drop-shadow-1); stroke-width: 0px;"/>
      <g>
        <path d="M61.6502,27.4987c1.8638-1.2427,3.417-2.5737,4.6147-3.9937h-11.4922v-3.6387h16.2847v3.062c-1.5088,2.8843-3.772,5.3691-6.8779,7.499h5.1475v11.1372h-9.895l-.666,3.9937h10.8271c0,5.3691-.2217,8.9634-.6655,10.7383-.5327,1.7749-2.707,2.751-6.5674,2.9287-1.5972,0-3.1504-.0889-4.7476-.1777l-1.0205-3.6831c1.5972.0889,3.1943.1777,4.8809.1777,2.2188,0,3.5054-.3994,3.8604-1.1982.2661-.8872.4438-2.6177.4438-5.2803h-11.0488l1.5083-11.0928h9.4072v-3.9053h-8.5195c-1.0649.3994-2.1743.7988-3.3281,1.1982l-2.5732-3.3281c1.5972-.4878,3.106-.9761,4.4814-1.5083.9316-.355,1.8193-.7544,2.6182-1.1094-1.2871-1.0205-2.7959-2.0854-4.4819-3.1504l3.106-1.9526c1.8638,1.1538,3.417,2.2632,4.7036,3.2837ZM85.6116,20.1774c-1.0649,1.1978-2.0854,2.1743-3.1504,2.9727-.6216.4438-1.2871.8877-2.0859,1.3315.6216.5322,1.3315,1.0205,2.0415,1.4639.8872-.4434,1.7749-.9761,2.6177-1.5527,1.0649-.7988,2.0415-1.7305,2.9287-2.8398l2.9731,1.8193c-1.1094,1.3755-2.2188,2.4849-3.3726,3.3721-.5322.3994-1.1094.7988-1.7305,1.1982,1.9971,1.0649,4.2153,1.9966,6.6113,2.8398l-2.7954,3.3276c-1.4199-.5767-2.751-1.1533-3.9932-1.7749v3.1504c0,.7988.5322,1.1982,1.686,1.1982h2.2627v3.417h-3.3721c-2.751,0-4.1265-1.2871-4.1265-3.772v-2.3071h-5.458c0,1.4639-.3105,2.751-.8872,3.9048-.6216,1.1533-1.731,2.2627-3.2393,3.2832l-2.8843-2.5732c1.4199-1.1538,2.3516-2.2188,2.8398-3.2393.355-1.0205.5767-2.6182.5767-4.8369h9.3628c-4.6592-2.751-8.1201-5.9458-10.3389-9.5845l3.3276-1.8633c.666,1.0649,1.4644,2.041,2.3965,3.0171.7544-.355,1.4644-.7988,2.1743-1.2866.9761-.71,1.8633-1.5088,2.7065-2.4849l2.9287,1.8193ZM87.7415,42.0529v3.5498c-.8433,2.4404-2.0854,4.5703-3.7275,6.4341,2.6626,1.5088,5.0142,2.9731,7.144,4.437l-2.8843,2.9287c-1.9521-1.5527-4.3042-3.1504-7.0107-4.748-2.4849,1.9082-5.458,3.4614-9.0078,4.6592l-1.5527-3.6826c2.6621-.8433,4.9253-1.9082,6.7891-3.1504-1.7749-.9766-3.6831-1.9971-5.6797-2.9731l2.5293-2.4404c2.1299.9761,4.1265,1.9966,6.0786,3.0171,1.2871-1.3311,2.3076-2.751,3.1064-4.3037h-11.6704v-3.7275h15.8857Z" style="fill: #fff; stroke-width: 0px;"/>
        <path d="M118.2303,40.0119c-1.2427.6655-2.4404,1.2866-3.6831,1.9077v12.2026c0,3.1948-1.5088,4.8364-4.4814,4.8364h-3.6387l-.9316-4.082c1.0649.1333,2.1299.2217,3.106.2217,1.1094,0,1.686-.6655,1.686-1.9966v-9.2739c-1.5972.6211-3.1948,1.2427-4.792,1.8193l-1.0649-4.3042c1.9966-.4883,3.9492-1.1094,5.8569-1.8193v-9.1851h-4.9697v-4.0825h4.9697v-7.2769h4.2598v7.2769h3.5498v4.0825h-3.5498v7.3657c1.2427-.6211,2.4849-1.2866,3.6831-1.9521v4.2598ZM144.055,28.5637h-3.106v1.3755h-7.499v2.4404h9.0522v15.708h-9.0522v2.4404h10.9155v3.7275h-10.9155v5.1025h-3.9492v-5.1025h-11.1372v-3.7275h11.1372v-2.4404h-9.0962v-15.708h9.0962v-2.4404h-7.6763v-1.686h-2.8843v-8.3423h25.1147v8.6528ZM129.5008,26.3893v-2.6621h-6.5229v2.6621h6.5229ZM129.5008,38.6364v-2.7954h-5.2803v2.7954h5.2803ZM129.5008,41.8312h-5.2803v2.7954h5.2803v-2.7954ZM140.0169,26.3893v-2.6621h-6.5669v2.6621h6.5669ZM133.45,38.6364h5.1914v-2.7954h-5.1914v2.7954ZM138.6414,41.8312h-5.1914v2.7954h5.1914v-2.7954Z" style="fill: #fff; stroke-width: 0px;"/>
        <path d="M158.9246,40.633l-1.3755-4.4814c4.6147-5.1475,8.0312-11.1377,10.2056-17.9712l3.9492,1.8638c-1.1538,3.4609-2.6177,6.7891-4.4814,9.895v29.4634h-4.2153v-23.3843c-1.2871,1.5972-2.6626,3.106-4.0825,4.6147ZM172.5472,36.5949l-3.6387-2.2627c3.3281-4.9253,5.6797-10.2061,7.0552-15.8857l3.9492.8433c-.3994,1.4644-.7988,2.8843-1.2422,4.2153h18.6362v2.751c-.71,2.6626-1.5527,5.3252-2.6182,7.9873l-4.0376-1.1538c.8872-1.5972,1.686-3.4609,2.3071-5.502h-15.752c-1.3311,3.2837-2.8843,6.2563-4.6592,9.0073ZM179.0257,37.6154c-1.5532,6.1235-3.5498,11.4482-6.0347,16.063l-3.9492-1.4199c2.3516-4.1265,4.437-9.3623,6.2119-15.7075l3.772,1.0645ZM176.6292,59.092l-.9316-3.9937c1.8193.1777,3.5498.3105,5.1914.3105,1.0649,0,1.5977-.5767,1.5977-1.7305v-22.8516h4.082v23.9165c0,2.8843-1.4199,4.3486-4.2598,4.3486h-5.6797ZM198.4163,52.7468l-3.6831,1.686c-1.686-6.4341-3.5498-12.1138-5.5908-17.0835l3.7275-1.2422c2.1299,5.1914,3.9932,10.7378,5.5464,16.6396Z" style="fill: #fff; stroke-width: 0px;"/>
        <path d="M227.7513,56.6515h-4.0376v-2.3076h-7.0112v3.5942h-4.0376V25.7682h4.2153c.7988-2.396,1.4199-4.8364,1.7749-7.4102l4.2153.5767c-.4438,2.4404-1.1094,4.7036-1.9521,6.8335h6.833v30.8833ZM223.7137,37.9265v-8.1646h-7.0112v8.1646h7.0112ZM223.7137,50.4391v-8.7412h-7.0112v8.7412h7.0112ZM249.9822,54.1223c-.4438,3.1948-2.5737,4.792-6.3452,4.792-.8877,0-2.4849-.0884-4.7036-.2217l-1.0205-3.8604c1.9521.0889,3.6382.1777,5.0581.1777,1.7754,0,2.7959-.9321,3.062-2.7959.2661-2.2183.3994-9.6729.4878-22.3193h-11.1372c-1.2427,2.6626-2.6626,5.103-4.3486,7.3218l-2.5293-3.3281c2.9287-4.2598,4.9697-9.4512,6.0347-15.5747l4.1709.5322c-.4434,2.4849-1.0645,4.7925-1.7744,6.9668h13.7109c0,15.3086-.2217,24.7598-.6655,28.3096ZM242.4832,45.9577l-3.3281,2.3516c-1.686-2.9282-3.9937-6.1675-6.8335-9.7617l3.417-2.1299c2.9287,3.6387,5.1914,6.7891,6.7446,9.54Z" style="fill: #fff; stroke-width: 0px;"/>
        <path d="M279.0506,18.6242c3.5054,2.1299,7.2769,4.792,11.3594,7.8984l-2.4404,3.2393c-1.5532-1.2427-2.9731-2.3965-4.2598-3.3726v2.6182h-10.561v-1.6421c-1.9966,1.6421-4.2153,3.2837-6.6558,4.9258l-2.4404-3.417c4.9697-3.106,9.1406-6.5225,12.4688-10.25h2.5293ZM288.014,59.2253h-3.9492v-1.5532h-8.3423v1.5977h-3.8159v-12.2471c-.8433,4.6147-2.3516,8.7412-4.5259,12.291l-3.2837-2.9282c2.8843-4.3931,4.3486-10.0283,4.3931-16.9507v-8.2974h19.0801v13.1343h-15.2642c-.0889.8872-.2217,1.7305-.355,2.5293h16.063v12.4243ZM272.5721,39.4348c0,.6216-.0444,1.1982-.0444,1.8193h11.0044v-2.1743h-10.96v.355ZM283.5321,34.1989h-10.96v2.1299h10.96v-2.1299ZM283.0443,25.9015c-1.9082-1.4644-3.5498-2.6182-4.8813-3.4614-1.0205,1.1538-2.1299,2.3076-3.3721,3.4614h8.2534ZM284.0648,54.3884v-4.3042h-8.3423v4.3042h8.3423ZM292.7615,58.9587l-.9761-4.082c2.1299.1333,4.1709.2217,6.1235.2217,1.0649,0,1.5972-.5322,1.5972-1.5972V18.6242h4.1709v35.9419c0,2.9282-1.4639,4.3926-4.3037,4.3926h-6.6118ZM295.8675,21.5973v28.3984h-4.0376v-28.3984h4.0376Z" style="fill: #fff; stroke-width: 0px;"/>
        <path d="M325.7352,49.0192c-1.0205,3.5054-2.4404,6.5229-4.2598,9.0967l-3.6382-2.2632c1.7749-2.396,3.0171-4.9253,3.8159-7.6763l4.082.8428ZM320.8099,24.4372v-3.5498h14.6431c-.355-.7544-.71-1.4644-1.0649-2.0854l4.5703-.71c.355.8428.7544,1.7744,1.1094,2.7954h15.353v3.5498h-7.0552l-1.2871,2.6621h10.4277v3.6387h-38.7817v-3.6387h10.0728l-1.0649-2.6621h-6.9224ZM352.8914,32.6017v13.8442h-29.5522v-13.8442h29.5522ZM348.765,38.0148v-2.1738h-21.2988v2.1738h21.2988ZM348.765,41.0324h-21.2988v2.2188h21.2988v-2.2188ZM333.5003,58.6926c-3.4165,0-5.1025-1.5527-5.1025-4.5703v-5.6797h4.2598v4.792c0,1.1094.6655,1.6865,2.041,1.6865h8.8301c.7988,0,1.3755-.1777,1.6865-.4883.4434-.3994.7539-1.5527.9316-3.5054l3.9937,1.2866c-.355,3.1064-.9766,5.0142-1.9526,5.6357-.8428.5322-2.1299.8428-3.8604.8428h-10.8271ZM342.6859,27.0993l1.2866-2.6621h-11.8477l1.0649,2.6621h9.4961ZM343.2181,51.3268l-3.5054,2.4404c-1.0205-1.4644-2.396-3.106-4.1265-4.8809l3.5938-2.2632c1.7754,1.7749,3.1064,3.3281,4.0381,4.7036ZM358.6155,55.0983l-3.5054,2.4404c-1.3755-2.396-3.1948-5.0142-5.5024-7.854l3.417-2.1299c2.4404,2.8843,4.3037,5.4136,5.5908,7.5435Z" style="fill: #fff; stroke-width: 0px;"/>
        <path d="M393.3197,37.5715c1.4199,1.4639,2.751,3.0615,3.9937,4.7476l-2.9287,2.396c-1.1538-1.686-2.4404-3.2388-3.8604-4.7476-1.5977-1.686-3.2837-3.2393-5.103-4.6592l2.5293-2.3071c1.8638,1.3311,3.6831,2.8398,5.3691,4.5703Z" style="fill: #fff; stroke-width: 0px;"/>
        <path d="M427.0477,59.3137l-3.1504-2.8398c2.751-5.6797,4.1265-12.9565,4.1709-21.8755v-14.6875h34.522v11.3149h-30.2622v4.0381h7.2773v-3.0615h4.082v3.0615h7.6763v-3.0171h4.0825v3.0171h7.0996v3.7275h-7.0996v3.6382h8.4751v3.8164h-4.3042l2.396,2.3516c-1.5527,2.041-3.2388,3.6831-5.1025,4.9253,2.4404,1.1094,5.1025,1.7749,8.0312,2.041l-.9316,3.8164c-7.6768-.666-13.8442-4.2598-18.5479-10.7827l2.9731-1.9966c1.4644,1.8633,3.106,3.4609,4.8809,4.792,1.8638-1.0649,3.6831-2.7954,5.3691-5.147h-18.5479v8.3418c2.4849-.6211,4.6592-1.2866,6.5229-2.0854l.7544,3.8604c-3.417,1.1094-7.499,2.0854-12.2026,2.9287l-1.1538-3.6831c1.3755-.5322,2.0854-1.4644,2.0854-2.8398v-6.5225h-4.8809c-.8872,4.7031-2.2627,9.0073-4.2153,12.8677ZM431.8402,42.6296h7.7651v-3.6382h-7.4546c-.0889,1.2422-.1777,2.4849-.3105,3.6382ZM432.328,23.7717v3.7271h26.0024v-3.7271h-26.0024ZM451.3636,42.6296v-3.6382h-7.6763v3.6382h7.6763Z" style="fill: #fff; stroke-width: 0px;"/>
        <path d="M483.095,34.9533v-10.0728h-5.3247v-4.0376h14.8203v4.0376h-5.2358v10.0728h4.4814v4.082h-4.4814v9.585c1.8193-.71,3.5942-1.5088,5.3247-2.3521v4.0825c-4.437,2.041-9.1406,3.7715-14.1992,5.1914l-.9761-4.0381c1.9082-.3994,3.7715-.8872,5.5908-1.4199v-11.0488h-4.748v-4.082h4.748ZM515.221,19.8664v25.248h-4.8813v8.4312c0,.6655.2666,1.0649.8433,1.1978h1.8193c.6211-.0889,1.0205-.71,1.1094-1.8193.0889-1.1978.1772-2.9282.1772-5.2358l3.6831,1.4199c0,4.2598-.3105,6.8779-.8877,7.854-.6211.8877-1.9077,1.4199-3.9048,1.5977h-2.1299c-3.106,0-4.6587-1.376-4.6587-4.127v-9.3184h-3.3281c-.4883,6.3896-3.6387,11.0488-9.4956,13.9775l-2.1743-3.5054c4.7031-2.0854,7.2769-5.5908,7.7207-10.4722h-4.792v-25.248h20.8994ZM511.1829,27.0993v-3.6387h-12.8237v3.6387h12.8237ZM511.1829,34.2878v-3.8604h-12.8237v3.8604h12.8237ZM511.1829,37.6154h-12.8237v3.9937h12.8237v-3.9937Z" style="fill: #fff; stroke-width: 0px;"/>
        <path d="M531.6878,40.633l-1.3755-4.4814c4.6147-5.1475,8.0317-11.1377,10.2056-17.9712l3.9492,1.8638c-1.1533,3.4609-2.6177,6.7891-4.4814,9.895v29.4634h-4.2153v-23.3843c-1.2871,1.5972-2.6626,3.106-4.0825,4.6147ZM545.3104,36.5949l-3.6387-2.2627c3.3281-4.9253,5.6797-10.2061,7.0552-15.8857l3.9492.8433c-.3994,1.4644-.7988,2.8843-1.2422,4.2153h18.6362v2.751c-.71,2.6626-1.5532,5.3252-2.6177,7.9873l-4.0381-1.1538c.8872-1.5972,1.686-3.4609,2.3071-5.502h-15.752c-1.3315,3.2837-2.8843,6.2563-4.6592,9.0073ZM551.7889,37.6154c-1.5532,6.1235-3.5498,11.4482-6.0347,16.063l-3.9492-1.4199c2.3516-4.1265,4.437-9.3623,6.2119-15.7075l3.772,1.0645ZM549.3924,59.092l-.9316-3.9937c1.8193.1777,3.5498.3105,5.1914.3105,1.0649,0,1.5977-.5767,1.5977-1.7305v-22.8516h4.082v23.9165c0,2.8843-1.4199,4.3486-4.2598,4.3486h-5.6797ZM571.1795,52.7468l-3.6831,1.686c-1.686-6.4341-3.5498-12.1138-5.5908-17.0835l3.7275-1.2422c2.1299,5.1914,3.9932,10.7378,5.5464,16.6396Z" style="fill: #fff; stroke-width: 0px;"/>
        <path d="M600.5145,56.6515h-4.0376v-2.3076h-7.0107v3.5942h-4.0381V25.7682h4.2153c.7988-2.396,1.4199-4.8364,1.7749-7.4102l4.2153.5767c-.4438,2.4404-1.1094,4.7036-1.9521,6.8335h6.833v30.8833ZM596.4769,37.9265v-8.1646h-7.0107v8.1646h7.0107ZM596.4769,50.4391v-8.7412h-7.0107v8.7412h7.0107ZM622.7454,54.1223c-.4438,3.1948-2.5737,4.792-6.3452,4.792-.8877,0-2.4849-.0884-4.7036-.2217l-1.0205-3.8604c1.9521.0889,3.6387.1777,5.0586.1777,1.7744,0,2.7954-.9321,3.0615-2.7959.2661-2.2183.3994-9.6729.4883-22.3193h-11.1377c-1.2427,2.6626-2.6626,5.103-4.3486,7.3218l-2.5293-3.3281c2.9287-4.2598,4.9697-9.4512,6.0347-15.5747l4.1714.5322c-.4438,2.4849-1.0654,4.7925-1.7754,6.9668h13.7114c0,15.3086-.2222,24.7598-.6655,28.3096ZM615.2464,45.9577l-3.3281,2.3516c-1.686-2.9282-3.9932-6.1675-6.833-9.7617l3.4165-2.1299c2.9287,3.6387,5.1914,6.7891,6.7446,9.54Z" style="fill: #fff; stroke-width: 0px;"/>
        <path d="M654.5653,59.0475l-.9761-4.082c2.3071.1328,4.4814.2217,6.5225.2217,1.1094,0,1.6865-.6655,1.6865-1.9966v-22.8965h-.7988c-4.3042,9.1406-11.5811,16.6841-21.8311,22.5415l-2.2188-3.5942c9.0962-4.9253,15.708-11.2266,19.79-18.9473h-18.9473v-4.0381h24.0059v-7.7651h4.2153v7.7651h10.7827v4.0381h-10.7827v23.9614c0,3.1948-1.5088,4.792-4.4375,4.792h-7.0107Z" style="fill: #fff; stroke-width: 0px;"/>
        <path d="M700.8509,21.1091v-2.7065h4.1265v2.7065h4.9253v3.7715h-4.9253v2.4409h-4.1265v-2.4409h-9.2739v-3.7715h9.2739ZM727.6961,28.4304v3.6387h-14.7314v11.6699h16.6396v3.6387h-16.6396v3.2837h14.4209v3.7271h-14.4209v5.0142h-4.127v-5.0142h-14.4209v-3.7271h14.4209v-3.2837h-16.6396v-3.6387h16.6396v-11.6699h-14.5986v-3.6387h33.457ZM701.7381,33.2228v2.8843h4.5259v3.5054h-4.5259v2.9287h-4.082v-2.9287h-5.103v-3.5054h5.103v-2.8843h4.082ZM720.9515,18.4025v2.7065h9.2295v3.7715h-9.2295v2.4409h-4.1265v-2.4409h-4.9697v-3.7715h4.9697v-2.7065h4.1265ZM724.1019,33.2228v2.8843h5.1475v3.5054h-5.1475v2.9287h-4.082v-2.9287h-4.5264v-3.5054h4.5264v-2.8843h4.082Z" style="fill: #fff; stroke-width: 0px;"/>
        <path d="M766.4827,49.3742c.6211.5771.9316,1.3315.9316,2.2632s-.3105,1.686-.9316,2.3071c-.6655.5771-1.4644.8877-2.3516.8877-.8877,0-1.6421-.3105-2.2632-.9316-.6655-.6216-.9761-1.376-.9761-2.2632,0-.9316.3105-1.686.9761-2.2632.6211-.6211,1.3755-.8872,2.2632-.8872.9316,0,1.7305.2661,2.3516.8872ZM766.9266,23.1501l-1.021,22.7188h-3.5054l-1.0205-22.7188h5.5469Z" style="fill: #fff; stroke-width: 0px;"/>
      </g>
    </g>
  </g>
</svg>