<?xml version="1.0" encoding="UTF-8"?>
<svg id="_圖層_2" data-name="圖層 2" xmlns="http://www.w3.org/2000/svg" viewBox="0 0 135.1517 195.4937">
  <g id="_圖層_3" data-name="圖層 3">
    <g>
      <path d="M135.1517,66.3602l-17.8097,11.3445c-10.5508,6.7036-18.4446,16.8578-22.2921,28.7575l-5.3944,16.6199-1.1903,3.6492-.7137,1.8641-.7539-1.8641-1.1898-3.6492-5.3944-16.6199c-3.8477-11.8997-11.7413-22.0539-22.2921-28.7575l-17.8097-11.3445,17.7302-12.3358c9.3215-6.5051,16.3423-15.7868,20.0708-26.4964L87.6722,0l.0793.1588.0397-.1588,9.5595,27.528c3.7285,10.7096,10.7493,19.9913,20.0708,26.4964l17.7302,12.3358Z" style="fill: #ffeb15; stroke-width: 0px;"/>
      <path d="M61.1517,155.3651l-11.4835,7.3148c-6.8031,4.3224-11.8927,10.8697-14.3734,18.5426l-3.4783,10.7163-.7675,2.3529-.4604,1.2019-.4858-1.2019-.7673-2.3529-3.4783-10.7163c-2.4809-7.6729-7.5706-14.2202-14.3737-18.5426l-11.4835-7.3148,11.4324-7.9541c6.0103-4.1944,10.5371-10.1791,12.9412-17.0845l6.164-17.7496.0509.1023.0257-.1023,6.1638,17.7496c2.4041,6.9054,6.9309,12.8901,12.9414,17.0845l11.4321,7.9541Z" style="fill: #ffeb15; stroke-width: 0px;"/>
    </g>
  </g>
</svg>