<?xml version="1.0" encoding="UTF-8"?>
<svg id="_圖層_2" data-name="圖層 2" xmlns="http://www.w3.org/2000/svg" viewBox="0 0 226.7717 36.8504">
  <g id="LOGO">
    <g>
      <g>
        <g>
          <path d="m33.1306,15.7865l-.1518,1.6176c-.2388.0945-.5275.8637-.5275.8637l-2.4794,3.0671c.8591.1479,1.4601-.1104,1.4601-.1104-.4731-.8588.6563-1.4531.6563-1.4531l1.2126-.0693c1.513-.6563,2.1453-2.0452,2.1453-2.0452.3027-1.0612.0713-1.7415.0387-1.8353l-2.3543-.035Z" style="fill: #ffffff; stroke-width: 0px;"/>
          <path d="m42.4203,13.796l-.9784-.7962-1.9971.2411c-.1943.2337-.8745.5612-.8745.5612-.297.2086-.367-.265-.367-.265l-.415-.3509-.28,1.6758,1.4515-.0429.4875-.7018.6566-.3521c.0904-.0393.3378-.2269.4451-.1999l.8761.0111.0615.7078.3584-.3901c.0025-.0012-.0796-.0552-.0796-.0552.3184.1251.3221.8379.3221.8379l.3329-.8808Z" style="fill: #ffffff; stroke-width: 0px;"/>
          <path d="m36.7301,12.9887l-.9969-.5692s-.813-.8514-.7636-1.5421l2.6012-5.7416.0882-.0546.1279.0141.2256.1411c.1134.1803.3102.476.455.5975.0796.2625.193.576.3354.7883,0,0-.2232-.8288-.0784-1.2962-.4912-.2472-.7915-1.1784-.7915-1.1784l-.4125.1748c-.1642-.0067-.3526-.0331-.4586-.0491-.2896-.1448-.5721-.2662-.7239-.33-1.1945-.6079-4.724-2.2586-9.2184-3.0456C21.5521-.077,7.5833-.2169,4.2761.28c-3.3073.4993-1.9728.4159-1.9728.4159,0,0,12.4595,1.4746,18.3851,5.7777l12.9937,7.7849,3.0481-1.2698Z" style="fill: #ffffff; stroke-width: 0px;"/>
        </g>
        <path d="m42.7317,9.6941s-.1811-.7993-.4632-.6889c-.1617.065-.6867-.1423-1.1066-.3312l-.5635-.2663-1.8099.027c-.1785-.0209-1.1668-.008-1.8317.2331,0,0,1.0814-.1116,2.3312.2675.0602.0258.111.0448.1472.054-.3729.1276-2.5821.5545-2.8935.5619-.4731.0141,1.4973.1656,2.5581.1l-.7049.668c-.0722.0675-1.1991.5742-1.3922.7189-.2717.1129.7252-.0699.7252-.0699-.2124.1147-.8736.3742-1.1149.3969,0,0,.2124.2626.4851.3227-.3972.1062-1.0328.2497-1.2056.2178,0,0,.32.0822.5432.1901-.6624.0884-1.185.2613-1.185.2613l.5877.3325-.671.2871c-1.279-.7545-1.2428-1.7335-1.2428-1.7335l2.0392-5.319c.0747-.0276.151-.0521.2281-.0681l.269.1914c.0289.0687.0771.1399.1592.2356.1414.8251.94,1.579.723,1.2612-.1245-.1797-.2404-.5981-.3221-.9514l-.1051-.8116-.9314-1.0176-.6867.2576s-8.5522-2.1972-9.5719-2.1782c-1.6144-.4895-22.9977,1.6985-22.9977,1.6985l-2.7281.6729c1.0498-.1387,2.3601-.2037,3.8079-.2172.8509.0503,1.8957.1264,3.0395.2454l3.4689.584c13.8132,2.4082,5.2825,8.2106,5.2825,8.2106l-.6394.5379c4.6416-2.7763,8.1649-2.7739,8.1649-2.7739,3.65.2067,1.1149,5.0668,1.1149,5.0668,2.8873-2.9235,5.8798-3.3223,7.54-3.2738.4103.0564.8158.1607,1.1487.3392-.0966.1111-.6625.7171-.7602.8232l-2.5581.5521c-.2014.1883,1.6882-.008,1.4807.1607-.2643.2141.1085.1018-.1641.2834-.2318.1564-2.0608.2822-2.2974.4171-.2269.1288,1.3092.2318,1.0798.3423-.2401.1165-.1737.1024-.1494.0957-.0157.0049-.064.0209-.1786.0601-.2404.0834-2.7911.1135-3.0337.1828-.2062.0583,1.2527.4687,1.0464.5178-2.3433.5545-2.5618,1.2857-5.886.2748-.2557-.0123-1.6301-1.1999-1.8581-1.2158-.2207-.0147.7036,1.1434.514,1.1269-.1663-.0141-2.2959-1.0251-2.4336-1.0386-.5428-.0533,1.1161.898,1.1161.898-.3633-.084-.5502-.1859-.8988-.238-.257-.0386-2.248-.7643-2.4954-.7888-.1217-.0123,1.1549.7422,1.0353.7336-.4958-.0368-.7986-.0822-1.2416-.0748-.2871.0049-2.2624-.5079-2.5231-.4901-.2641.0178,1.1862.5674.9556.5957-1.1896.1392-1.9208.3668-1.9208.3668-1.5856.5754-.3523.3583-.3523.3583,5.3151-.9177,7.1708.4048,9.6358,1.1692,5.5275,1.7126,11.1247-1.72,11.1247-1.72l-.3571.7109c.1002.7091-.6926,1.4041-.6926,1.4041l-.4752.0528-.3501-.2687-.4439.4343-.134.7576c-.0339.1086-.1279.5085-.2195.8852-.7408.3073-1.4493.7306-2.097,1.2728-3.4256,2.8671-3.8722,7.9616-.9981,11.3789,2.8729,3.4167,7.9805,3.8639,11.4048.9968.0388-.0331.0713-.0712.111-.1043-2.8378,1.7642-6.7085,1.1274-9.029-1.6323-2.5314-3.01-2.2599-7.396.6071-9.795,2.8667-2.4003,7.2418-1.9065,9.7735,1.1048.3341.3975.6163.8195.853,1.2563-.3114-.7827-.7469-1.5299-1.3177-2.2095-2.1271-2.5297-5.4777-3.429-8.4643-2.5634.2078-.4632.5865-.8619.5865-.8619.379.0147.1761-.108.8303-.3748.1506-.23,1.1607-.3766,1.1607-.3766.7457-.1564,1.4214-.7244,1.8641-1.5023.4186-.7337.2738-1.4379.2738-1.4379l2.1815-1.563c.7193-.054.7891-.0754.7891-.0754l.5576.1024,2.3276-.8398-.1085.7435.585-.4331c.047.0644.193.1982.0944.5546-.0485.1736.4186-.319.4186-.319l.3944-.4834-1.1884-.8146-1.9138.4681c-.1337-.0884-.5767.4183-.1073-.081.2111-.2245.5899-1.1599.5899-1.1599l.0676-1.1538.6249-.8134.3295-.1288c.134.0668.3151.0871.4983.0859.1134.0307.2932.0889.379.1834l.1472.0742.4513-.3545s-.1076.0122-.2752.0073c.0059-.0013.0203-.0049.0203-.0049-.0108.0036-.0191.0025-.0289.0049-.047-.0013-.1002-.0049-.1556-.0111l.0144-.065-.1447.038c-.245-.1533-.5358-.5398-.5358-.5398l.3778-.4073.5152-.011c.024.0098.1882.0184.2088.0269l.1798.2331.052-.1478c.2714.0533.2413.2656.2413.2656l.0928-.1405Zm-1.7183-.5539l-.5102.0871-.514-.4269,1.0882.2399-.064.1Z" style="fill: #ffffff; stroke-width: 0px;"/>
      </g>
      <g>
        <g>
          <path d="m104.7112,36.6253h18.2145c2.3957-.5732,3.8561-1.4791,4.452-2.7708l3.2027-10.9641h-21.71l-4.1592,13.7349Zm6.5462-4.5476l1.4875-4.9253c.0445-.1381.142-.2641.2841-.3562l.4688-.3092c.1671-.1126.3877-.174.6155-.174h8.9149c.3037,0,.5889.1116.7592.2968l.2847.3071c.14.1525.1902.3398.1369.52l-1.4556,4.8557c-.0303.1023-.0908.1965-.1779.2784-.2416.2231-.5227.4044-.8335.5384-.142.0614-.3041.0932-.4672.0932h-8.8375c-.3042,0-.5878-.1116-.7622-.2959l-.2826-.3091c-.1421-.1525-.1882-.3398-.135-.52Z" style="fill: #ffffff; stroke-width: 0px;"/>
          <path d="m133.0614,14.5955c-.4437-1.9816-.7355-3.7247-.8586-5.2365.0185-.5117-.0066-.8188-.0349-1.0041h-15.0026c-.4216.4903-1.6265,1.8874-1.6085,1.8638-3.9443,5.1106-5.6625,5.9325-7.0273,5.5938-.4247-.1054-.6734-.4299-.5781-.7513l2.0064-6.6419h-14.6471l-8.8149,28.4116h10.8737c2.088-.0041,4.1838-1.3389,4.511-2.2559l4.5459-15.0471c.0441-.1402.1478-.2682.3021-.3593l.4339-.262c.158-.0941.3549-.1454.5565-.1454h1.0782c.1036,0,.2031.0124.297.0369.3411.09.6057.2682.7468.5015.2508.4156.0534.867-.0923,1.1239-.0415.0941-.0697.1617-.1.2354h21.3232c.1421-1.0174.4247-1.5415.9633-1.783.2647-.1188.572-.1515.8709-.1054.3181.0123.5416.0123.6965.0082l.8817-3.0726c-.8766-.259-1.207-.7134-1.3228-1.1106Zm-29.7458-2.8291l-6.7694,21.9488c-.0195.0532-.0446.1044-.077.1535-.1949.2743-.5324.5046-1.0376.7001-.1256.0491-.2678.0757-.4119.0757h-.7124c-.2923,0-.5688-.1085-.7309-.2886l-.2698-.2927c-.1318-.1474-.1785-.3285-.1252-.5005l6.8305-22.0788c.041-.1413.1477-.2641.299-.3563l.4298-.262c.1601-.0941.3576-.1474.5617-.1474h.8817c.2749,0,.5329.0932.6996.2539l.2738.262c.158.1515.2154.347.158.5322Zm23.6072,5.5097c-.1671.1443-.4087.2283-.6683.2283h-8.9682c-.3201,0-.617-.1289-.7729-.3347-.1555-.2057-.1441-.4575.0282-.6561,0,0,2.1891-2.5425,2.1609-2.5056,1.6763-2.2539,2.0692-2.5548,2.7211-2.4995h3.7915c.4318,0,.798.2303.8683.5425l1.0403,4.7042c.041.1873-.0304.3766-.2006.5209Z" style="fill: #ffffff; stroke-width: 0px;"/>
        </g>
        <g>
          <path d="m144.7408,30.3029c.0283-.1024.0888-.1965.1745-.2764l4.5064-4.1331,2.8369-10.3153c.0395-.1433.1441-.2743.3-.3684l.0944-.0573c.2185-.2324.6011-.3767,1.0191-.4811l.8222-3.0051c-.5154-.2129-.7519-.5056-.8494-.7482-.0425-.1012-.0498-.2088-.0215-.3132l.6062-2.2047h-5.0613l-.6848,2.4616c-.039.1433-.1441.2723-.297.3644l-.5314.3275c-.1559.0982-.3554.1515-.5667.1515h-.9684c-.2687,0-.5247-.0921-.6919-.2498l-.3482-.3254c-.1601-.1495-.2201-.3419-.1688-.5281l.5986-2.1361h-5.0614l-.6775,2.3982c-.0441.1535-.1646.2906-.337.3858l-.475.262c-.1534.0829-.3395.129-.5277.129-.2523,0-.4195.0071-.5427.0174l-.8565,3.0133c.6313.1381,1.3069.4156,1.3458,1.0051.003.0532-.0041.1064-.018.1596l-2.8902,10.1986.0533.2835,2.5631,3.9652c.0836.1259.1066.2692.0662.4064l-.0549.1965c-.0302.1085-.0949.2077-.1954.2927-3.1478,2.6735-4.33,2.999-5.1353,2.9519-.2667-.0153-.5032-.088-.7073-.1986-.137-.0082-.2487-.0123-.3345-.0143l-.8366,2.9324h5.0707c1.4115-.433,2.5748-1.09,3.4478-1.9601.1651-.1658.4288-.264.7078-.264h.179c.3325,0,.6314.1351.7843.349.7571,1.0747,1.5726,1.7021,2.4291,1.8751h4.7727l.8053-2.9386c-1.9984-.1166-2.5902-.3091-2.9042-.6059-.1-.0962-.1621-.2006-.1923-.3112l-1.2586-2.0368c-.0765-.1239-.0954-.262-.06-.3951l.0712-.2599Zm-.2507-5.1116c-.0128.0471-.0323.0932-.0601.1372-.2872.4605-.7098.8301-1.2576,1.0911-.1446.0675-.3088.1044-.4811.1044h-.3555c-.2155,0-.4217-.0573-.5868-.1617-.4601-.303-.7427-.7328-.8386-1.2846-.0108-.0706-.0092-.1422.0123-.2118l2.5968-9.2918c.0405-.1433.1473-.2722.298-.3664l.5334-.3254c.1601-.0983.3576-.1516.5643-.1516h.9704c.2698,0,.5252.0901.6925.2478l.3503.3254c.16.1505.2226.3419.1717.5292l-2.6101,9.3582Z" style="fill: #ffffff; stroke-width: 0px;"/>
          <path d="m178.6782,18.4512c-.0119-.0726-.0098-.1463.0091-.22l2.581-9.8762h-22.6327l-2.7693,10.1361c-.0322.1147-.1046.2231-.2112.3112-.3345.2784-.7611.4893-1.2675.6305l-.9026,3.2937c.4657.213.7236.4914.8585.7257.0713.1239.0903.2631.0555.3941l-2.7374,10.0082h15.6387c.276,0,.6078-.0685.9915.3163.2277.2262.139.4298.118.5148-.0252.1188-.1046.4852-.6176.5241-.1257.0103-.3713.0082-.5012.0082h-1.9244l-.2206,1.5619c7.6957.1269,6.9366-.133,7.31-.2436.0626-.0492.1324-.09.2119-.1248,1.2791-.5404,1.6567-.8986,1.6387-2.0287,0-.0634.0119-.1269.0349-.1862.2391-.6366.854-.2927,1.6162-.4637l.8074-3.1003c-.5058-.1515-1.0028-.4023-1.0582-.8495-.0102-.0635-.005-.128.0087-.1904l1.5716-6.0061c.0395-.1516.1514-.2918.316-.391l.3929-.2375c.1298-.0798.2827-.1289.4478-.1484.2739-.0317.4498-.0604.5709-.0829l.8658-3.3244c-.7099-.1945-1.1166-.5107-1.2022-.951Zm-8.1809,11.6326c-.0836.3153-.4622.5445-.9008.5445h-.5688c-.2738,0-1.4145-.09-1.5885-.2477l-.0769-.0696c-.1349-.1198-.2083-.2723-.2062-.4278,0,0,.0164-3.9632.0164-3.9918.016-.2968.019-.5098.016-.6632h-3.9233l-.1929,4.9468c-.0144.3654-.4201.654-.917.654h-3.1431c-.2765,0-.5366-.09-.7104-.2477l-.2297-.2027c-.1699-.1545-.2396-.3551-.1903-.5507l1.5828-6.218c.037-.1463.1395-.2794.2929-.3776l.5688-.3767c.1688-.1085.3873-.1699.615-.1699h9.9315c.295,0,.574.1023.7453.2773l.3692.3756c.1487.1495.2062.3408.158.5241l-1.6479,6.2211Zm3.0503-11.5128c-.0426.1525-.1493.2886-.3129.389l-.4462.2743c-.1672.1003-.3765.1555-.5898.1555h-.3734c-.279,0-1.4182-.092-1.5926-.2497l-.1539-.1361c-.1272-.1198-.2016-.2661-.2036-.4186l-.0544-4.3747c0-.0286.0032-.0572.0072-.0879.003-.0246.003-.039.0102-.0635h-3.6294c.0534,3.4944-.0723,4.4094-.1738,4.7871-.0836.3162-.4642.5434-.9032.5434h-3.2201c-.2759,0-.5406-.092-.7149-.2497l-.0744-.0676c-.1693-.1535-.2386-.3542-.1903-.5475l1.5833-6.2201c.0446-.1638.1672-.3112.3483-.4125l.5498-.307c.1601-.0891.3555-.1382.5576-.1382h9.8828c.2575,0,.5042.0799.6781.2171l.3857.307c.1975.1576.2811.3746.2277.5855l-1.5977,6.0144Z" style="fill: #ffffff; stroke-width: 0px;"/>
        </g>
        <g>
          <path d="m217.3131,13.5827l.4366-.2238c.163-.0816.3626-.1254.5667-.1254h7.6337l.8217-3.1919h-7.2946c-.1559,0-.3087-.0278-.4509-.0786-.5585-.206-1.0396-.6787-.6683-1.3414.0333-.0945.0513-.1661.0744-.2358h-5.3112c-.1507.8936-.4114,1.3254-.917,1.5413-.2375.1025-.5156.1393-.7899.1144h-7.865l-.8658,3.1919h7.6285c.2523,0,.4939.0677.6714.1891l.32.2209c.2113.1452.3037.3502.2503.5482l-.5242,1.9672c-.0374.1443-.1493.2746-.318.3702l-.4483.2527c-.1698.0966-.3816.1482-.6016.1482h-7.9788l-.8689,3.193h13.8465c.2529,0,.4914.0677.6704.1891l.3231.2238c.2088.1433.3042.3472.2508.5462l-.3283,1.2437c-.041.1572-.1692.2966-.3596.3931l-.4406.2228c-.1631.0826-.3575.1264-.5596.1264h-15.0668l-.936,3.4427h14.7656c.3017,0,.5796.0955.7566.2567l.3082.2866c.1508.1372.2092.3105.1651.4775l-1.3366,5.0944c-.0867.3263-.4231.9065-1.7187,1.1323-.0765.014-.1549.02-.2345.02h-2.2589c-.0534,0-.1066-.004-.158-.01-.3826-.0438-.7006-.1871-.896-.404-.3596-.404-.1779-.9074.0374-1.3383.156-.2577.2273-.4348.2668-.5542-.0786.01-.1601.0179-.2406.0159-.7038-.0299-2.1989.0338-2.3599-1.6776-.0252-.3323-.0642-.5433-.1016-.6765h-7.4383l-.021.0825c.1139.3075.3965,1.0896.4108,1.1324.4508,1.9631,1.1956,2.9721,2.5328,3.6218.936.4537,2.1034.5959,3.5965.4287,1.0309-.0915,1.7639.0578,2.1865.4438.6556.599.1329,1.4218-.0979,1.7492-.039.0965-.0713.1811-.0975.2527,1.1284,0,8.1664-.0099,8.1664-.0099,0,0,.1335-.0736.1992-.0876,2.4512-.5243,3.1354-1.391,3.4519-2.4148l1.8321-7.1073c.0201-.0815.0662-.1602.1339-.2308.4831-.5065,1.2633-.7124,2.0824-.5503-.0692-.0149-.1416-.0228-.2113-.0249.3606.014,1.2777.1144,1.4557.1115l.8816-3.4477c-1.1325.0447-2.4994-.1303-2.8635-.5025-.1816-.183-.2165-.4039-.1242-.6168l.3144-1.2059c.0297-.1184.1087-.2279.2293-.3165.6806-.5034,1.3094-.4995,1.6951-.4239.2852.01,1.1628.1134,1.3187.1075l.8145-3.184h-7.9819c-.2775,0-.5453-.0835-.7197-.2278l-.3149-.2547c-.1744-.1403-.2487-.3274-.2026-.5085l.5176-1.9741c.042-.1572.1703-.2975.3575-.393Z" style="fill: #ffffff; stroke-width: 0px;"/>
          <path d="m198.6385,15.1001l.7832-3.0517c-1.152.0586-1.8644-.0019-2.2219-.3897-.1703-.1865-.2021-.4087-.1098-.6229l.6919-2.6808h-5.5046l-.7729,2.9446c-.0395.1548-.1605.2916-.3365.3858l-.4181.2212c-.1528.0813-.337.1249-.5293.1249h-1.2423c-.2596,0-.5103-.0812-.6754-.2261-.1688-.1428-.2365-.3313-.1882-.5138l.1349-.5078c.023-.0922.0856-.1745.163-.2489l.2709-.848h-2.8134c-.0143.0665-.0251.1469-.0322.2599-.0021.0357-.0092.0704-.021.1071-1.2557,4.0008-2.0569,5.3536-2.7887,5.7701l.0492,2.9734h.3432c1.331-.2351,2.2825-.9234,2.9046-2.1016.1067-.7627.3298-1.202.7551-1.4351.2616-.1447.5868-.2023.914-.1626-.0482-.006-.1-.0079-.1503-.0079h1.2465c.2646,0,.5134.0843.6827.2281l.2897.2539c.1631.1428.2324.3293.1862.5118l-1.052,3.9939c-.018.0743-.0584.1468-.1139.2112-4.5731,5.3031-6.9294,5.9943-8.0855,6.4683l-.8381,4.0246c.197,0,.3483,0,.3288,0l1.9712-.0872c1.015-.2529,1.7465-.5554,2.1665-.9005.2575-.2143,1.0376-.2778,1.3971-.1548.3585.1221.5576.4007.4832.6784l-1.7132,6.5199h5.6303l3.5283-13.6588c.0139-.0575.039-.1111.0764-.1627.174-.2539.7319-.8252,2.106-.6228-.0425-.006-.0856-.01-.1297-.012.3288.0139.5596.0139.7197.01l.7842-3.0547c-1.0935.0526-1.8111-.0119-2.1758-.3987-.1758-.1865-.2133-.4175-.1205-.6377l.6319-2.4447c.0164-.0615.0445-.12.0836-.1726.1764-.2429.7309-.7854,2.1029-.5811-.0411-.006-.0872-.01-.1318-.0119.3386.0138.5729.0138.7401.0099Z" style="fill: #ffffff; stroke-width: 0px;"/>
        </g>
        <path d="m85.056,33.5986h-29.296c-.0856,0-.1246.0235-.3338-.0164-.3699-.0389-.6042-.0779-.7474-.1454-.4206-.2036-1.1053-.9939-.9873-2.3705.0071-.0942.0657-.6162.316-1.0625,0,0,.2487-.3142.4713-.4053.2252-.0921.3482-.1474.5345-.1474h22.5562c2.6164.0531,1.8594-.0113,2.0799-.0451.0836-.0451.1759-.0819.2786-.1003,3.1944-.5661,5.0423-1.693,5.6486-3.4237l5.2184-17.4709h-37.1568c-.8766,2.6387-6.9832,21.9724-6.9761,21.9571l-1.0401,2.7307c.3785,2.4278,1.7669,3.6192,4.3299,3.7319h31.2579s1.3761.1105,2.6183-.8424c1.1002-.8466,1.228-2.39,1.228-2.39Zm-14.379-8.8475l3.8997-11.8773c.039-.1289.139-.2456.276-.3285l.5345-.3215c.1436-.087.3252-.1341.5103-.1341h5.4902c.256,0,.4955.088.6462.2384l.3293.3204c.1462.1433.1996.3265.1441.5015l-3.478,10.7083c-.2087.6572-.8571,1.521-2.7677,1.8956-.0671.0123.7037.0195.6325.0195h-5.0866c-.2308,0-.4483-.0727-.6042-.1997l-.3391-.2814c-.1785-.1464-.2477-.349-.1872-.5415Zm-14.9211-.0051l4.0028-11.8762c.0431-.1289.1431-.2436.2826-.3275l.5427-.3224c.1452-.0849.3231-.13.5062-.13h5.1614c.2508,0,.4903.0859.6432.2334l.3345.3224c.1477.1443.2021.3316.1436.5087l-3.9468,11.8773c-.0467.1392-.158.2651-.3181.348l-.5318.2814c-.137.0727-.3021.1127-.4708.1127h-5.2118c-.2272,0-.4436-.0706-.597-.1956l-.3483-.2804c-.1831-.1495-.2554-.3563-.1923-.5517Z" style="fill: #ffffff; stroke-width: 0px;"/>
      </g>
    </g>
  </g>
</svg>